<!-- OND símbolo (estrela/sparkle de 4 pontas) — SEMPRE OND Purple #7F11F4. Funciona em fundo claro ou escuro. Regra: nunca tingir em outra cor. -->
<svg xmlns="http://www.w3.org/2000/svg" viewBox="0 0 497.26 497.26" role="img" aria-label="OND"><path fill="#7F11F4" d="M390.63,243.95l-76.8-49.85-63.18-129.75c-.84-1.72-2.35-2.7-3.97-2.96-1.62.26-3.14,1.24-3.97,2.96l-63.18,129.75-76.8,49.85c-1.69,1.1-2.5,2.9-2.45,4.68-.05,1.78.76,3.59,2.45,4.68l76.8,49.85,63.18,129.75c.84,1.72,2.35,2.7,3.97,2.96,1.62-.26,3.14-1.24,3.97-2.96l63.18-129.75,76.8-49.85c1.69-1.1,2.5-2.9,2.45-4.68.05-1.78-.76-3.59-2.45-4.68Z"/></svg>
