<?xml version="1.0" encoding="UTF-8"?>
<svg id="Layer_1" xmlns="http://www.w3.org/2000/svg" version="1.1" viewBox="0 0 1080 1509.7">
  <!-- Generator: Adobe Illustrator 29.8.1, SVG Export Plug-In . SVG Version: 2.1.1 Build 2)  -->
  <defs>
    <style>
      .st0, .st1 {
        fill: #560fb2;
      }

      .st2 {
        fill: #af97fe;
      }

      .st3 {
        fill: #461887;
      }

      .st4 {
        fill: #9780de;
      }

      .st5 {
        fill: #af97fd;
      }

      .st6 {
        fill: #28b37a;
      }

      .st7 {
        fill: #145238;
      }

      .st8 {
        fill: #155239;
      }

      .st1 {
        isolation: isolate;
        opacity: .99;
      }

      .st9 {
        fill: #743ec5;
      }

      .st10 {
        fill: #cb381c;
      }

      .st11 {
        fill: #155339;
      }

      .st12 {
        fill: #fefefe;
      }

      .st13 {
        fill: #e3702a;
      }

      .st14 {
        fill: #972322;
      }
    </style>
  </defs>
  <path class="st6" d="M86,358.45l1.98-.75c17.92,21.51,35.85,43.02,53.78,64.54l-.76,2.21c-3.22,2.45-2.15,9.07-9.45,8.03-2.76-.39-9.28-8.95-11.53-11.55-14.22-16.48-27.39-34-41.29-50.76-2.61-6.11,3.4-6.87,5.95-9.06.47-.4.72-1.85,1.31-2.66h0Z"/>
  <path class="st7" d="M141,424.45l-55-66c.36-.48.14-1.79,1.43-3.03,4.22-4.06,7.79-1.28,11.09,2.01,16.21,16.12,30.19,39.86,46.34,56.66,3.46,7.32.17,7.3-3.86,10.36Z"/>
  <path class="st6" d="M67,443.45c11.64,3.09,23.67,5.05,36.08,5.88,10.36.16,17,3.53,19.92,10.12-3.59,3.3-2.57,7.97-8.52,8.05l-50.72-8.31c-4.5-2.53-6.41-6.83-2.33-10.81,2.53-2.47,2.88-.98,5.57-4.93Z"/>
  <path class="st6" d="M180,358.45c3.02,1.83,7.91,5.76,7.77,9.66-1.61,16.09-2.53,31.87-2.77,47.34-3.84,3.38-5.25,11.01-12.38,6.88-4.07-2.36-2.82-15.48-2.66-20.42.22-6.89,1.55-15.01,2.03-21.97.33-4.8-1.34-12.43,1.98-16.02,2.24-2.42,3.18-1.65,6.03-5.47h0Z"/>
  <g>
    <path class="st1" d="M1020,1343.45c.69-4.36-.08-11.21,0-16,.11-6.32,0-12.68,0-19,0-5.99.05-12.01,0-18-.51-55.4-2.14-111.08-3.04-166.46-.28-17.51.7-35.06-.45-52.55l-92.58-49.67c-.36-2.69-4.49-10.76-3.88-12.71.56-1.77,6.82-1.94,8.84-5.22,1.16-1.88,2.02-7.48,2.14-9.85.49-9.55-2.7-41.58-5.8-50.28-7.71-21.64-36.45-38.76-53.07-52.93-47.25-86.84-87.28-178.16-135.64-264.36-11.25-20.04-21.53-34.7-44.24-42.76l-74.21-19.79c-6.93-3.74-15.12-36.96-10.88-45.25,22.23-3.07,48.83-14.15,44.81-41.19,68.72-5.95,146.06-23.38,201.92-65.58,75.74-57.22,72.32-132.05-24.15-159.68-46.85-13.42-97.55-11.87-145.76-8.75,11.98-29.53,24.15-60.49,30.69-91.8,15.85-75.89-6.66-112.04-86.9-90.9-36.24,9.54-74.47,28.87-107.46,46.54-5.06,2.71-35.69,21.19-37.86,21.15-2.19-.05-12.94-13.87-15.45-16.5-34.61-36.42-74.3-69.33-126.54-74.46-139.09-13.65-191.91,136.98-142.66,247.66,34.84,78.3,127.6,138.33,211.18,150.87,1.42.21,2.88-.67,2.98-.55.5.53,2.47,11.67,3.3,14.23.78,2.41,3.73,6.51,3.7,8.31-.05,2.69-5.99,5.44-7.97,7.98-13.32,17.01.69,50.03,22.64,51.44,2.05.13,6.79-1.23,7.27-.88.29.21,2.01,5.17,2.92,6.6,12.81,20.04,34.12,24.64,54.5,12.17,1.53-.94,6.12-5.66,7.17-5.64.42.01,6.29,4.79,6.56,5.23,2.81,4.6-2.63,24.47-5.81,29.58-25.94,7.72-54.39,11.5-80.02,19.73-18.32,5.89-30.59,15.8-42.05,30.95-27.64,36.52-50.07,81.57-76.75,119.25l-2.42,2.07-27.08-91.38c.26-1.69,7.24-1.54,9.11-2.08,6.9-2.02,15.62-12.18,22.03-15.96l.88-4.96-44.45-164.63-1.9-.93-92.62,16.43c-4.51,1.11-25.08,18.43-25.84,21.24-1.1,4.08,8.85,24.46,6.84,27.28-9.05-7.66-35.55-10.99-31.76,7.28,1.77,8.51,10.02,11.32,14.21,16.78,1.06,1.38,11.16,23.36,11.39,24.7.51,3.01-1.52,5.63-1.84,8.74-.92,9.17,1.75,17.42,7.59,24.42,1.02,1.22,3.94,2.19,4.11,3.56.18,1.5-3.2,7.23-3.61,10.12-.74,5.23-.49,11.09,3.26,15.06,5.53,5.86,15.95,3.51,17.19,5.3.62.9,1,5.74,1.96,8.04.97,2.35,3.76,4.84,4.26,6.74,1.35,5.18-.93,7.34,2.44,13.56,3.91,7.21,9.68,6.98,15.68,11.32l45.94,134.06c11.59,28.15,50.63,34.45,76.94,26.58,13.13-3.93,18.9-12.59,27.76-22.24,25.85-28.16,49.8-59.82,76.49-87.01,2.22-1.64,2.56-1.5,1.04.4l.96,16.6c.71,31.49.42,66.44,2.96,97.54,1.6,19.59,3.59,30.39,3,50.92-3.16,109.3-9,218.05-13,327-.36,9.88-1.36,22.93-.99,32.61l3.99,4.57c16.08,18.76,30.76,36.79,43.33,58.21,3.18,5.41,12.06,20.72,13.02,26.04.52,2.87-1.37,5.81-3.77,4.22-.9-.6-7.16-16.44-8.88-19.63-11.4-21.04-30.26-44.94-46.8-65.02-6.81-8.27-15.44-14.92-25.33-19.05-3.8-1.59-7.78-2.81-12.13-3.3-54.73-6.14-28.46,79.32-19.41,107.41,11.2,34.77,29,77.27,44.49,110.51,5.46,11.73,13.16,27.1,25.54,32.46,5.99,2.59,12.5,2.46,17.99,5.51h6c2.92-.86,6.08-.86,9,0h6c21.24-1.62,51.08-7.02,55.01-30.93,14.41-175.49,28.98-351.56,43.73-528.21-1.09-11.53-1.27-18.61,1.58-16.09,7.98,61.05,15.76,122.54,23.35,184.45,4.74,34.65,10.81,61.17,43.4,78.09,39.06,20.28,90.58,8.59,88.91-42.95-15.61-128.83-31-257.68-46.16-386.56-8.31-24.8-5.75-23.91,7.69,2.67,41.02,61.66,81.73,123.52,122.13,185.59,7.75,16.41,12,32.65,12.75,48.74l.15.2h.25l1.21,2-1.46-2h-76.11l-.93,2c-2.44-1.27-3.67.28-3.68,4.63,1.43,57.82,2.17,116.28,2.23,175.39l1.1,29.1c47.88,48.92,98.68,100.17,147.37,148.17,7.54.23,15.04.37,22.58.36,33.14-.04,66.39-.21,99.52-.6,4.1-.05,5.39-2.53,4.39-6.04l-.03-.03Z"/>
    <path class="st1" d="M823.79,990.45h-.25l1.46,2-1.21-2Z"/>
  </g>
  <path class="st8" d="M123,459.45c-3.56-.49-2.8-3.58-6.52-4.98-11.92-4.5-33.53-4.41-47.19-7.86-2.58-.65-2.62.38-2.3-3.16,1.81-2.66,1.19-4.56,6.31-4.65,14.06-.25,34.9,7.63,49.73,8.11,4.68,2.04,6.76,6.05,3.44,10.54-1.39,1.87-3.08,1.63-3.48,2h.01Z"/>
  <path class="st11" d="M185,415.45c-3.23.89-2.13-5.99-2.04-7.55.8-13.22,2.08-26.5,2.82-39.72-.49-5.61-5.89-4.71-5.78-9.73.76-1.01.39-2.58,2.22-3.33,5.31-2.2,10.37.01,10.73,5.96-2.63,15.56-.66,33.46-3.02,48.81-.77,5.01-3.16,4-4.94,5.56h0Z"/>
  <path class="st2" d="M422.93,300.55c-5.48,21.26-8.59,43.3-6.91,65.39.45,5.89,3.43,13.58,3.02,18.99-.66,8.78-6.06,20.58-7.02,31.03-.27,2.92,1.08,14.8-1.47,15.25-99.38-21-198.21-82.4-221.05-187.75-24.24-111.81,46.5-228.41,171.94-196.94,110.34,27.68,176.08,196.54,283.55,255.45,79.67,43.68,166.5,28.91,246.39-5.38,27.6,38.4-4.3,82.06-34.89,106.83-55.34,44.8-134.48,62.35-204,69.11-1.74-.18-2.29-.14-3.39-1.67-1.17-1.62-5.99-13.58-6.85-16.15s-1.95-5.04-2.24-7.76c.83-43.02,4.51-85.92,4.8-128.8-26.36-21.97-52.67-44.05-79.27-65.73-4.92-4.01-6.31-8.31-13.05-8.03-30.85,1.28-79.73,9.11-108.15-2.77-8.85-3.7-9.28-9.35-17.84-2.2-20.6,17.2-36.06,46.72-3.55,61.12h-.02Z"/>
  <path class="st3" d="M892.84,1077.6l-1.85,262.84-140.79-141.7c-.56-66.64-.96-133.24-2.21-199.79l144.84,78.65h0Z"/>
  <path class="st2" d="M869.3,896.15c13.15,9.26,28.11,18.58,38.67,30.83,13.88,16.1,15.21,27.13,17.02,47.98.51,5.86,2.17,21.22-.19,25.8-.92,1.79-5.06,3.34-6.8,2.25-1.45-.91-8.6-19.93-10.48-23.58-5.95-11.54-16.3-28.74-31.58-25.53-12.41,2.6-20.5,26.38-22.49,37.5-.99,5.5,1.84,12.31-5.21,12.85-2.49.19-4.78-1.4-6.74-2.81-10.74-7.72-13.08-29.94-17.24-42.76-2.25-6.94-4.72-13.79-7.45-20.55l-139.39-213.65c3.29-38.57,8.63-76.5,3.43-115.39-1.15-8.59-3.13-17.16-4.85-25.64,15.21,4.56,30.75,10.77,41.51,22.98,54.61,94.13,100.44,193.62,151.79,289.71h0Z"/>
  <path class="st2" d="M202,676.45c10.61-.27,22.62-2.81,31.32-9.18,6.55-4.79,11.35-10.1,9.67-18.83l29.96-2.95,32.78,110.72c1.71,4.17,2.03,9.22,5.77,12.21,2.04-1.44,1.6-3.26,1.41-5.36-.41-4.7-6.44-18.59-5.41-21.57l79.28-120.77c8.3-12.01,19.94-23.87,33.96-29.04,2.69-.99,7.27-3.7,9.08-.56,3.51,6.07,6.68,27.34,7.17,34.83,1.84,28.31-1.19,59.16-7.21,86.77l-95.24,110.76c-20.23,19.68-71.19,15.47-85.08-11l-47.45-136.04h-.01Z"/>
  <path class="st2" d="M423.02,455.45c-8.49-18.31-6.9-37.02-2.72-56.21.9-4.14,4.2-11.14,4.49-14.52.35-4.06-3.36-15.22-3.77-20.78-1.49-20.09,1.05-41.33,7.02-60.49,39.91,13.03,82,10.84,121.73-1.74,14.81-4.69,25.88-13.94,41.93-4.45,29.44,17.39,26.03,94.52,12.49,121.87-7.82,15.79-30.26,26.54-46.52,31.04l-83.17-29.36c-6.68,2.24-48.97,36.48-51.48,34.64h0Z"/>
  <path class="st10" d="M151,497.45c-.44-1.37.16-2.07,1.48-2.3l90.97-16.07,43.17,157.67-1.62,1.7c-14.43,3.05-29.98,3.16-44.52,6.03l-2.49-1.56c4.83-10.64,13.61-22.03-1.98-27.98,8.64-8.26,16.64-25.87,4.48-34.49-3.08-2.19-4.36-2.86-7.5-.01v-1c2.27-2.75,6.12-10.69,5.78-14.27-.37-3.98-4.75-7.73-8.51-8.5-18.22-3.71-40.27,7.9-59.13,4.63l-20.14-63.86h.01Z"/>
  <path class="st9" d="M823.5,995.45c.83.25,1.43,1.55,1.53,2.49.28,2.74-2.5,13.79-1.93,15.86,1.41,5.11,20.04,4.93,24.88,3.14,5.85-2.16,10.11-12.19,11.5-12.29.46-.03,4.99,3.12,7.06,3.76,4.24,1.3,18.33,1.79,20.19,3.31,3.65,2.99,10.38,34.12,13.19,40.31,3.15,6.06,18.04,6,23.77,3.62,13.8-5.73,3.69-16.14,3.8-26.19l80.5,43.5c-6.07,1.08-12.35.24-18.48.51-31.01,1.32-62.58,2.1-93.54,2.52-45.37-26.43-93.63-49.46-138.64-76.36-1.8-1.08-4.36-2.25-5.33-4.17h71.5,0Z"/>
  <path class="st2" d="M602,519.46c-3.98,9.04,4.69,42.56,11.46,48.06,1.01.82,2.24.61,2.84.93,2.96,1.59-1.83,2.53-3.22,3.55-10.03,7.4-41.99,36.44-52.59,36.03-1.28-.05-8.65-4.07-10.51-5.07-15.72-8.41-30.51-21.44-43.97-33.03,4.92-1.1,5.07-1.86,6.75-6.23,2.75-7.12,3.82-15.76,5.25-23.26,5.09,2.18,9.47,5.72,14.63,7.86,20.66,8.53,37.21,3.12,51.33-13.39,2.16-2.52,9.25-14.51,10.01-14.99,1.95-1.19,5.71-.21,8.01-.48v.02Z"/>
  <path class="st13" d="M153,492.45c5.75-5.4,11.79-10.61,17.96-15.54l92.04-15.46,41.98,161.65-.16,2.16c-5.75,2.28-10.86,9.56-15.82,12.19l-2.11-.14-42.82-156.96-1.98-1.1-87.56,14.97-1.53-1.78h0Z"/>
  <path class="st2" d="M606.05,880.49c27.92-4.17,55.24-13.97,78.94-29.05l3.57,28c-12.49,11.26-26.06,18.75-42.02,24.04-5.63,1.86-35.15,9.93-38.6,7.52-.73-3.54-2.95-29.41-1.88-30.51h-.01Z"/>
  <path class="st2" d="M156.29,563.75c4.5-3.58,10.4.99,15.32,1.58,18.2,2.21,35.26-5.8,51.92-4.92s9.99,12.17,1.48,19.55c-12.59,10.91-34.23,18.32-50.64,20.36-5.42.68-16.29,2.62-19.82-.93-8.15-8.17-7.13-28.61,1.74-35.64Z"/>
  <path class="st2" d="M523,878.45l-3.01,29c-1.42,1.48-34.99-9.29-39.51-10.99-8.46-3.18-37.57-16.35-41.54-23.46-.85-1.51-4.73-25.48-3.93-26.56,27.59,14.58,57.02,26.75,87.99,32h0Z"/>
  <path class="st2" d="M233,580.45c-.22,3.04,3.02,2.81,5.06,4.44,10.68,8.57-3.83,26.49-11.58,32.53-13.94,10.87-42.74,15.66-60.02,14.07-13.93-1.28-10.67-18.14-3.22-25.31,20.7-1.36,40.9-6.16,58.29-17.71,3.06-2.03,9.3-6.4,11.47-9.03v1h0Z"/>
  <path class="st2" d="M601,881.44l2.01,31c-25.41,2.43-51.17,1.03-76.34-3.16-2.46-.82-1.79-5.13-1.66-7.32.44-7.18,2.44-15.22,3-22.52,24.02,4.83,48.75,5.04,72.99,2h0Z"/>
  <path class="st12" d="M476.14,465.58c.58-.92,16.82-2.89,19.37-3.13,5.76-.54,26.52-2.23,30.47-.48,3.49,1.54,3.85,7.3,2.5,10.46-1.03,2.42-13.58,11.65-16.56,13.44-23.91,14.38-34.2,6.88-35.78-20.28h0Z"/>
  <path class="st2" d="M232.65,641.1c-4.87,5.49-17.99,11.38-25.26,12.24-12.73,1.5-29.59-.91-29.4-16.89,13.82-.05,28.77-3.42,41.36-9.14,5.12-2.33,14.53-10.6,19.66-5.38,3.34,3.4-3.67,16.14-6.37,19.18h0Z"/>
  <path class="st2" d="M164.99,559.45c-2.67-2.14-4.66-2.65-8.05-1.55l-7.95,7.06c-4.31-6.39-5.87-15.61-10.16-21.85-3.51-5.11-18.85-13.2-12.42-20.75,6.08-7.14,27.19,3.22,31.09,11.08,1.18,2.38,8.3,24.93,7.48,26.01h.01Z"/>
  <path class="st14" d="M289,637.45c-2.2,1.17-2.26.63-4,1l-42.12-157.88-91.88,16.88-.8-2.34c.32-1.55,1.96-1.87,2.8-2.66l91.5-15.06,44.5,160.06Z"/>
  <path class="st5" d="M187.34,666.11c-2.66-2.64-3.87-6.97-3.33-10.66,12,5.08,27.21,3.89,38.97-1.52,2.27-1.05,10.85-7.34,11.53-7.28,1.13.09,3,3.28,3.28,4.52,2.11,9.26-15.36,17.04-22.77,18.81-8.12,1.94-21.34,2.43-27.69-3.87h.01Z"/>
  <path class="st5" d="M881,1005.44c-8.15-.16-19.24-1.11-22.27-10.31-2.41-7.3,14.12-19.99,17.81-14.72,2.1,3,2.44,20.29,4.46,25.03h0Z"/>
  <path class="st1" d="M707,1196.45v23.5c0,12.12-8.81,32.3-20.61,37.39-26.19,11.3-50.73-23.35-58.41-44.36-1.74-4.77-6.33-20.67-6.06-25.04.51-8.04,9.82,2.06,13.78,4.32,15.4,8.77,37.13,12.19,54.54,8.94,5.88-1.1,11-4.27,16.76-4.74h0Z"/>
  <path class="st0" d="M485.01,361.46c.16.12,2.86-1.44,3.98-1l-13,54c-.81-.12-2.77.2-2.99,0-1.82-1.73,13-46.71,10.89-48.94-.28-.29-2.22.41-2.99-.65-2.56-3.52-3.52-11.37-7.91-15.9-7.02-7.23-17.21-3.78-24,1.98-2.39,2.03-7,10.12-9.52,6.54-2.77-3.93,8.14-12.04,11.23-13.83,14.1-8.17,24.32-3.62,31.49,10.11.93,1.78,2.49,7.45,2.82,7.7h0Z"/>
  <path class="st0" d="M552,369.45c9.52,4.41,4.79,20.91-7.49,20.06-13.39-.92-10.61-18.94-1.51-21.06,1.75-1.65,7.93-1.25,9,1Z"/>
  <path class="st0" d="M458.74,361.66c12.73-1.25,14.06,21.3.74,21.86-13.38.56-13.11-20.64-.74-21.86h0Z"/>
  <path class="st0" d="M559,368.45c-5.92-.01-11.59-.68-17-2-3.83-.42-17.99-1.79-20.31-3.19-2.91-1.75-2.14-4.29.8-4.84,9.61,1.53,19.34,3.03,29.01,4.02,6.65.68,17.27-.06,22.97,1.03,3.93.76,4.69,4.11.83,5.81-5.39-1.13-10.84-.9-16.3-.84h0Z"/>
  <path class="st4" d="M559,368.45c-2.19.03-5.64-.74-7,1-2.33-1.08-6.64-1.55-9-1l-1-2c5.47.6,11.78.42,17,2Z"/>
</svg>