<?xml version="1.0" encoding="UTF-8"?>
<svg id="Layer_1" xmlns="http://www.w3.org/2000/svg" version="1.1" viewBox="0 0 3198 1798">
  <!-- Generator: Adobe Illustrator 29.8.1, SVG Export Plug-In . SVG Version: 2.1.1 Build 2)  -->
  <defs>
    <style>
      .st0 {
        fill: #135236;
      }

      .st1 {
        fill: #a971e5;
      }

      .st2 {
        fill: #6f0908;
      }

      .st3 {
        fill: #7540c7;
      }

      .st4 {
        fill: #69dd76;
      }

      .st5 {
        fill: #4b366a;
      }

      .st6 {
        fill: #a66ee2;
      }

      .st7 {
        fill: #135635;
      }

      .st8 {
        fill: #180634;
      }

      .st9 {
        fill: #6dea6d;
      }

      .st10 {
        fill: #165638;
      }

      .st11 {
        fill: #fff;
      }

      .st12 {
        fill: #7651aa;
      }

      .st13 {
        fill: #190634;
      }

      .st14 {
        fill: #175039;
      }

      .st15 {
        fill: #19593c;
      }

      .st16 {
        fill: #415e6f;
      }

      .st17 {
        fill: #b098fd;
      }

      .st18 {
        fill: #936ce3;
      }

      .st19 {
        fill: #7544c5;
      }

      .st20 {
        fill: #19533c;
      }

      .st21 {
        fill: #7c55aa;
      }

      .st22 {
        fill: #7441c6;
      }

      .st23 {
        fill: #16543b;
      }

      .st24 {
        fill: #a870e4;
      }

      .st25 {
        fill: #6b449b;
      }

      .st26 {
        fill: #17553c;
      }

      .st27 {
        fill: #190739;
      }

      .st28 {
        fill: #135137;
      }

      .st29 {
        fill: #57c661;
      }

      .st30 {
        fill: #7340c5;
      }

      .st31 {
        fill: #a56ee1;
      }

      .st32 {
        fill: #0d582a;
      }

      .st33 {
        fill: #68e56f;
      }

      .st34 {
        fill: #7a4fa6;
      }

      .st35 {
        fill: #6adc76;
      }

      .st36 {
        fill: #265750;
      }

      .st37 {
        fill: #743fc6;
      }

      .st38 {
        fill: #145238;
      }

      .st39 {
        fill: #743fc7;
      }

      .st40 {
        fill: #7846c9;
      }

      .st41 {
        fill: #9565c7;
      }

      .st42 {
        fill: #7442c6;
      }

      .st43 {
        fill: #c45222;
      }

      .st44 {
        fill: #180631;
      }

      .st45 {
        fill: #7542c7;
      }

      .st46 {
        fill: #6ad976;
      }

      .st47 {
        fill: #0e562d;
      }

      .st48 {
        fill: #691519;
      }

      .st49 {
        fill: #205348;
      }

      .st50 {
        fill: #e5702a;
      }

      .st51 {
        fill: #750c07;
      }

      .st52 {
        fill: #155d35;
      }

      .st53 {
        fill: #230c42;
      }

      .st54 {
        fill: #2a7a48;
      }

      .st55 {
        fill: #7948ca;
      }

      .st56 {
        fill: #7440c5;
      }

      .st57 {
        fill: #7440c7;
      }

      .st58 {
        fill: #61e766;
      }
    </style>
  </defs>
  <g>
    <polyline class="st11" points="1193.79 508.53 1422.21 624.38 1207.95 490.1"/>
    <path class="st1" d="M2250,1144.06v4c1.6,2.64,2.93,5.31,4,8-.04,3.63-1.61,4.6-4.78,3.6,5.5,10.9,10.97,21.97,16.41,33.21-3.16,13.2-6.28,26.66-9.37,40.39-5.1,14.33-15.42,15.17-28.26,14.85-18.74-.47-39.05-5.3-56.77-11.11l-1.24-4.93c-6.88-5.62-14.1-10.87-21.66-15.74-16-40.45-18.8-80.75-4.34-122.26-.34-9.27,2.33-15.94,8-20l6-14-1.13-4.85c11.27-37.91,32.92-73.29,55.13-105.15,2.16-12.01-9.01-4.56-10.07,4.03-4.31,3.31-6.5,7.3-6.57,11.97-2.15,2.8-4.79,4.45-8.18,5.46-11.06,3.3-69.33-32.58-80.06-39.9-5.01-3.74-6.06-7.26-3.13-10.56l-2.36-.61.37-97.18c-2.95-1.42-2.86-3.66.26-6.73-2.25-6.42-1.67-10.92,1.73-13.49-1.6-1.02.94-5.33,2.19-6.02,6.74-3.71,71.32,30.49,80.26,35.57,46.84,26.64,92.14,55.6,127.56,96.57,28.59,33.07,20.25,54.41,2.89,90.88-22.19,46.6-49.8,95.88-86.31,132.32-42.57,24.01,4.84,7.34,14.35-8.64l5.07.32Z"/>
    <polygon class="st19" points="1915.83 1328.15 2418 1334.06 2414.99 1346.06 1892.35 1348.06 1915.83 1328.15"/>
    <path class="st1" d="M1760,610.06c-1.96-3.21-4.65-5.92-8.06-8.13-33.87-14.93-67.87-32.68-96.64-57.17l-1.3-6.69-6-4c-6.32,2.31-12.29-3.74-10-10-13.4-11.19-25.66-23.92-36-38-2.18-.23-3.41-1.96-4-4-1.54-.25-3.05-.57-4.45-1.14-19.28-7.85-45.1-80.41-49.84-102.29-4.71-21.73-11.29-98.65,2.73-113.68,1.03-1.11,2.26-2.03,3.55-2.89,2.54-3.51,3.38-7.79,4-12-.55-1.41-1.03-2.84-1.24-4.3-1.04-7.07,10.79-26.8,15.34-34.2,54.31-88.42,156.12-81.98,227.53-17.52l46.31,43.4c11.82,8.62,22.51,18.16,32.06,28.62l4.85-.27c68.49,56.16,150.57,122.87,234.84,154.57,90.48,34.03,171.09,17.37,256.02-23.5,22.62,13.22,25.15,38.43,18.48,61.63-27.89,96.99-185.73,163.75-279.84,159.25-10.41-1.21-38.39-1.85-40.2,4.91"/>
    <path class="st44" d="M2225.87,1150.94c-2.13,1.52-29.12,12.62-14.57,16.94,11.51,3.41,31.83-15.7,38.69-23.81,26.31-31.07,57.02-83.96,73.71-121.28,17.74-39.66,26.63-57.82-1.76-95.67-35.84-47.79-106.49-87.89-159.96-113.04-15.17-10.05-31.17-16.72-48-20l-6-2c-.79-1.7-1.46-1.73-2,0-7.11-1.78-14.33-4.03-21.54-5.46-10.53-2.09-69.27-9.05-72.56-11.45-2.87-2.09-4.75-43.27-3.85-48.04,1.43-7.62,6.81-6.63,9.95-9.05,13.93-10.75,18.29-14,33.39-23.61,10.37-6.6,28.85-22.69,32.61-34.39,7.42-23.05-.99-33.88-5.9-53.1-3.77-14.77-6.78-31.44-9.48-46.52-6.63-37.14-8.6-114.84-35.96-140.04-15.19-13.99-53.14-34.82-73.59-36.41-55.97-4.33-120.35,31.2-165.59,23.59-18.8-3.16-17.53-22.9-39.48-1.52l-8,12c-6.72,16.31-9.24,30.88,4.21,44.79,4.43,4.58,20.52,11.03,21.02,14.12-6.76,28.59-9.06,58.35-4.73,87.58,1.66,11.22,7.42,35.12,11.49,45.51,4.79,12.23,17.09,27.62,22,40,.99,2.5,1.16,5.44,2,8-29.23,20.88-9.9,69.14,23.52,73.47,5.32.69,17.18-1.25,18.48-.59,2.45,1.26,4.79,7.21,8.12,10,20.3,17.01,46.23,12.45,68.74,3.22,5.85,1.4,2.13,24.18,3.15,29.9-21.8.61-43.4,6.33-65.03,7.97-55.78,4.24-107.29,2.88-163.65,12.35-58.26,9.79-184.42,49.16-215.75,102.25-14.02,23.76,4.96,49.56,20.42,67.42l10,10c1.41,1.94,2.65,4.02,4,6l.67,4.87c32.52,25.07,64.06,46.48,102.63,64.41,1.49.69,3.24.85,5.06.97,1.86.13,3.75-.02,5.63-.25,9.47,4.34,19.27,7.99,29.39,10.92,3.1,3.19,13.3,6.24,10.61-.92,1.49-.95,1.16-2.73,0-4,1.71-.95,1.79-1.63,0-2l-2.14-7.67c-40.35-14.88-78.36-34.07-114.05-57.56l-7.82-.77c-2.08-2.72-4.76-4.83-8-6l.63-4.65c-50.63-43.52-67.61-69.12-3.1-108.13,86.83-52.5,186.52-68.01,284.47-72.21l-4,2.39v91.76l4,1.85c-29.72,9.47-44.58,14.21-44.58,14.21l-77.94,17.12c-22.38-13.16-45.06-25.79-68.05-37.88-8.59-5.77-52.91-9.25-36.8,7.54,37.85,15.13,74.17,34.23,108.94,57.3,4.12.27,8.27-.15,12.44-1.28,3.08,3.88,6.65,3.08,6-2,3.08-3.37,1.51-5.5-.85-8.49,32.37-5.97,64.26-13.78,95.68-23.43-7.26,31.14-11.54,62.45-12.83,93.91-3.79,1.13-3.79,2.87,0,4-1.03,21.43-8.34,42.31-10,64l-2.89-.02c-1.94,9.21-2.97,18.55-3.11,28.02-2.7,33.88-18.3,86.52-26,122-6.8,31.33-12.08,41.36-12.02,75.02.12,71.91,4.45,143.96,8.1,215.9,1.29,25.44-3.88,53.08,9.88,76.12,42.81-.92,90.84,4.53,133.12,1.05,3.36-.28,9.1-.31,11.07-3.41,9.17-80.84,19.49-161.75,27.84-242.67.56-5.39,1.5-10.69,2-16,.12-1.31-.12-2.69,0-4,.98-10.71-.28-23.63,4-34,4.35-49.79,9.39-103.35,16.24-152.76.29-2.09,1.4-17.36,5.73-13.24,4.72,33.89,8.39,67.93,11.92,102l28.91,350.79c.67,8.15,7.53,14.39,15.71,14.3l301.22-3.35c2.83-4.38.96-7.56.27-11.75l-6-14c-15.37-24.1-47.5-32.18-74.62-36.38l-3.23-2.77c-15.74-59.86-28.35-120.54-42.15-180.85-1.2-5.25-2.79-10.69-4-16-6.37-28.01-12.73-56.19-20-83.98,25.52-.33,78.51,22.46,90.97-10.05,2.94-7.66,2.02-15.02,3.91-22.09,1.93-7.21,7.42-11.65,7.24-18.78-.18-7.36-14.64-36.27-20.13-41.11-3.3.39-6.95-2.08-8.57,2.55-2.54,7.23,16.88,26.91,16.74,38.48-10.5,14.81-2.48,43.74-23.35,46.77-14.47,2.1-55.83-5.31-68.82-11.8-2.83-8.29-17.61-12.35-20.91-18.09-3.9-6.78-11.39-40.45-12.54-49.47-2.66-20.93,2.28-49.85,7.45-70.45,1.26-5.02,6.02-14.12,8-20l6-14c12.94-38.08,36.12-73.99,54-110,.44-.88,5.43-2.04,3.99-6.97-.7-2.38-4.47-3.43-6.97-3.14-9.42,1.08-12.87,29.88-25.51,27.76-9.39-1.58-65.56-31.83-73.39-38.76-1.62-1.44-6.12-6.38-6.12-7.88v-118c0-.84,1.96-2.57,4.14-2.21,4.89.81,15.46,5.33,20.58,7.49,53.43,22.54,151.47,80.3,184.95,127.05,13.4,18.71,19.45,28.68,12.41,51.73-11.3,37-69.62,142.04-100.19,163.81ZM1929.09,1115.17l-1.67,1.56c2.43-2.99,3.63-8.68,2.51-12.59,12.73.9,50.4,1.91,62.26.18-.87,2.34-.94,5.44-.19,9.31-21.19-.29-42.16.22-62.92,1.55ZM2175.67,980.46c4.74-1.65,5.13-1.39,1.16.8l-1.16-.8-5.67,13.12-35.14,75.16.83-3.23c-6.07-38.19-12.77-76.39-20.1-114.6,19.36,11.31,39.39,21.16,60.09,29.55Z"/>
    <path class="st1" d="M1858,540.06c3.62-.52,5.12-3.55,7.88.96-4.41,21.41-4.67,43.44-6.76,65.17-14.33,15.01-29.99,28.8-46.15,41.82-35.33-48.87-44.47-111.48-30.89-169.84,44.19,1.94,98.99,4.31,139.88-15.13,19.1-9.08,32.13-26.81,56.91-22.84,14.13,2.27,19.37,9.73,24.84,21.15,18.63,38.91,47.18,123.62-.35,151.1-7.22,4.18-19.17,6.3-23.96,9.53-1.9,1.29-3.08,6.01-4.4,6.05-.44.02-3.92-3.39-7.67-4.31-31.39-7.72-63.85-11.57-95.41-18.62-4.67-2.91,8.64-64,3.21-71.19-1.75-2.32-5.85-1.09-7.56-2.04-2.09-1.16-1.28-3.88-4.52-4.04-7.03-.35-14.08,5.34-22.06,6.23-9.94,1.11-17.83-1.3-27.01-2-28.21-3.95-3.73,12.83,11.11,13.72-25,42.43,45.08,41.19,20.56-.25,3.2-2.97,7.31-4.79,12.32-5.47Z"/>
    <path class="st42" d="M0,1340.06v12c29.08,1.02,58.27,1.72,87.55,2.12,2.51,4.2,4.8,3.97,6.86-.56l17.83-.64c11.07.69,17.46-5.15,9.31-14.73-39.8.55-80.32,1.15-121.55,1.8Z"/>
    <path class="st42" d="M549.7,1372.14c-78.48-1.1-153.34-2.59-224.59-4.47-4.65-77.41-9.02-155.61-13.12-234.59.22-9.11-6.61-18.93-16.22-19.12l-52.86,31.24c-11.63-4.64-23.59-8.68-35.89-12.11.2-4.57-1.64-5.47-4.38-1.99-2.06.51-36.83-9-39.47-13.71-1.64,2.21-4.92,2.44-9.84.69-2.93,3.65-7.51,5.92-13.74,6.8-.14,12.55-.68,24.28-1.62,35.2,4.32,10.41,5.79,23.51,4.41,39.29,1.09,136.69,5.51,273.08,19.1,408.99.73,7.32,2.25,18.1,10.51,11.7.19,0,1.04-1.68,2.68-1.54,4.77.42,10.57,7.72,12.39-4.29l20.8-153.31h178.25s1.88,4.12,1.88,4.12l10.44,151.56c2.52,11.06,7.1,5.37,12.34,6.06,3.3.44,5.87,4.3,9.98,1.57,10.21-55.04,14.53-111.44,23.61-166.82,22.73-15.18,46.36-29.1,69.63-43.37,1.48-2.03,3.62-3.28,6-4,8.79-5.41,22.15-10.74,30-16,14.51-4.32,14.55-18.58-.3-21.93Z"/>
    <path class="st42" d="M505.56,1300.44c-4.17-2.18-4.57-63.71-3.07-72.4-3.96-2.29-4.53-15.33-3.45-19.96,4.37-2.71,4.13-7.99-.47-10.31-.11-47.56-3.06-95.5-8.34-142.22l-2.23.51c-.73-.8-1.74-1.2-2.76-1.55-.88-.43-1.65-.74-2.34-.93-.41-.23-.79-.5-1.07-.86-2.89-3.73.86-9.58-10.32-6.16-5.35,1.64-31.54,19.09-37.51,23.51-3.7,1.06-6.37,3.06-8,6-.1,5.07.48,8.71,6.58,7.72,6.48-1.04,33.37-21.21,42.37-25.78,2.08-1.06,3.51-2.2,4.32-2.12-.02,1.06.21,2.45.73,4.18-.79-1.75-1.46-1.78-2,0v2c-2.64,5.93-2.35,11.7.92,17.3,3.35,58.27,5.37,116.58,6.06,174.92,3.5,16.74,4.14,33.77,4.7,50.39-.19,13.65,5.06,28.41,15.61,11.07,58.28,1.58,117.93,2.71,178.97,3.4,4.62,3.24,10.95,4.34,19,3.3l-16.68,10.23c.66,1.65,1.04,3.13.49,4.02-.96,1.54-28.01,16.2-31.7,15.12-3.57,1.94-28.37,16.61-29.37,18.01-1.31,1.83-4.86,12.9,0,12.25,5.14,2.38,12.29-.61,16-4,22.35-10.15,69.12-38.1,90-52,12.44-5.17,10.38-12.1,3.71-21.42-76.89.79-153.61-.6-230.15-4.19Z"/>
    <path class="st42" d="M912.06,1261.77c3.15,3.17,4.82-3.86,4.95-7.34.21-5.69-3.91-11.25-9.01-8.37-1.84-.02-3.68-.04-5.52-.06,1,0,1.98,0,2.92,0l-225.53-4.82-14.11-246.88c-11.55.71-8.61-10.93-16.32-9.94-2.61.34-43.72,24.7-45.42,26.71-2.93,3.47-3.28,9.61,1.19,10.88,7.85,2.23,39.52-26.6,50.77-25.89,2.1,2.16-3.05,38.16,2.01,43.99l-2.6,8.2c3.47,64.86,6.82,129.5,10.06,193.93-.14,13.6,6.2,27.94,18.12,13.4,2.62.28,4.65-.29,6.1-1.72,24.27,1.48,49.94,2.74,75.44,2.74,39.1-1.53,77.25-.41,114.45,3.35-4.52,2.39-7.66,5.8-9.42,10.23-10.05,1.97-16.9,6.06-20.57,12.28-9.55,4.98-18.7,10.55-27.47,16.69-4.04-3.52-5.25-.93-6.01,3.68-3.28-.11-15.2,7.83-16.13,9.57-2.17,4.07-2.9,13.84,3.73,9.94.7,4.59,4.13,3.83,10.3-2.3,11.39-10.09,26.96-15.99,40-24,19.69-10.84,39.25-21.84,58.06-34.29ZM826.13,1244.96c19.61.08,39.22.3,58.81.85-19.58-.23-39.18-.52-58.81-.85Z"/>
    <path class="st42" d="M614.64,1385.42l-3.05-1.26-6.59,55.2c-4.76,2.36-5.76,12.22-3.05,16.64l-1.06,15.18c-3.92,1.51-4.45,5.07-1.59,10.68-3.11,19.45-6.13,39.1-7.82,58.84.21-3.84.18-8.91-1.47-8.64-.14-1.31.12-2.69,0-4-3.55-44.29-7.09-88.82-10.6-133.59-.14-.7-11.51-4.49-12.5-1.02-3.22,11.21.6,42.19,5.11,52.61.66,16.28.94,32.71,2.02,48.98.79,11.92,2.66,50.83,5.98,59.02-1.46,9.44,6.27,7.67,12.56,4.44,4.78,8.15,12.99-3.27,14.22-7.2.62-2,.46-4.8-1.57-5.77l19.41-146.31c3.66,1.51.62-13.63-.03-14.19-.71-.61-9.8-3.68-9.95.38Z"/>
    <path class="st42" d="M788.36,1327.43l-20.38,156.62-9.98-93.99c-.48-9.02-.83-56.15-7.02-57.98-9.42-2.8-7.29,15.03-7.06,21.07,1.4,37.74,6.71,76.27,10.06,113.93.73,8.26-3.17,30.19,8.02,30.98,5.23.37,3.62-3.86,4.87-3.78,7.69.53,8.29,5.23,13.13-6.22l20-162c-.52.4-9.31-5.69-11.64,1.37Z"/>
    <path class="st42" d="M996,1334.06c-7.91,3.32-17.14,4.53-27.7,3.64l-126.34-.63c-3.57-.41-5.56.58-5.96,2.99.18,6.32,1.99,9.84,8.91,10.09l145.1-.1c-.04,3.32.07,6.68-.01,10.01,1.06.17,2.1.24,3.03-.03,1.35-.38,8.01-24.61,2.97-25.97Z"/>
    <path class="st42" d="M905.4,1246.01l2.6.06c-.82-.03-1.7-.05-2.6-.06Z"/>
    <path class="st42" d="M512.58,1002.49c11.67,5.38,40.52,13.87,53.42,17.57,4.6,1.32,25.79,6.67,28.68,5.76,6.17-1.95,3.07-9.74-2.12-11.32-12.84-1.92-77.06-26.79-84.32-22.24-4.39,2.76.32,8.37,4.35,10.22Z"/>
    <path class="st42" d="M352,1070.06c13.52,4.49,49.1,15.94,61.51,17.62,7.68,1.04,10.88-2.56,7.31-9.84l-82.33-25.45c-5.92-1.74-8.59,5.34-5.6,9.78.58.86,16.49,7.02,19.11,7.89Z"/>
    <path class="st26" d="M996,1380.06l.84,2.87c-3.4,8.13-4.93,17.69-4.61,28.68l-2.23.45c-2.02,7.05-2.69,14.38-2,22,2.66,7.55,1.5,17.9,0,26,1.4,11.18,1.32,22.8,0,34-.23,20.82-.9,41.49-2,62,.35,3.36-7.22,5.73-8,2-12.17-61.57,4.72-130.75,12-192,3.94-1.97,5.94,2.69,6,14Z"/>
    <path class="st30" d="M2688,1046.06c-4.91,3.03-1.84-10.68-1.35-11.23,26.08-5.18,52.84-13.75,78.13-22.92,14.67-3.36,19.64-1.75,12.97,13.55-3.02-.91-6.27-.71-9.75.61-.07,3.12-3.67,3.29-6,2l-8.99,4.18c.81,3.18-1.1,3.46-5.72.85-9.41,3.33-19.05,6-28.92,7.99l-.7,2.91c-9.25,1.46-18.47,2.82-27.67,4.07-.24-.2-1.97-1.86-2-2Z"/>
    <path class="st20" d="M1026,1264.06c4.8,3.55,3.98,6.61-2,6-12.37,34.75-21.92,72.09-26.07,108.88l-1.93,1.12c-3.83-3.82-.68-11.1-6-14,.23-1.91-.05-4.04,0-6,4.37-7.68,4.22-17.29,6-26,3.52-17.22,7.73-35.59,14-52l6.29-19.03c4.73-4.83,7.25-6.3,9.71,1.03Z"/>
    <path class="st26" d="M1226,1558.06c5.83,2.7.82,7-4.42,7.98l-184.06-.39c6.49,4.67,12.82,12.55,2.92,17.13l3.56,10.44c-8.19,7.12-3.22,16.88,7.34,17.32,8.2-1.28,14.99-.11,20.37,3.51,2.96-3.37,7.85-4.85,14.69-4.45.34-6.08,5.04-10.23,7.61-3.53-.51,1.26.22,3.72-1.06,5.86-5.12,8.49-25.44,10.27-34.94,10.14-29.82-6.7-27.92-23-24-49.99-8.85-1.41-51.54,2.67-55.14-1.95-1.35-1.73-.56-4.25-.87-6.06.57-3.47,3.45-5.54,8.62-6.21,61.02.02,122.15.09,183.38.21l4.85-4.08,40.22.47,4.93,3.61c2.13-1.8,4.13-2.47,6-2,1.75.57,1.72,1.24,0,2Z"/>
    <path class="st4" d="M990,1460.06c.96,2.15,1.85,4.32,2.49,6.56s1.19,4.36,1.22,6.53c.38,26.95.65,54,0,80.92h173.88s2.41,3.99,2.41,3.99c-57.59,1.79-127.61-3.3-183.1,1.91-3.76.35-6.15,1.73-8.9,4.09-.31-1.85.35-4.22,0-6,2.44-.15,6.19-.36,8-2,1.16-20.49,1.83-41.15,2-62,.11-11.3-.22-22.7,0-34,.57-1.75,1.24-1.72,2,0Z"/>
    <path class="st44" d="M2322,1582.06c-5.3,3.11-10.94-10.7-6-14,4.07,6.38,4.5,4.93,6,14Z"/>
    <path class="st18" d="M2666,1020.06c1.93.93,4.54,4.18,6,6-2.81-1.82-6.73-3.96-10-6h2c.64.17,1.5-.24,2,0Z"/>
    <path class="st44" d="M1874,266.06c-9.51-7.74-10.66-14.76,3.54-10.28,18.55-10.67,37.56-20.15,57.04-28.44,26.07-17.59,54.03-30.69,83.9-39.31,8.11,3.81,15.29,4.13,15.38-5.38,2.32-2.22,31.07-8.47,35.38-8.89,8.95-.88,24.89-1.93,30.64,3.94,12.04-2.1,31.29,4.2,36.29,15.15,24.14,6.09,33.76,92.33,25.76,106.57-2.08,3.7-3.04,4.38-7.76,2.33.54,4.89.27,9.65-4.48,11.97,5.19,15.96,5.77,31.7,1.73,47.24l1.4,3.02c67.29-7.88,139.34-13.82,203.19,12.08,19.09,6.68,39.12,28.56,41.83,49.17,8.1,61.61-53.7,117.4-101.22,146.45-60.81,37.18-135.3,56.25-206.62,54.38.02-1.03-2.68-3.82-1.81-6.65,2.69-8.71,35.92-4.65,44.78-5.37,76.43-6.21,176.47-48.37,224.97-109.03,22.75-28.46,47.34-76.92,11.45-104.55-22.8,8.85-44.42,20.82-67.86,28.14-135.18,42.19-229.24-14.01-335.31-89.75-19.3-13.78-81.19-56.9-92.22-72.78Z"/>
    <path class="st8" d="M1760,610.06c-17.29.53-59.28-24.7-75.83-35.17-78.23-49.48-147.52-133.88-154.15-229.85-11.03-159.63,121.62-274.84,262.92-162.92,13.8,10.93,73.4,71.13,84.2,72.01,62.82-30.77,162.35-98.72,234.85-79.06,74.27,20.14,53.03,131.69,42,187,57.45-5.44,121.77-13.39,177.99,3.01,7.59,2.21,18.61,5.14,24.01,10.99-10.54-3.69-18.97-3.16-28.49-4.32-5.65-.69-12.53-7.31-18.94-7.23-3.73.05-4.59,4.39-8.56,3.55,1.98-9.66-5.94-5.13-12.98-6.03-37.51-4.83-82.91-4-119.51,2.34-2.77.48-5.42,3.56-8.68,3.74-5.57.31-13.47-4.59-8.84-10.08l-3.96-.95c13.31-15.07-1.42-29.29-.23-44.09.3-3.73,3.78-2.66,4.16-4.31,1-4.27-.55-10.05.05-14.62,4.05-2.05,5.89,8.16,9.98,4,1.71-1.74.69-42.58,1.74-48.77-.65-9.39-7.31-15.19-9.11-24.52-.54-2.78,3.53-8.6-1.63-10.71-2.01-.83.53,5.01-2.97,3.98l1.96-9.99-5.97,1.99c4.03-15.44-12.17-8.4-14-20.02,3.76,3.6,5.35.23,2.01-1.01-7.67-2.85-10.16-5.18-17.09-8.93,1.87,9.3-3.42.35-7.8.12-3.51-.18-8.75,3.17-13.13,1.82l1.99-5.97c-10.33.1-22.49-2.54-32.65,0-1.62.41-1.3,4.01-2.49,4.03-8.28.12-3.99-1.91-14.46,1.42-2.57.82-7.69.07-8.29.64-1.49,1.41,2.58,12.93-8.1,7.89l3.98,2.01v1.96c-9.68,4.4-21.78-8.92-26,0l3.99,2c-8.75,3-18.74,2.97-27.44,5.57-4.99,1.5-36.64,17.49-41.3,20.7-4.04,2.78-5.28,7.54-7.3,8.81-1.68,1.06-7.14-.76-11.12.55-1.14.37-19.12,10.34-20.75,11.46-5.85,4.04,2.02,1.32,1.91,4.9-15.61-3.97-21.32,14.97-35.99,8.04.92,4.08,1.52,6.42,4,9.98-38.7-21.95-65.61-60.53-101.74-85.26-89.34-61.17-181.59-31.24-218.26,69.26-.61,4.2-1.43,8.49-4,12-20.62,73.06-1.72,162.2,48,220l4,6c11.33,12.72,23.33,24.72,36,36,3.74,3.99,5.55,6.25,10,10l6,4c18.53,18.12,47.35,34.18,70.24,46.76,9.29,5.11,26,10.13,33.7,16.36,4.09,3.31,3.84,4.11,2.06,8.88Z"/>
    <path class="st41" d="M1638,524.06c-14.21-8.05-25.45-23.63-36-36v-2c10.98,12.51,24.42,25.63,36,38Z"/>
    <path class="st21" d="M1550,262.06c1.56-5.53,2.24-7.19,4-12,.25,4.36,0,9.39-4,12Z"/>
    <path class="st25" d="M1602,486.06v2c-1.37-1.61-4.41-2.09-4-6,.94,1.09,2.58,2.38,4,4Z"/>
    <path class="st12" d="M1654,538.06c-4,.6-4.43-2.68-6-4,4.1-.55,4.36,2.4,6,4Z"/>
    <path class="st7" d="M1614,1090.06c5.46,12.54-2.39,6.35-3.98,8.03-1.95,2.05,3.91,12.18,4.18,16.89,2.08,36.22-4.96,84.45-.36,120.22.51,3.99,4.4,1.99,4.33,5.72-.69,34.58,2.41,66.04,3.91,100.07,1.13,25.71-3.53,60.22-.18,84.18,6.35,45.38,4.18,93.88,8.29,139.87.67,7.44-4.17,16.78-2.17,25.01l3.96-15.98c-2.91,10.8,9.27,28.1-7.99,26.01l1.01,3.99c-5.83,1.58-3.67-3.72-7.87-4.17-24.75-2.62-51.62,1.52-76.47,1.4-74.47-.35-148.46.2-222.66.75-6.65.05-13.35.04-20,0-2.6,1.56-5.34,1.57-8,0-4-.04-8,.06-12,0-.89,1.04-2.23,1.04-4,0-9.25-.06-6.7.32-15.09,1.96-.48.09-2.27-7.07-8.91-3.96-.12-1.01,2.15-1.61,0-6-2.46-9.22-1.64-17.43,2.46-24.62l1.97-74.83c8.03-57.4,11.26-114.13,9.68-170.21,3.97-4.4,4.79-10.34,2.44-17.82,6.62-16.81,5.16-38.2,3.45-56.51-.82-.62-.8-1.29,0-2l4-2c-1.13-2.67-.44-3.65,2-2l-2-4c-2-7.1-1.5-14.77,0-22l-1.69-6.4,5.69-101.6c0-.67,0-1.33,0-2,.89-7.32,3.56-11.99,8-14,4.69-2.31,8.62,1.11,7.99,6.63l-7.51,109.2c-.74,4.96-2.24,9.68-4.48,14.17-.86,11.53-1.52,22.87-2,34l-1.25,10.38c2.72,4.37,6.51,14.82-.75,17.62-.09,16.58-1.42,32.58-4,48,1.55,2.98,1.55,6.32,0,10,.96,11.64.29,22.98-2,34l-2,6c3.34,2.42,3.19,11.44,0,14,2.29,64.9-2.47,132.43-10.51,195.99l363.06-.94c-.28-6.48-1.15-13.04-2.61-19.67-4.89-144.09-9.78-285.81-14.66-425.15l2.72-4.23c-2.88-4.79-3.88-14.36,0-18-1.26-8.91-1.54-17.96-.84-27.14-4.67-1.63-3.2-4.44.84-6.86.5-5.44,2.28-6.15,6-2Z"/>
    <path class="st15" d="M1676,1074.06c1.65-.44,3.65.22,6,2,3.28-5.05,16.01-3.52,18,2,4.04-2.26,7.37-2.92,10-2,1.25.59,1.22,1.26,0,2,1.78.37,1.71,1.05,0,2l-3.98,5.99c.65-4.93.16-8.33-5.52-5.01l.47,3.05c-7.96-1.78-15.82-5.21-23.99-6.01-12.62-1.24-39.46-.28-51.94,2.02-9.88,1.82-6.77,9.35-7.28,9.8-.8.71-2.82-.14-3.77.17-1.98.64-3.8,1.92-6,2-1.74-.52-1.7-1.19,0-2-100.07.06-202.07-.61-306-2-4.18,3.42-8.18,3.42-12,0-.03,2.93-3.21,2.83-4,0-4.13.32-4.94-11.21.74-12.25,106.35-1.46,216.74-1.66,323.26.25,5.51-.28,11.45-1.24,17.84-2.87,3.99.35,6.64.37,9.88.15,9.1-.6,17.94-.79,27.07-.95,2.42-3.11,6.16-2.55,11.22,1.67Z"/>
    <path class="st13" d="M1782,1046.06c4.59-4.55,7.69-5.42,9.31-2.63,1.81,3.24-4.72,44.7-9.31,48.63-5.04,23.35-25.88,84.06-54,86-1.16,3.99-3.01,4.03-4,0-21.72-4.85-19.11-52.27-18.07-69.07.62-9.93,4.11-18.17,4.07-28.93,0-.67,0-1.33,0-2l4-4c-2.58-2.52,2.93-6.5,6-6,1.01-1.02,6.09-5.97,6.92-4.75l-4.92,20.75,3.12,5.42c-5.75,14.76-12.07,103.58,17.05,59.94,18.41-27.59,24.65-60.93,30.51-93.08l7.32-8.27c-.57-1.86.1-2.52,2-2Z"/>
    <path class="st36" d="M1548,1608.06c-66.12,1.95-133.03-2.61-199.09,0-3.85.15-8.02-2.06-6.91,4-.23-1.82-2.39-3.83.01-8.01l205.99,4.01Z"/>
    <path class="st53" d="M2018,718.06l-6.98,9.74,1.25,43.99c50.36,11.52,106.9,9.94,149.73,42.28-15.81-7.44-31.3-14.83-48-20l-6-2c-.62-.16-1.37.16-2,0l-6.38,2.46c-30.15-5.46-60.19-10.94-90.12-16.46-5.1-4.77-7.7-50.53-3.76-56.29,2.97-4.34,7.98-8.36,12.26-3.71Z"/>
    <path class="st52" d="M1024,1270.06l1.54,5.49c-14.13,57.52-24.5,115.68-31.09,174.49l-4.45,10.03h-2c.17-8.6-.54-17.44,0-26-.69-7.66-.03-15,2-22,4.54-11.49-1.84-15.96-.07-24.99.88-4.52,5.43-5.18,6.07-7.01,1.71-4.83-.26-14.33.5-18.5,4.12-22.68,12.51-56.04,19.7-77.92.66-2.01,7.89-4.98,2.75-13.57h5.06Z"/>
    <path class="st58" d="M986,1556.06c1.24-20.27-2.59-42.28,2-62-.17,17.78,1.89,40.23.11,57.2-.29,2.78,0,2.88-2.11,4.8Z"/>
    <path class="st32" d="M988,1434.06c-2.32-3.92-2.46-8.59-2.09-13,.52-6.24,3.12-6.55,4.09-9-.37,5.65.57,11.54.08,17.17-.22,2.56-2.06,4.56-2.08,4.83Z"/>
    <path class="st28" d="M1188,1168.06c18.58-4.67,54.81-10.74,71.87-.88,9.36,5.41-1.52,10.42-1.95,16.03-.36,4.74,5.4,8.1,4.1,15.82l-10.02,1.03c-2.93,2.49-4.09,1.23-2-2-16.5-4.59-33.16-4.59-50,0-3.15,3.16-7.7,5.92-12,8,2.32,4.66-4.92,15.8-10,16-6.97,4.11-1.93,15.7-4.89,20.1-4.41,6.55-12.32-2.93-16.57-3.79-6.82-1.38-16.59,6.21-17.59-5.23-2.68-30.63,21.77-53.32,47.06-65.08.62-.17,1.37.16,2,0Z"/>
    <path class="st9" d="M1222,1258.06c1.17.29,2,.65,2,2,1.32.59,1.29,1.26,0,2,1.86,97.33,1.27,194.67,0,292-4.59,3.58-6.03-.3-6.25-5.13l.44-281.06c-2.36-2.72-2.43-5.32-.2-7.81-1.34-.49-1.28-1.17,0-2h4Z"/>
    <path class="st49" d="M1274,1218.06c-1.77,8.49-1.71,17.49.07,26.01l-2.07,1.99-2,2c-.07,1.26-.74,1.93-2,2-.37,1.75-1.05,1.68-2,0-.73,1.16-2.07,1.16-4,0-1.66,5.77-3.1,4.91-6,0-3.53-.06-6.86.61-10,2-.62,4.73-10.48,4.12-12,0-3.1,1.59-5.85,3.25-8,6-.62,1.78-1.28,1.76-2,0h-2v-2c5.2-7.18,6.62-4.47,14-8,1.28-.18,2.73.19,4,0l28.01-1.99,9.99-136.01c-.3,35.26-3.7,72.01-4,108Z"/>
    <path class="st20" d="M1122,1250.06c30.31.05,60.67-.03,91,0,6.39.2,3.95,5.47,5,8.01.23.55-.21,1.39,0,2-.57,1.75-1.24,1.72-2,0-8.97-2.84-19.07-4.11-30.31-3.82l-3.69-4.18c-6.35.3-12.35,1.63-18,4-3.17,4.81-10.7,1.07-12-4-1.33,3.63-5.52,2.2-8,0-2.49,5.4-5.51,5.43-8,0-1.79,1.52-4.22,1.59-6,0-12.37,5.68-27.66,5.78-40,0-10.42,3.5-21.5,3.04-32,0-8.66,4.69-18.47,4.72-27.99,3.55l-4.01,2.45c-7.79,5.64-5.62-9.44,2.89-8.75,31.01-1.02,62.05-.78,93.11.75Z"/>
    <path class="st16" d="M1122,1250.06c-25.76-.04-69.62-3.67-92.95.05-4.06.65-10.3,5.28-3.05,7.95,1.78.37,1.71,1.05,0,2,5.36.67,5.08,2.37,0,4-11.86-6.91-10.15,7.36-12.99,14.09-.83,1.98-2.79,3.33-3.01,3.91.1-5.83,1.91-13.51,4.4-18.68,1.14-2.38,4.27-2.72,4.99-3.9,2.01-3.28-.35-9.11,6.01-11.02l96.6,1.6Z"/>
    <path class="st17" d="M1222,1258.06h-2c.55-.74,1.48-1.28,2-2v2Z"/>
    <path class="st58" d="M1216,1260.06h2c.85,2.43,4.76,5.02,4.1,8.89.58,91.36-1.09,182.78-.13,274.13.04,3.38-1.28,8.9,2.03,10.97,1.28,1.12-.05,2.46-4,4-15.32,1.63-34.06-.49-50,0h-180.01c.82-32.58-1.07-65.43.01-98,2.29-68.98,19.87-124.25,34-190,.28-1.32,1.51-2.82,2-6,.19-1.24-.08-2.69,0-4l9.55-2.57c25.45.2,50.93-.34,76.44-1.6,33.55,2.26,67.13,2.95,100.73,2.08l3.29,2.09Z"/>
    <path class="st0" d="M1262,1250.06c1.72.99,3.05.99,4,0,.66-.02,1.35-.05,2,0h2c1.93.23,3.51,1.73,5.98,0-1.28,15.38-.75,31.88-1.86,47.11-.3,4.09-3.2,6.2-3.5,8.23-.7,4.68,3.26,14.61,1.36,20.66l-3.96-3.98c.28,10.02,2.23,18.8,2.05,29.08-.85,49.79-9.06,100.35-12.05,149.93-1.57,26-.54,52.9-2.04,78.97l-3.96-7.98c-2.36,6.14,4.52,18.36-2.02,21.99-.2-.41-2.49-.78-2.97-2.02-3.93-10.08,2.44-21.46.96-31.97-2.47-2.96-11.82,9.99-12.99,9.99h-138c-5.03,0,.61,10.25.82,13.17.79,11.32.13,12.99-3.82,22.83-6.86-1.3.04,5.66-7.4,7.6-4.08,1.07-8.46.23-12.59.42l3.98,3.96h-15.98s5.98-3.96,5.98-3.96c-22.06.82-30.27,3.54-34.05-21,1.28-8.46,1.98,5.04,6.06.96,1.45-1.45-4.48-10.26-3.89-12.87s5.51-2.7,5.88-3.15c1.48-1.78-5.3-8.48-7.41-9.49-9.22-4.4-27.84,1.56-37.72,1.69-2.39.03-6.22-8.84-14.84-2.17l-.03-5.99c70.89-1.82,142.23,2.38,213.09.07,8.16-.27,19.79.4,25.96-.04,3.85-.27,4.65-3.94,4.96-4.04,1.03-5.29,2.61-5.14,4,0,1.07-4.07,1.94-5.38,2.02-1.67.51-96.45.31-190.72-.6-282.81l-1.42-3.52c-4.98-5.05-1.77-16.48,8-12,1.82.9,1.18,2.55-1.91,4.96,2.93-2.21,3.57-3.87,1.91-4.96-3.73-.2-6.4-.86-8-2-.35-1.74.98-3.07,4-4,3.85-.44,8.13.41,12,0,3.12-1.41,6.46-2.08,10-2,1.99-.12,4.01.12,6,0Z"/>
    <path class="st0" d="M1057.99,1616.08v1.96c-8.32.99-8.32-2.95,0-1.96Z"/>
    <path class="st49" d="M1286,1092.06c1.79.5,1.75,1.17,0,2-.9,4.61-4.45,10.72-8,14-.02-3.88-.35-8.22,0-12,2.52-2.18,4.74-3.25,8-4Z"/>
    <path class="st27" d="M1998,1082.06c3.56-.5,7,0,8,3.98h-7.99s-.01-3.98-.01-3.98Z"/>
    <path class="st44" d="M2114,794.06l-6-2c2.57.68,4.07,1.4,6,2Z"/>
    <polygon class="st44" points="1923.32 1109.47 1918.02 1116.05 1918.02 1106.05 1921.99 1108.1 1923.98 1102.07 1923.32 1109.47"/>
    <path class="st44" d="M1919,1102.06c1.3.67,1.3,1.33,0,2v-2Z"/>
    <path class="st1" d="M1536,982.06c-16.35-13.23-48.98-43.03-49.37-65.35-.4-22.75,41.41-49.56,59.33-59.68,62.13-35.09,136.35-52.13,207.05-58.95,15.28-1.47,41.87-4.82,56-4.2,2.27.1,8.99.45,8.99,3.19v96c0,12.65-107.7,31.78-123.02,35.16-24.08-9.85-53.76-35.13-78.92-41.23-5.58-1.35-35.26-2.81-23.51,3.54,8.56,4.63,23.05,8.55,32.8,13.17,27.49,13.02,50.69,31.39,75.97,44.04,3.62,1.81,6.53,2.87,10.68,2.31l-1.96,4.51c-32.68,12.63-40.94,38.03-34.2,70.54-1.94,7.92-3.77,15.81-3.74,24.04l-4.09,2.91c1.78.37,1.71,1.05,0,2-1.55-2.73-3.05-3.82-5.9-5.07-45.94-20.02-76.52-29.87-118.1-60.93-2.09-2.69-4.76-4.84-8-6Z"/>
    <path class="st1" d="M1954,742.06c14.51.45,29.23-2.11,44.17-7.68l1.83,1.68c1.9,15.05,1.9,29.39,0,43,8.7,3.16,17.96,5.61,27.76,7.37,2.38.66,3.32,2.81,1.46,4.35-2.79,2.31-52,22.3-58.42,24.02-4.06,1.09-10.73-1.18-12.8-4.74l-10-4c-11.48-5.66-23.75-10.06-35.15-15.82-1.35-.68-6.95-1.17-2.84-4.17,1.09-.8,22.2.18,25.13-3.88,4.61-6.4-2.51-33.45-.99-38.87,1.16-4.13,15-1.59,19.86-1.27Z"/>
    <path class="st2" d="M1800,1010.06c.02,1.33.06,2.68,0,4-4.08,13.24-7.09,22.69-18,32-.73.63-1.34,1.51-2,2-5.15,10.64-24.68,18.42-34,12-10.75-.17-19.41.81-28,6h-2c-.01-3.31,2.66-6.64,8-10l.85-4.68c12.25-2.15,24.42-4.71,36.49-7.67l4.65,2.35c68.8-51.66-22.99-125.78-76-72l.5,4.77c-9.39,11.91-11.58,26.64-6.57,44.17-5.64,15.63-7.38,33.09,10.71,40.28l1.36,4.78c-5.53,11.19-24.23-3.75-24.36-13.59l-3.64-2.41c0-11.4,3.85-19.03,4.11-27.06.28-8.97-3.19-18.92-2.08-29.91,2.29-22.72,21.43-38.27,41.98-45.02,2.06-.68,3.58-1.46,6-2,42.58-9.49,81.49,17.46,82,62Z"/>
    <path class="st2" d="M1668,1052.06c9.16-5.92,6.56,4.3,8.53,7.46.32.52,9,7.25,9.55,7.5,3.64,1.67,6.4.84,9.92,1.03,2.31-5,3.69-5,6,0,5.75-2.07,10.41-2.74,14-2h2c-3.3,6.77-11.03,9.74-18,12-7.45.54-12.76-1.79-18-2-2.59-.94-4.59-2.28-6-4-.55-.27-1.5.28-2,0-1.98-1.51-3.24-3.63-4-6-.35-1.69.15-4.07,0-6-.85-.52-1.52-1.85-2-4,0-.67,0-1.33,0-2s0-1.33,0-2Z"/>
    <path class="st34" d="M1544,988.06c-2.91-2.17-4.8-3.41-8-6,3.95.14,6.48,2.53,8,6Z"/>
    <path class="st2" d="M1670,1060.06h-2v-4c1.95.55,1.87,2.31,2,4Z"/>
    <path class="st38" d="M1510,974.06c-4.63-2.13-6.9-6.41-10-10,4.4,2.33,7.16,6.09,10,10Z"/>
    <path class="st44" d="M2159.99,310.07c-.55,6.9-4.59,30.79-9.04,14.52l3.04,1.47-1.98-15.99h7.98Z"/>
    <path class="st44" d="M2103.99,176.08v1.96c-8.32.99-8.32-2.95,0-1.96Z"/>
    <path class="st44" d="M1935,226.06c1.3.67,1.3,1.33,0,2v-2Z"/>
    <path class="st58" d="M1302,1088.06l2.33,1.98c101.52-.88,202.75-.87,303.67.02.2.43-.1,1.28,0,2,1.4,10.37-1.01,23.27,0,34-5.03,3.63-2.99-16.38-2.86-15.45-.82,11.48.13,22.63,2.86,33.45,4.5,8.85,1.48,36.93,1.92,49.08,4.54,126.61,11.78,253.22,14,380l4.11,23.95-371,.97c-5.02-3.27.55-6.91,1.02-12.95,4.82-62.22,7.55-124.8,11.95-187.05,2.65.42,3.35-2.9,2.1-9.95,2.55-33.96,4.51-67.97,5.9-102.05.02-8.83-1.7-20.47,2-28,1.41.44.94,3.52.94,3.34-.6-12.5-.25-24.95,1.06-37.34.97-40.69,5.62-80.8,7.88-121.31.21-3.8.72-7.2-3.88-8.69.12-.61-.02-1.36,0-2,2.38-1.56,3.72-2.9,4-4h12Z"/>
    <path class="st46" d="M1278,1286.06c-.1,37.05-2.52,72.2-4,109.03-.2,4.93,1.41,6.53-4,2.97.33-4.62-.33-9.38,0-14l2-6c.99-12.33-.91-21.18,2-34,1.46-3.63,1.46-6.96,0-10l4-48Z"/>
    <path class="st33" d="M1608,1126.06c.47,5.91-.33,12.06,0,18-.13-.26-2.33-.51-2.99-1.93-4.04-8.77.88-33.24-.99-44.06,3.47-.48,1.9,4.54,1.98,6.97.19,5.37-.46,10.84-.08,16.18.19,2.6,2.05,4.49,2.08,4.84Z"/>
    <path class="st35" d="M1282,1224.06c-.38,15.95.3,32.03-.02,47.99-3.76-1.14-1.92-10.6-1.98-13.99-.18-10.71-1.55-24.45,2-34Z"/>
    <path class="st14" d="M1274,1240.06l2,4c-.27,1.79-1.54,1.51-2,2h-2c1.08-8.85-2.48-20.36,2-28-.06,7.3-.2,14.71,0,22Z"/>
    <path class="st58" d="M1274,1344.06v-10c5.27,2.96.45,8.02,0,10Z"/>
    <path class="st0" d="M1298,1602.06c-.65,2.99-7.17,3.11-8,0,2.67.02,5.33-.02,8,0Z"/>
    <path class="st58" d="M1270,1384.06c.3-4.2,1.97-5.68,2-6l-2,6Z"/>
    <path class="st0" d="M1276,1244.06l-2-4c0,.22,2.64-.26,2,4Z"/>
    <path class="st0" d="M1274,1246.06c-1.12,1.21-2.38,1.8-4,2,.4-.35.51-2.05,2-2h2Z"/>
    <path class="st0" d="M1278,1602.06l-1.02,1.99-2.98-1.99c1.33,0,2.67-.02,4,0Z"/>
    <path class="st14" d="M1270,1250.06c-.65-.08-1.34.05-2,0,.51-.83,1.28-1.37,2-2v2Z"/>
    <path class="st49" d="M1283,1112.06c1.3.67,1.3,1.33,0,2v-2Z"/>
    <path class="st33" d="M1608,1090.06l-310.99,2.01,4.99-4.01c100.35,0,200.75.08,301.12-.09,2.47.22,3.57-.7,4.88,2.09Z"/>
    <path class="st2" d="M1746,1060.06c-.45,6.44-15.95,7.8-18,2-2.66,1.52-5.33,3.52-8,6-2.68,2.39-3.56,2.85-6,6-1.35,1.5-2.68,2.17-4,2-3.2,1.11-6.61,1.75-10,2,6.24-3.64,12.04-7.99,18-12,10.87-7.31,14.28-6.85,28-6Z"/>
    <path class="st33" d="M1290,1088.06l3.98,2.03v1.95c-2.49.4-5.74-.49-7.98.02.04-1.33.03-2.67,0-4h4Z"/>
    <path class="st2" d="M1682,1076.06c-3.21-.13-5.68-1.99-6-2v-2c2.24,1.07,4.57,1.73,6,4Z"/>
    <path class="st0" d="M1714,1074.06c-1.2,1.55-1.75,3.43-4,4v-2c.98-.34,2.31-2.14,4-2Z"/>
    <path class="st1" d="M1780,1048.06c-6.81,14.41-6.9,32.06-10.99,48.01-3.83,14.91-23.57,71.62-41.96,70.13-6.9-.56-10.21-19.31-10.81-25.38-1.78-18.06,2.7-38.88,5.75-56.75,1.06-8.01,3.06-15.34,6-22,6.42-.92,10.77-.56,18-2,12.32-2.46,23.43-4.07,34-12Z"/>
    <path class="st5" d="M1728,1062.06l-6,22c1.16-6.8,1.18-13.38,3.98-20l-5.98,4c2.88-2.57,1.66-5.1,8-6Z"/>
    <path class="st0" d="M1297.99,1608.07c.8.84,1.41,12.36-3.97,10.02v1.94c5.19-1.05,5.23,4.03,3.01,8.06-1.98,3.59-10.93-4.28-15.04-2.04-2.01-7.07,6.72-2.69,8.03-3.97.69-.67-1.28-8.79.93-12.07,1.52-2.25,6.33-2.68,7.04-1.94Z"/>
    <path class="st0" d="M1255,1602.06c1.3.67,1.3,1.33,0,2v-2Z"/>
    <path class="st54" d="M1226,1556.06c-.47-99.6-1.14-197.6-2-294v-4c.69-.08,1.46.16,2,0l2.67.35c-.81,98.71-1.03,197.46-.67,296.25l-2,1.39Z"/>
    <path class="st29" d="M1226,1556.06c-1.85,1.02-3.89,1.78-6,2l4-4c0-97.3,0-194.7,0-292,3.32,2.08,1.99,7.59,2.03,10.97,1.17,94.31-.95,188.74-.03,283.03Z"/>
    <path class="st58" d="M1224,1260.06l-2-2c.65,0,1.36.08,2,0v2Z"/>
    <path class="st14" d="M1256,1250.06c-1.27.08-6.35,1.61-10,2,1.71-3.24,6.8-1.88,10-2Z"/>
    <path class="st14" d="M1234,1252.06c-1.37,1.13-2.59,3.1-4,4,.45,3.71-1.67,5.45-4,2l.12-3.84c2.58-.68,5.21-1.86,7.88-2.16Z"/>
    <path class="st14" d="M1266,1250.06l-1.02,1.99-2.98-1.99c1.32-.08,2.67.04,4,0Z"/>
    <path class="st10" d="M1058,1252.06c10.37,2.91,21.7,3.57,32,0,13.29-.06,26.72-.27,40,0,2.02,1.42,3.96,1.48,6,0,2.66.07,5.34-.09,8,0,3.73,2.37,6.4,2.37,8,0,5.98.33,9.15,3.66,12,4,5.5-2.4,11.5-3.73,18-4,8.8.37,20,1.28,29.1,2,6.14.48,5.15-.99,4.9,6-27.56,5.58-57.23.32-84.92-.08-35.01-.51-70.1.55-105.08.08.04-.66-.03-1.33,0-2,.09-2-.11-4.02-.01-6,10.64-.05,21.37.08,32.01,0Z"/>
    <path class="st23" d="M1090,1252.06c-5.42,6.92-26.07,5.75-32,0,10.64-.07,21.36.04,32,0Z"/>
    <path class="st23" d="M1182,1252.06c-3.59,1.94-14.49,4.42-18,4,2.31-5.95,12.21-4.24,18-4Z"/>
    <path class="st23" d="M1152,1252.06c1.56,6.34-5.88,5.4-8,0,2.66.09,5.35-.14,8,0Z"/>
    <path class="st23" d="M1136,1252.06c-.28,3.01-5.72,3.01-6,0,2,.04,4-.05,6,0Z"/>
    <path class="st14" d="M1230,1270.06c6.06-1.11,3.85,3.06,4,6.91,3.65,92.46-2.76,187.2.04,279.89.24,2.35-2.77.78-4.04,1.2-1.12-.11-2-.23-2-.35-1.35-94.33-1.27-191.88,0-286.24,0-.48.88-.94,2-1.4Z"/>
    <path class="st47" d="M1238,1258.06c-9.63-1.16-7.61,4.99-8,12v288c-1.07.35-2.94-.36-4,0v-300c2.32-.69,2.29-.91,4-2,3.35-1.5,6.35,1.68,8,2Z"/>
    <path class="st14" d="M1238,1258.06c3.8.74,9.38-2.58,8.01,3.99-2.46.13-5.34-.8-7.6.51-.24.14-1.18,7.52-4.41,3.48s5.02-7.38,3.99-7.99Z"/>
    <path class="st14" d="M1253.99,1254.07c2.18,2.18-1.8,6.16-3.98,3.98s1.8-6.16,3.98-3.98Z"/>
    <path class="st44" d="M1939.42,528.49c30.73-7.01,30.53,42.6-1.53,32.68-14.55-4.5-14-29.13,1.53-32.68Z"/>
    <path class="st44" d="M1989.62,502.4c2.09,3.66.11,9.48-4.66,9.81s-8.06-4.27-12.39-5.72c-17.85-5.94-25.82-7.48-42.45,2.68-3.21,1.96-13.21,14.07-14.26,1.84-.83-9.61,21.06-19.68,29.32-20.78,8.87-1.18,40.39,5.05,44.45,12.16Z"/>
    <path class="st2" d="M1690,974.06c52.98-53.6,144.76,20,76,72-15.4,7.27-31.67,5.09-42,10-6.46,6.44-12.42,11.33-22,12-1.97.08-4.04.11-6,0-13.02-4.39-19.98-12.75-20.15-27.01-.09-7.96,3.69-12.51,4.09-18.22.33-4.72-2.03-8.99-2.03-13.69,0-14.37-.26-25.63,12.08-35.09Z"/>
    <path class="st48" d="M1766,1046.06c-.57-5.84,6.66-5.79,9.93-9.16,2.46-2.54,10.25-15.34,11.1-18.8,10.75-43.61-35.2-71.21-73.58-57.6-5.5,1.95-18.74,9.95-23.45,13.55,36.16-46.13,123.77-6.7,96.99,51.99-5.13,11.25-10.36,14.99-20.99,20.01Z"/>
    <path class="st2" d="M1673.99,1046.05c-8.77,2.73-1.24-14.68,0-11.98v11.98Z"/>
    <path class="st2" d="M1716,1066.06c-4.76.65-9.12,1.81-14,2,8.78-1.37,14.78-8.57,22-12l-8,10Z"/>
    <path class="st2" d="M1674,1072.06c-3.63-2.02-3.2-2.13-4-6l4,6Z"/>
    <path class="st50" d="M1696,1026.06c-29.5-44.58,31.8-80.48,68.99-51.99,23.57,18.05,19.24,52.53-6.89,65.1-16.88,8.13-31.8,6.9-48.1-1.11-5.69-2.78-10.7-6.42-14-12Z"/>
    <path class="st43" d="M1696,1026.06l14,12c-2.91-1.43-5.46-1.01-9.04-3.95-4.16-3.41-3.29-5.53-4.96-8.05Z"/>
    <path class="st51" d="M1741.42,1007.51c-2.23,2.69-19.31,14.19-21.31,7.38-2.85-9.7,10.02-11.58,11.6-16.17,2.85-8.29-7.98-22.16,3.53-28.54,8.19-1.33,10.58,32.01,6.18,37.32Z"/>
    <path class="st2" d="M1668,1055.28s-1.67,10.83,3.17,14.81l4.83,3.98,9.15,1.49s3.46-7.51,3.07-8.66-4.09-6.89-4.6-7.28-15.62-4.34-15.62-4.34Z"/>
    <path class="st39" d="M1202,374.06c.66.08,1.35-.1,2,0,8.15.52,10.26,24.69,8.16,29.4-4.71,4.13-8.49,10.31-11.33,18.55-3.72-2.03-5.42.95-5.29,4.75-3.89.73-7.81,1.84-5.8,6.21-8.14,1.91-29.4,20.36-10.61,14.52,24.22,7.88,48.98,14.85,74.28,20.91,2.53,2.42,2.85,4.69,1.67,7.84-1.28,3.4-26.32,17.89-31.08,15.82-3.7,2.93-7.14,5.65-12,6-3.74,4.44-13.65,12.12-19.62,14.56-.43.18-1.26-.63-2.2-1.71-3.99,4.84-9.27,5.91-14.95,3.99-66.77-22.67-134.28-50.26-194.72-86.78-11.49-2.51-25.66-11.1-34.95-18.72-.59-.49-.34-2,.15-3.81-16.43-8.97-24.66-20.15-30.75-37.36-16.96-47.9,48.78-30.52,72.97-19.13.76.36,1.94-.15,3.23-.92,6.2,8.88,18.8,14.1,29.18,15.46l.64,3.99c14.09,8.32,28.84,15.08,44.25,20.29,7.33-5.21,22.67-5.37,31.61-2.87,34.71-4.43,69.24-8.66,103.59-12.7l1.58,1.71Z"/>
    <path class="st40" d="M3198,1332.06v12c-13.93-.49-28.09.68-42,0-4.84-2.27-4.15-10.87,1.54-12.25,13.64-1.61,27.13-1.53,40.46.25Z"/>
    <path class="st39" d="M3140,1374.06c-3.29,84.16-7.31,172.82-16.24,256.78-.15,1.4-1.6,8.72-1.95,9.01-.83.68-19.28,2.39-20.81.23l-21.22-157.8c-4.2-.94-8.35-2-12.7-2.3-45.55-3.16-105.97-1.63-152.19.02-3.89.14-15.41-.44-16.59,3.33l-11.67,158.31c-.34,3.14-19.75,4.32-20.72,3.59-6.68-4.99-17.8-146.16-22.91-165.16-2.9-3.95-7.26-6.13-11.16-8.84-29.55-20.55-74.65-39.22-100.83-61.16-6.92-5.8-5.91-10.57,1-16.01,11.11-2.03,22.54-2.42,34.28-1.17l1.91-3.02c24.75.38,49.59,1.02,74.54,1.93,40.21-2.61,78.75-3.15,118.81-2.71,4.46-61.44,7.82-123.74,10.07-186.91-3.41-4.04-3.35-14.62,1.44-17.22l.47-26.37c-.59-11.98,5.45-22.42,17.31-25.5,16.61,11.33,33.83,21.53,51.65,30.59,5.33-3.38,11.25-3.62,17.26-2.87,1.82-5.72,16.95-9.82,21.89-7.42l25.57-7.41c11.85-9.74,42.99-10.46,40,10.33-.96,71.77-3.36,144.35-7.21,217.75Z"/>
    <path class="st37" d="M2802,1076.06l3.11,1.07c-1.77,69.2-4.81,138.84-9.11,208.93,3.02,10.24,2.03,27.2,1.01,39.22,1.01,9-3.92,24.71-13.01,16.78l-6.9-6.11-207.09,2.12c-3.11,2.5,10.31,9.67,12.14,10.84,25.32,16.23,52.73,29.61,77.99,46,4.07,4.95,1.59,9.56-4.96,9.15-5.12-.32-23.14-12.56-29.18-16-3.76-1.22-7.33-3.02-10-6-22.94-13.2-45.5-27.16-68.16-40.86-5.68-6.32,4.42-12.9,10.16-15.14,70.79-2.19,141.91-3.47,213.37-3.84.09-3.16,1.75-5.01,2.3-3.87,2.56,5.33,7.4,3.87,7.79,2.74,4.62-48.36,6.56-96.65,5.81-144.89,4.57-29.95,6.72-59.9,6.44-89.84-.21-6.25,2.18-15.1,8.29-10.3Z"/>
    <path class="st37" d="M2630,1020.06c3.29,2.43,7.36,8.16,1.08,8.74-1.77,53.45-4.13,106.53-7.08,159.26-.1,1.31-2.77,4.46-2.03,6.89l-3.96,85.12c-10.68,3.11-9.11-5.26-16.87-6.15l-207.12,2.15,3.31,5.67,87.73,52.27c2.8,19.3-27.64-3.72-35.05-7.96-3.76-1.22-7.33-3.02-10-6-11.75-6.76-24.48-13.05-36-20l-13.63-7.83c-5.31-.95-9.96-2.29-10.37-8.17l-8-4c-8.28-7.15,5.39-18.41,12.52-18.52,72.99.9,145.95.46,218.88-1.32l4.6,1.84,12.94-244.58c6.92-3.42,9.94-2.56,9.06,2.58Z"/>
    <path class="st56" d="M2516,1486.06c.53,7.64,2.53,14.31,6,20,2.01,3.09,2.01,1.76,0-4-2.52-.73-3.12-1.88-1.39-3.53l1.39-12.47,4-40,2.63,1.75c2.03-25.13,4.12-50.21,6.25-75.22.94-4.67,1.7-7.65,7.11-6.52,1.37,46.83-10.65,99.13-10.45,146.55-3.14,13.73-11.61,2.36-21.04,4.09l-24.2-167.25c2.19-5.12,8.73-8.41,11.25-1.96,7.93,45.85,10.63,92.74,18.43,138.57Z"/>
    <path class="st57" d="M2690,1530.06c2.53,9.09,4.37,18.09,5.52,26.98l2.48,1.02c6.25,1.14,5.98,18.32,0,20-12.19-.41-11.83,4.94-15.44-11.56l-20.08-155.21c2.13-5.09,8.67-8.13,11.09-1.8l16.43,120.57Z"/>
    <path class="st3" d="M2698,1528.06c5.22-35.77,5.63-72.71,10.1-108.9,2.77-9.99,11.54-4.69,10,3.79-2.68,52.38-6.78,105.07-12.25,156.95-3.01,2.02-7.18-1.83-7.86-1.85v-20l-2.47-.59c.44-9.52,1.27-19.32,2.47-29.41Z"/>
    <path class="st45" d="M2662,1020.06c3.83.85,7.16,2.85,10,6,2.36-.08,16.79,8.29,17.04,9.24-3.09,11.77-11.44,12.02-25.04.76-10.06-7.49-14.64-10.37-26-16-2.84-.32-5.5-.32-8,0l-4.01-2.99-1.97,18.98-2-17.98-14.02,243.99,11.99-248.01c14.88,4.62,6.99-9.92,14.93-10.03,3.31-.04,22.43,13.14,27.08,16.04Z"/>
    <path class="st55" d="M2848,1088.06c.56.22,1.39-.21,2,0,10.77,2.25,18.71,6.45,12.07,18.08-1,1.76-16.36,3.4-13.78-2.84-1.42-1.56-33.98-22-36.09-21.94-.26,0-2.95,1.14-3.39,1.71-2.55,40.51-4.82,81.51-6.81,122.98,0,.67,0,1.33,0,2l-1.36,27.66c2.66,4.26,4.43,11.7-1.48,13.23,1.1,13.4.04,25.77-3.16,37.11-1.55-15.76,1.24-31.58,1.98-47.02,1.8-37.33,2.44-74.72,3.94-112.06.64-16.11,5.41-34.75.08-50.92,4.41-3.71,4.3-7.96,5.9-9.16,5.55-4.15,32.54,18.1,40.1,21.16Z"/>
    <path class="st56" d="M2542,1366.06c-2.51,2.68-3.44,7.7-3.77,11.24-3.6,38.71-4.74,77.63-8.24,116.77-2.6,3.21-3.64-.23-3.99-2.97-1.59-12.42-.2-31.81,0-45.04.46-30.23,2.98-60.41,6.01-90.52,11.19-8.75,9.74,2.07,9.99,10.52Z"/>
    <path class="st22" d="M2864,1108.06c-.52-2.12-.2-6.11.97-7.99,2.03-3.24,63.65-21.17,72.61-23.43,10.3-2.6,24.6-6.15,13.89,8.04-24.78,6.06-48.72,16.14-73.36,22.48-5.06,1.3-10.83,0-14.11.9Z"/>
    <polygon class="st44" points="1951.77 1195.41 1942 1296.06 1930.93 1397.22 1892.35 1296.06 1899.62 1235.15 1951.77 1195.41"/>
    <path class="st38" d="M1739.92,1515.15c-2.53-83.34-6.85-166.53-10-250-1.09-28.95.13-58.15-1.92-87.08-1.18.08-3.01.22-4,0-2.39-4.43-5.52-9.1-9.4-14.02-9.05-25.85-5.23-54.01-.71-80.43l-3.89-3.56c-1.13-1.25-1.96-1.29-2.57-.72-1.21-1.93-5.64-.61-10.56,1.16-6.14-1.57-15.5-3.03-25.71-3.95l2.83-4.48h-222.09l-3.91-78h45c5,0,1.29-10.59,1.99-12.15,1.58-3.52,11.96-3.12,5.19-11.04-2.32-2.72-26.95-4.59-33.1-4.89-15.83-.79-31.91.8-47.75,0-1.88.43-5.07,15.48-5.33,18.08-.2,1.96.12,4.02,0,6-1.47,23.74-.39,48.17-1.47,72.01-.07,1.57-.15,3.14-.24,4.7.07.09.13.16.19.24l-.05,5.05h-57.4l-78.58,4-10.44,181.21,1.81,1.68-21.81,348.79,4.98-1.43c.48.6,1.2,1.1,2.32,1.46,5.04,1.64,27.53-.92,28.71.29-.21,11.82-4.37,26.54,0,38.01.85,2.22,5.66,6.5,8,8,10.74,6.87,28.04,6.61,40.11,3.04,2.1-.62,3.11-2.7,3.89-3.04.96-.42,3.82.86,5.53-.39,6.42-4.69,9.03-31.94,4.47-39.61h-2c1.73-.84,1.78-1.51,0-2l-.25-3.59c3.86-.56,4.46-1.58,1.24-2.52l205.01,2.12c-4.24,15.5-7.26,32.41,4,46,12.23,8.87,36.44,7.59,50,2,1.31-.74,1.33-1.41,0-2,12.73-10.22,7.86-30.07,6.01-43.99,6.86-.34,13.89.61,20.75-.25,8.16-1.03,36.37-10.36,40.14-9.63,5.14.99.95,7.91,1.28,10.68,2.33,19.96,15.73,27.1,34.84,27.35,24.66.31,35.77-15.11,32.82-39-.52-4.2-3.92-9.12-3.81-12.29.17-5.03,6.9-4.03,8.01-9.84,3.18-16.71-1.58-44.58-2.11-61.94ZM1621.55,1599.12c-99.14-.81-202.31-.58-303.55,2.94-6.62-3.03-13.38-3.02-20,0-2.51,1.54-5.5,1.5-8,0-3.46-3.1-8.52-3.06-12,0-.95.99-2.28.99-4,0-3.06-2.29-7.37-2.78-12.92-1.48-.65-.49-1.25-.91-1.84-1.31l22.44-327.5.3.28,8.34-126.51,3.67-53.5-.14.03.13-1.99,309.21-.43,20.73,483.48,3.5-4.21c.32,7.65.64,15.3.96,22.95,5.78.95-.62,8.6-6.83,7.24ZM1675.85,1621.91c1.41,2.02,2.95,3.82,4.57,5.42-1.88-1.55-3.44-3.35-4.57-5.42ZM1727.89,1628.95c-.69.56-1.48,1.07-2.32,1.56,1.53-1.18,2.94-2.5,4.23-3.94-.62,1.04-1.26,1.86-1.91,2.39ZM1727.13,1217.71c2.47,44,3.87,88.24,4.99,132.48-1.83-44.1-3.49-88.26-4.99-132.48Z"/>
    <path class="st24" d="M2008,1118.06c.6-4.45-2.19-18.48,3.16-19.77,14.17,6,112.63-2.27,116.77,1.84.96.96-.53,14.63.07,17.93h-120Z"/>
    <path class="st6" d="M1798,1118.06v-18h115c3.16,0,2.84,16,0,18h-115Z"/>
    <path class="st31" d="M1926,1118.06c-1.06-4.98.75-12.57,0-18h70v18.01c-22.75,1.33-47.5-1.84-70-.01Z"/>
  </g>
  <g>
    <polyline class="st11" points="-2151.92 508.53 -1923.49 624.38 -2137.75 490.1"/>
    <path class="st1" d="M-1095.7,1144.06v4c1.6,2.64,2.93,5.31,4,8-.04,3.63-1.61,4.6-4.78,3.6,5.5,10.9,10.97,21.97,16.41,33.21-3.16,13.2-6.28,26.66-9.37,40.39-5.1,14.33-15.42,15.17-28.26,14.85-18.74-.47-39.05-5.3-56.77-11.11l-1.24-4.93c-6.88-5.62-14.1-10.87-21.66-15.74-16-40.45-18.8-80.75-4.34-122.26-.34-9.27,2.33-15.94,8-20l6-14-1.13-4.85c11.27-37.91,32.92-73.29,55.13-105.15,2.16-12.01-9.01-4.56-10.07,4.03-4.31,3.31-6.5,7.3-6.57,11.97-2.15,2.8-4.79,4.45-8.18,5.46-11.06,3.3-69.33-32.58-80.06-39.9-5.01-3.74-6.06-7.26-3.13-10.56l-2.36-.61.37-97.18c-2.95-1.42-2.86-3.66.26-6.73-2.25-6.42-1.67-10.92,1.73-13.49-1.6-1.02.94-5.33,2.19-6.02,6.74-3.71,71.32,30.49,80.26,35.57,46.84,26.64,92.14,55.6,127.56,96.57,28.59,33.07,20.25,54.41,2.89,90.88-22.19,46.6-49.8,95.88-86.31,132.32-42.57,24.01,4.84,7.34,14.35-8.64l5.07.32Z"/>
    <polygon class="st19" points="-1429.87 1328.15 -927.7 1334.06 -930.71 1346.06 -1453.36 1348.06 -1429.87 1328.15"/>
    <path class="st1" d="M-1585.7,610.06c-1.96-3.21-4.65-5.92-8.06-8.13-33.87-14.93-67.87-32.68-96.64-57.17l-1.3-6.69-6-4c-6.32,2.31-12.29-3.74-10-10-13.4-11.19-25.66-23.92-36-38-2.18-.23-3.41-1.96-4-4-1.54-.25-3.05-.57-4.45-1.14-19.28-7.85-45.1-80.41-49.84-102.29-4.71-21.73-11.29-98.65,2.73-113.68,1.03-1.11,2.26-2.03,3.55-2.89,2.54-3.51,3.38-7.79,4-12-.55-1.41-1.03-2.84-1.24-4.3-1.04-7.07,10.79-26.8,15.34-34.2,54.31-88.42,156.12-81.98,227.53-17.52l46.31,43.4c11.82,8.62,22.51,18.16,32.06,28.62l4.85-.27c68.49,56.16,150.57,122.87,234.84,154.57,90.48,34.03,171.09,17.37,256.02-23.5,22.62,13.22,25.15,38.43,18.48,61.63-27.89,96.99-185.73,163.75-279.84,159.25-10.41-1.21-38.39-1.85-40.2,4.91"/>
    <path class="st44" d="M-1119.83,1150.94c-2.13,1.52-29.12,12.62-14.57,16.94,11.51,3.41,31.83-15.7,38.69-23.81,26.31-31.07,57.02-83.96,73.71-121.28,17.74-39.66,26.63-57.82-1.76-95.67-35.84-47.79-106.49-87.89-159.96-113.04-15.17-10.05-31.17-16.72-48-20l-6-2c-.79-1.7-1.46-1.73-2,0-7.11-1.78-14.33-4.03-21.54-5.46-10.53-2.09-69.27-9.05-72.56-11.45-2.87-2.09-4.75-43.27-3.85-48.04,1.43-7.62,6.81-6.63,9.95-9.05,13.93-10.75,18.29-14,33.39-23.61,10.37-6.6,28.85-22.69,32.61-34.39,7.42-23.05-.99-33.88-5.9-53.1-3.77-14.77-6.78-31.44-9.48-46.52-6.63-37.14-8.6-114.84-35.96-140.04-15.19-13.99-53.14-34.82-73.59-36.41-55.97-4.33-120.35,31.2-165.59,23.59-18.8-3.16-17.53-22.9-39.48-1.52l-8,12c-6.72,16.31-9.24,30.88,4.21,44.79,4.43,4.58,20.52,11.03,21.02,14.12-6.76,28.59-9.06,58.35-4.73,87.58,1.66,11.22,7.42,35.12,11.49,45.51,4.79,12.23,17.09,27.62,22,40,.99,2.5,1.16,5.44,2,8-29.23,20.88-9.9,69.14,23.52,73.47,5.32.69,17.18-1.25,18.48-.59,2.45,1.26,4.79,7.21,8.12,10,20.3,17.01,46.23,12.45,68.74,3.22,5.85,1.4,2.13,24.18,3.15,29.9-21.8.61-43.4,6.33-65.03,7.97-55.78,4.24-107.29,2.88-163.65,12.35-58.26,9.79-184.42,49.16-215.75,102.25-14.02,23.76,4.96,49.56,20.42,67.42l10,10c1.41,1.94,2.65,4.02,4,6l.67,4.87c32.52,25.07,64.06,46.48,102.63,64.41,1.49.69,3.24.85,5.06.97,1.86.13,3.75-.02,5.63-.25,9.47,4.34,19.27,7.99,29.39,10.92,3.1,3.19,13.3,6.24,10.61-.92,1.49-.95,1.16-2.73,0-4,1.71-.95,1.79-1.63,0-2l-2.14-7.67c-40.35-14.88-78.36-34.07-114.05-57.56l-7.82-.77c-2.08-2.72-4.76-4.83-8-6l.63-4.65c-50.63-43.52-67.61-69.12-3.1-108.13,86.83-52.5,186.52-68.01,284.47-72.21l-4,2.39v91.76l4,1.85c-29.72,9.47-44.58,14.21-44.58,14.21l-77.94,17.12c-22.38-13.16-45.06-25.79-68.05-37.88-8.59-5.77-52.91-9.25-36.8,7.54,37.85,15.13,74.17,34.23,108.94,57.3,4.12.27,8.27-.15,12.44-1.28,3.08,3.88,6.65,3.08,6-2,3.08-3.37,1.51-5.5-.85-8.49,32.37-5.97,64.26-13.78,95.68-23.43-7.26,31.14-11.54,62.45-12.83,93.91-3.79,1.13-3.79,2.87,0,4-1.03,21.43-8.34,42.31-10,64l-2.89-.02c-1.94,9.21-2.97,18.55-3.11,28.02-2.7,33.88-18.3,86.52-26,122-6.8,31.33-12.08,41.36-12.02,75.02.12,71.91,4.45,143.96,8.1,215.9,1.29,25.44-3.88,53.08,9.88,76.12,42.81-.92,90.84,4.53,133.12,1.05,3.36-.28,9.1-.31,11.07-3.41,9.17-80.84,19.49-161.75,27.84-242.67.56-5.39,1.5-10.69,2-16,.12-1.31-.12-2.69,0-4,.98-10.71-.28-23.63,4-34,4.35-49.79,9.39-103.35,16.24-152.76.29-2.09,1.4-17.36,5.73-13.24,4.72,33.89,8.39,67.93,11.92,102l28.91,350.79c.67,8.15,7.53,14.39,15.71,14.3l301.22-3.35c2.83-4.38.96-7.56.27-11.75l-6-14c-15.37-24.1-47.5-32.18-74.62-36.38l-3.23-2.77c-15.74-59.86-28.35-120.54-42.15-180.85-1.2-5.25-2.79-10.69-4-16-6.37-28.01-12.73-56.19-20-83.98,25.52-.33,78.51,22.46,90.97-10.05,2.94-7.66,2.02-15.02,3.91-22.09,1.93-7.21,7.42-11.65,7.24-18.78-.18-7.36-14.64-36.27-20.13-41.11-3.3.39-6.95-2.08-8.57,2.55-2.54,7.23,16.88,26.91,16.74,38.48-10.5,14.81-2.48,43.74-23.35,46.77-14.47,2.1-55.83-5.31-68.82-11.8-2.83-8.29-17.61-12.35-20.91-18.09-3.9-6.78-11.39-40.45-12.54-49.47-2.66-20.93,2.28-49.85,7.45-70.45,1.26-5.02,6.02-14.12,8-20l6-14c12.94-38.08,36.12-73.99,54-110,.44-.88,5.43-2.04,3.99-6.97-.7-2.38-4.47-3.43-6.97-3.14-9.42,1.08-12.87,29.88-25.51,27.76-9.39-1.58-65.56-31.83-73.39-38.76-1.62-1.44-6.12-6.38-6.12-7.88v-118c0-.84,1.96-2.57,4.14-2.21,4.89.81,15.46,5.33,20.58,7.49,53.43,22.54,151.47,80.3,184.95,127.05,13.4,18.71,19.45,28.68,12.41,51.73-11.3,37-69.62,142.04-100.19,163.81ZM-1416.61,1115.17l-1.67,1.56c2.43-2.99,3.63-8.68,2.51-12.59,12.73.9,50.4,1.91,62.26.18-.87,2.34-.94,5.44-.19,9.31-21.19-.29-42.16.22-62.92,1.55ZM-1170.03,980.46c4.74-1.65,5.13-1.39,1.16.8l-1.16-.8-5.67,13.12-35.14,75.16.83-3.23c-6.07-38.19-12.77-76.39-20.1-114.6,19.36,11.31,39.39,21.16,60.09,29.55Z"/>
    <path class="st1" d="M-1487.7,540.06c3.62-.52,5.12-3.55,7.88.96-4.41,21.41-4.67,43.44-6.76,65.17-14.33,15.01-29.99,28.8-46.15,41.82-35.33-48.87-44.47-111.48-30.89-169.84,44.19,1.94,98.99,4.31,139.88-15.13,19.1-9.08,32.13-26.81,56.91-22.84,14.13,2.27,19.37,9.73,24.84,21.15,18.63,38.91,47.18,123.62-.35,151.1-7.22,4.18-19.17,6.3-23.96,9.53-1.9,1.29-3.08,6.01-4.4,6.05-.44.02-3.92-3.39-7.67-4.31-31.39-7.72-63.85-11.57-95.41-18.62-4.67-2.91,8.64-64,3.21-71.19-1.75-2.32-5.85-1.09-7.56-2.04-2.09-1.16-1.28-3.88-4.52-4.04-7.03-.35-14.08,5.34-22.06,6.23-9.94,1.11-17.83-1.3-27.01-2-28.21-3.95-3.73,12.83,11.11,13.72-25,42.43,45.08,41.19,20.56-.25,3.2-2.97,7.31-4.79,12.32-5.47Z"/>
    <path class="st42" d="M-3345.7,1340.06v12c29.08,1.02,58.27,1.72,87.55,2.12,2.51,4.2,4.8,3.97,6.86-.56l17.83-.64c11.07.69,17.46-5.15,9.31-14.73-39.8.55-80.32,1.15-121.55,1.8Z"/>
    <path class="st42" d="M-2796,1372.14c-78.48-1.1-153.34-2.59-224.59-4.47-4.65-77.41-9.02-155.61-13.12-234.59.22-9.11-6.61-18.93-16.22-19.12l-52.86,31.24c-11.63-4.64-23.59-8.68-35.89-12.11.2-4.57-1.64-5.47-4.38-1.99-2.06.51-36.83-9-39.47-13.71-1.64,2.21-4.92,2.44-9.84.69-2.93,3.65-7.51,5.92-13.74,6.8-.14,12.55-.68,24.28-1.62,35.2,4.32,10.41,5.79,23.51,4.41,39.29,1.09,136.69,5.51,273.08,19.1,408.99.73,7.32,2.25,18.1,10.51,11.7.19,0,1.04-1.68,2.68-1.54,4.77.42,10.57,7.72,12.39-4.29l20.8-153.31h178.25s1.88,4.12,1.88,4.12l10.44,151.56c2.52,11.06,7.1,5.37,12.34,6.06,3.3.44,5.87,4.3,9.98,1.57,10.21-55.04,14.53-111.44,23.61-166.82,22.73-15.18,46.36-29.1,69.63-43.37,1.48-2.03,3.62-3.28,6-4,8.79-5.41,22.15-10.74,30-16,14.51-4.32,14.55-18.58-.3-21.93Z"/>
    <path class="st42" d="M-2840.14,1300.44c-4.17-2.18-4.57-63.71-3.07-72.4-3.96-2.29-4.53-15.33-3.45-19.96,4.37-2.71,4.13-7.99-.47-10.31-.11-47.56-3.06-95.5-8.34-142.22l-2.23.51c-.73-.8-1.74-1.2-2.76-1.55-.88-.43-1.65-.74-2.34-.93-.41-.23-.79-.5-1.07-.86-2.89-3.73.86-9.58-10.32-6.16-5.35,1.64-31.54,19.09-37.51,23.51-3.7,1.06-6.37,3.06-8,6-.1,5.07.48,8.71,6.58,7.72,6.48-1.04,33.37-21.21,42.37-25.78,2.08-1.06,3.51-2.2,4.32-2.12-.02,1.06.21,2.45.73,4.18-.79-1.75-1.46-1.78-2,0v2c-2.64,5.93-2.35,11.7.92,17.3,3.35,58.27,5.37,116.58,6.06,174.92,3.5,16.74,4.14,33.77,4.7,50.39-.19,13.65,5.06,28.41,15.61,11.07,58.28,1.58,117.93,2.71,178.97,3.4,4.62,3.24,10.95,4.34,19,3.3l-16.68,10.23c.66,1.65,1.04,3.13.49,4.02-.96,1.54-28.01,16.2-31.7,15.12-3.57,1.94-28.37,16.61-29.37,18.01-1.31,1.83-4.86,12.9,0,12.25,5.14,2.38,12.29-.61,16-4,22.35-10.15,69.12-38.1,90-52,12.44-5.17,10.38-12.1,3.71-21.42-76.89.79-153.61-.6-230.15-4.19Z"/>
    <path class="st42" d="M-2433.64,1261.77c3.15,3.17,4.82-3.86,4.95-7.34.21-5.69-3.91-11.25-9.01-8.37-1.84-.02-3.68-.04-5.52-.06,1,0,1.98,0,2.92,0l-225.53-4.82-14.11-246.88c-11.55.71-8.61-10.93-16.32-9.94-2.61.34-43.72,24.7-45.42,26.71-2.93,3.47-3.28,9.61,1.19,10.88,7.85,2.23,39.52-26.6,50.77-25.89,2.1,2.16-3.05,38.16,2.01,43.99l-2.6,8.2c3.47,64.86,6.82,129.5,10.06,193.93-.14,13.6,6.2,27.94,18.12,13.4,2.62.28,4.65-.29,6.1-1.72,24.27,1.48,49.94,2.74,75.44,2.74,39.1-1.53,77.25-.41,114.45,3.35-4.52,2.39-7.66,5.8-9.42,10.23-10.05,1.97-16.9,6.06-20.57,12.28-9.55,4.98-18.7,10.55-27.47,16.69-4.04-3.52-5.25-.93-6.01,3.68-3.28-.11-15.2,7.83-16.13,9.57-2.17,4.07-2.9,13.84,3.73,9.94.7,4.59,4.13,3.83,10.3-2.3,11.39-10.09,26.96-15.99,40-24,19.69-10.84,39.25-21.84,58.06-34.29ZM-2519.57,1244.96c19.61.08,39.22.3,58.81.85-19.58-.23-39.18-.52-58.81-.85Z"/>
    <path class="st42" d="M-2731.06,1385.42l-3.05-1.26-6.59,55.2c-4.76,2.36-5.76,12.22-3.05,16.64l-1.06,15.18c-3.92,1.51-4.45,5.07-1.59,10.68-3.11,19.45-6.13,39.1-7.82,58.84.21-3.84.18-8.91-1.47-8.64-.14-1.31.12-2.69,0-4-3.55-44.29-7.09-88.82-10.6-133.59-.14-.7-11.51-4.49-12.5-1.02-3.22,11.21.6,42.19,5.11,52.61.66,16.28.94,32.71,2.02,48.98.79,11.92,2.66,50.83,5.98,59.02-1.46,9.44,6.27,7.67,12.56,4.44,4.78,8.15,12.99-3.27,14.22-7.2.62-2,.46-4.8-1.57-5.77l19.41-146.31c3.66,1.51.62-13.63-.03-14.19-.71-.61-9.8-3.68-9.95.38Z"/>
    <path class="st42" d="M-2557.34,1327.43l-20.38,156.62-9.98-93.99c-.48-9.02-.83-56.15-7.02-57.98-9.42-2.8-7.29,15.03-7.06,21.07,1.4,37.74,6.71,76.27,10.06,113.93.73,8.26-3.17,30.19,8.02,30.98,5.23.37,3.62-3.86,4.87-3.78,7.69.53,8.29,5.23,13.13-6.22l20-162c-.52.4-9.31-5.69-11.64,1.37Z"/>
    <path class="st42" d="M-2349.7,1334.06c-7.91,3.32-17.14,4.53-27.7,3.64l-126.34-.63c-3.57-.41-5.56.58-5.96,2.99.18,6.32,1.99,9.84,8.91,10.09l145.1-.1c-.04,3.32.07,6.68-.01,10.01,1.06.17,2.1.24,3.03-.03,1.35-.38,8.01-24.61,2.97-25.97Z"/>
    <path class="st42" d="M-2440.3,1246.01l2.6.06c-.82-.03-1.7-.05-2.6-.06Z"/>
    <path class="st42" d="M-2833.12,1002.49c11.67,5.38,40.52,13.87,53.42,17.57,4.6,1.32,25.79,6.67,28.68,5.76,6.17-1.95,3.07-9.74-2.12-11.32-12.84-1.92-77.06-26.79-84.32-22.24-4.39,2.76.32,8.37,4.35,10.22Z"/>
    <path class="st42" d="M-2993.7,1070.06c13.52,4.49,49.1,15.94,61.51,17.62,7.68,1.04,10.88-2.56,7.31-9.84l-82.33-25.45c-5.92-1.74-8.59,5.34-5.6,9.78.58.86,16.49,7.02,19.11,7.89Z"/>
    <path class="st26" d="M-2349.7,1380.06l.84,2.87c-3.4,8.13-4.93,17.69-4.61,28.68l-2.23.45c-2.02,7.05-2.69,14.38-2,22,2.66,7.55,1.5,17.9,0,26,1.4,11.18,1.32,22.8,0,34-.23,20.82-.9,41.49-2,62,.35,3.36-7.22,5.73-8,2-12.17-61.57,4.72-130.75,12-192,3.94-1.97,5.94,2.69,6,14Z"/>
    <path class="st30" d="M-657.7,1046.06c-4.91,3.03-1.84-10.68-1.35-11.23,26.08-5.18,52.84-13.75,78.13-22.92,14.67-3.36,19.64-1.75,12.97,13.55-3.02-.91-6.27-.71-9.75.61-.07,3.12-3.67,3.29-6,2l-8.99,4.18c.81,3.18-1.1,3.46-5.72.85-9.41,3.33-19.05,6-28.92,7.99l-.7,2.91c-9.25,1.46-18.47,2.82-27.67,4.07-.24-.2-1.97-1.86-2-2Z"/>
    <path class="st20" d="M-2319.7,1264.06c4.8,3.55,3.98,6.61-2,6-12.37,34.75-21.92,72.09-26.07,108.88l-1.93,1.12c-3.83-3.82-.68-11.1-6-14,.23-1.91-.05-4.04,0-6,4.37-7.68,4.22-17.29,6-26,3.52-17.22,7.73-35.59,14-52l6.29-19.03c4.73-4.83,7.25-6.3,9.71,1.03Z"/>
    <path class="st26" d="M-2119.7,1558.06c5.83,2.7.82,7-4.42,7.98l-184.06-.39c6.49,4.67,12.82,12.55,2.92,17.13l3.56,10.44c-8.19,7.12-3.22,16.88,7.34,17.32,8.2-1.28,14.99-.11,20.37,3.51,2.96-3.37,7.85-4.85,14.69-4.45.34-6.08,5.04-10.23,7.61-3.53-.51,1.26.22,3.72-1.06,5.86-5.12,8.49-25.44,10.27-34.94,10.14-29.82-6.7-27.92-23-24-49.99-8.85-1.41-51.54,2.67-55.14-1.95-1.35-1.73-.56-4.25-.87-6.06.57-3.47,3.45-5.54,8.62-6.21,61.02.02,122.15.09,183.38.21l4.85-4.08,40.22.47,4.93,3.61c2.13-1.8,4.13-2.47,6-2,1.75.57,1.72,1.24,0,2Z"/>
    <path class="st4" d="M-2355.7,1460.06c.96,2.15,1.85,4.32,2.49,6.56s1.19,4.36,1.22,6.53c.38,26.95.65,54,0,80.92h173.88s2.41,3.99,2.41,3.99c-57.59,1.79-127.61-3.3-183.1,1.91-3.76.35-6.15,1.73-8.9,4.09-.31-1.85.35-4.22,0-6,2.44-.15,6.19-.36,8-2,1.16-20.49,1.83-41.15,2-62,.11-11.3-.22-22.7,0-34,.57-1.75,1.24-1.72,2,0Z"/>
    <path class="st44" d="M-1023.7,1582.06c-5.3,3.11-10.94-10.7-6-14,4.07,6.38,4.5,4.93,6,14Z"/>
    <path class="st18" d="M-679.7,1020.06c1.93.93,4.54,4.18,6,6-2.81-1.82-6.73-3.96-10-6h2c.64.17,1.5-.24,2,0Z"/>
    <path class="st44" d="M-1471.7,266.06c-9.51-7.74-10.66-14.76,3.54-10.28,18.55-10.67,37.56-20.15,57.04-28.44,26.07-17.59,54.03-30.69,83.9-39.31,8.11,3.81,15.29,4.13,15.38-5.38,2.32-2.22,31.07-8.47,35.38-8.89,8.95-.88,24.89-1.93,30.64,3.94,12.04-2.1,31.29,4.2,36.29,15.15,24.14,6.09,33.76,92.33,25.76,106.57-2.08,3.7-3.04,4.38-7.76,2.33.54,4.89.27,9.65-4.48,11.97,5.19,15.96,5.77,31.7,1.73,47.24l1.4,3.02c67.29-7.88,139.34-13.82,203.19,12.08,19.09,6.68,39.12,28.56,41.83,49.17,8.1,61.61-53.7,117.4-101.22,146.45-60.81,37.18-135.3,56.25-206.62,54.38.02-1.03-2.68-3.82-1.81-6.65,2.69-8.71,35.92-4.65,44.78-5.37,76.43-6.21,176.47-48.37,224.97-109.03,22.75-28.46,47.34-76.92,11.45-104.55-22.8,8.85-44.42,20.82-67.86,28.14-135.18,42.19-229.24-14.01-335.31-89.75-19.3-13.78-81.19-56.9-92.22-72.78Z"/>
    <path class="st8" d="M-1585.7,610.06c-17.29.53-59.28-24.7-75.83-35.17-78.23-49.48-147.52-133.88-154.15-229.85-11.03-159.63,121.62-274.84,262.92-162.92,13.8,10.93,73.4,71.13,84.2,72.01,62.82-30.77,162.35-98.72,234.85-79.06,74.27,20.14,53.03,131.69,42,187,57.45-5.44,121.77-13.39,177.99,3.01,7.59,2.21,18.61,5.14,24.01,10.99-10.54-3.69-18.97-3.16-28.49-4.32-5.65-.69-12.53-7.31-18.94-7.23-3.73.05-4.59,4.39-8.56,3.55,1.98-9.66-5.94-5.13-12.98-6.03-37.51-4.83-82.91-4-119.51,2.34-2.77.48-5.42,3.56-8.68,3.74-5.57.31-13.47-4.59-8.84-10.08l-3.96-.95c13.31-15.07-1.42-29.29-.23-44.09.3-3.73,3.78-2.66,4.16-4.31,1-4.27-.55-10.05.05-14.62,4.05-2.05,5.89,8.16,9.98,4,1.71-1.74.69-42.58,1.74-48.77-.65-9.39-7.31-15.19-9.11-24.52-.54-2.78,3.53-8.6-1.63-10.71-2.01-.83.53,5.01-2.97,3.98l1.96-9.99-5.97,1.99c4.03-15.44-12.17-8.4-14-20.02,3.76,3.6,5.35.23,2.01-1.01-7.67-2.85-10.16-5.18-17.09-8.93,1.87,9.3-3.42.35-7.8.12-3.51-.18-8.75,3.17-13.13,1.82l1.99-5.97c-10.33.1-22.49-2.54-32.65,0-1.62.41-1.3,4.01-2.49,4.03-8.28.12-3.99-1.91-14.46,1.42-2.57.82-7.69.07-8.29.64-1.49,1.41,2.58,12.93-8.1,7.89l3.98,2.01v1.96c-9.68,4.4-21.78-8.92-26,0l3.99,2c-8.75,3-18.74,2.97-27.44,5.57-4.99,1.5-36.64,17.49-41.3,20.7-4.04,2.78-5.28,7.54-7.3,8.81-1.68,1.06-7.14-.76-11.12.55-1.14.37-19.12,10.34-20.75,11.46-5.85,4.04,2.02,1.32,1.91,4.9-15.61-3.97-21.32,14.97-35.99,8.04.92,4.08,1.52,6.42,4,9.98-38.7-21.95-65.61-60.53-101.74-85.26-89.34-61.17-181.59-31.24-218.26,69.26-.61,4.2-1.43,8.49-4,12-20.62,73.06-1.72,162.2,48,220l4,6c11.33,12.72,23.33,24.72,36,36,3.74,3.99,5.55,6.25,10,10l6,4c18.53,18.12,47.35,34.18,70.24,46.76,9.29,5.11,26,10.13,33.7,16.36,4.09,3.31,3.84,4.11,2.06,8.88Z"/>
    <path class="st41" d="M-1707.7,524.06c-14.21-8.05-25.45-23.63-36-36v-2c10.98,12.51,24.42,25.63,36,38Z"/>
    <path class="st21" d="M-1795.7,262.06c1.56-5.53,2.24-7.19,4-12,.25,4.36,0,9.39-4,12Z"/>
    <path class="st25" d="M-1743.7,486.06v2c-1.37-1.61-4.41-2.09-4-6,.94,1.09,2.58,2.38,4,4Z"/>
    <path class="st12" d="M-1691.7,538.06c-4,.6-4.43-2.68-6-4,4.1-.55,4.36,2.4,6,4Z"/>
    <path class="st7" d="M-1731.7,1090.06c5.46,12.54-2.39,6.35-3.98,8.03-1.95,2.05,3.91,12.18,4.18,16.89,2.08,36.22-4.96,84.45-.36,120.22.51,3.99,4.4,1.99,4.33,5.72-.69,34.58,2.41,66.04,3.91,100.07,1.13,25.71-3.53,60.22-.18,84.18,6.35,45.38,4.18,93.88,8.29,139.87.67,7.44-4.17,16.78-2.17,25.01l3.96-15.98c-2.91,10.8,9.27,28.1-7.99,26.01l1.01,3.99c-5.83,1.58-3.67-3.72-7.87-4.17-24.75-2.62-51.62,1.52-76.47,1.4-74.47-.35-148.46.2-222.66.75-6.65.05-13.35.04-20,0-2.6,1.56-5.34,1.57-8,0-4-.04-8,.06-12,0-.89,1.04-2.23,1.04-4,0-9.25-.06-6.7.32-15.09,1.96-.48.09-2.27-7.07-8.91-3.96-.12-1.01,2.15-1.61,0-6-2.46-9.22-1.64-17.43,2.46-24.62l1.97-74.83c8.03-57.4,11.26-114.13,9.68-170.21,3.97-4.4,4.79-10.34,2.44-17.82,6.62-16.81,5.16-38.2,3.45-56.51-.82-.62-.8-1.29,0-2l4-2c-1.13-2.67-.44-3.65,2-2l-2-4c-2-7.1-1.5-14.77,0-22l-1.69-6.4,5.69-101.6c0-.67,0-1.33,0-2,.89-7.32,3.56-11.99,8-14,4.69-2.31,8.62,1.11,7.99,6.63l-7.51,109.2c-.74,4.96-2.24,9.68-4.48,14.17-.86,11.53-1.52,22.87-2,34l-1.25,10.38c2.72,4.37,6.51,14.82-.75,17.62-.09,16.58-1.42,32.58-4,48,1.55,2.98,1.55,6.32,0,10,.96,11.64.29,22.98-2,34l-2,6c3.34,2.42,3.19,11.44,0,14,2.29,64.9-2.47,132.43-10.51,195.99l363.06-.94c-.28-6.48-1.15-13.04-2.61-19.67-4.89-144.09-9.78-285.81-14.66-425.15l2.72-4.23c-2.88-4.79-3.88-14.36,0-18-1.26-8.91-1.54-17.96-.84-27.14-4.67-1.63-3.2-4.44.84-6.86.5-5.44,2.28-6.15,6-2Z"/>
    <path class="st15" d="M-1669.7,1074.06c1.65-.44,3.65.22,6,2,3.28-5.05,16.01-3.52,18,2,4.04-2.26,7.37-2.92,10-2,1.25.59,1.22,1.26,0,2,1.78.37,1.71,1.05,0,2l-3.98,5.99c.65-4.93.16-8.33-5.52-5.01l.47,3.05c-7.96-1.78-15.82-5.21-23.99-6.01-12.62-1.24-39.46-.28-51.94,2.02-9.88,1.82-6.77,9.35-7.28,9.8-.8.71-2.82-.14-3.77.17-1.98.64-3.8,1.92-6,2-1.74-.52-1.7-1.19,0-2-100.07.06-202.07-.61-306-2-4.18,3.42-8.18,3.42-12,0-.03,2.93-3.21,2.83-4,0-4.13.32-4.94-11.21.74-12.25,106.35-1.46,216.74-1.66,323.26.25,5.51-.28,11.45-1.24,17.84-2.87,3.99.35,6.64.37,9.88.15,9.1-.6,17.94-.79,27.07-.95,2.42-3.11,6.16-2.55,11.22,1.67Z"/>
    <path class="st13" d="M-1563.7,1046.06c4.59-4.55,7.69-5.42,9.31-2.63,1.81,3.24-4.72,44.7-9.31,48.63-5.04,23.35-25.88,84.06-54,86-1.16,3.99-3.01,4.03-4,0-21.72-4.85-19.11-52.27-18.07-69.07.62-9.93,4.11-18.17,4.07-28.93,0-.67,0-1.33,0-2l4-4c-2.58-2.52,2.93-6.5,6-6,1.01-1.02,6.09-5.97,6.92-4.75l-4.92,20.75,3.12,5.42c-5.75,14.76-12.07,103.58,17.05,59.94,18.41-27.59,24.65-60.93,30.51-93.08l7.32-8.27c-.57-1.86.1-2.52,2-2Z"/>
    <path class="st36" d="M-1797.7,1608.06c-66.12,1.95-133.03-2.61-199.09,0-3.85.15-8.02-2.06-6.91,4-.23-1.82-2.39-3.83.01-8.01l205.99,4.01Z"/>
    <path class="st53" d="M-1327.7,718.06l-6.98,9.74,1.25,43.99c50.36,11.52,106.9,9.94,149.73,42.28-15.81-7.44-31.3-14.83-48-20l-6-2c-.62-.16-1.37.16-2,0l-6.38,2.46c-30.15-5.46-60.19-10.94-90.12-16.46-5.1-4.77-7.7-50.53-3.76-56.29,2.97-4.34,7.98-8.36,12.26-3.71Z"/>
    <path class="st52" d="M-2321.7,1270.06l1.54,5.49c-14.13,57.52-24.5,115.68-31.09,174.49l-4.45,10.03h-2c.17-8.6-.54-17.44,0-26-.69-7.66-.03-15,2-22,4.54-11.49-1.84-15.96-.07-24.99.88-4.52,5.43-5.18,6.07-7.01,1.71-4.83-.26-14.33.5-18.5,4.12-22.68,12.51-56.04,19.7-77.92.66-2.01,7.89-4.98,2.75-13.57h5.06Z"/>
    <path class="st58" d="M-2359.7,1556.06c1.24-20.27-2.59-42.28,2-62-.17,17.78,1.89,40.23.11,57.2-.29,2.78,0,2.88-2.11,4.8Z"/>
    <path class="st32" d="M-2357.7,1434.06c-2.32-3.92-2.46-8.59-2.09-13,.52-6.24,3.12-6.55,4.09-9-.37,5.65.57,11.54.08,17.17-.22,2.56-2.06,4.56-2.08,4.83Z"/>
    <path class="st28" d="M-2157.7,1168.06c18.58-4.67,54.81-10.74,71.87-.88,9.36,5.41-1.52,10.42-1.95,16.03-.36,4.74,5.4,8.1,4.1,15.82l-10.02,1.03c-2.93,2.49-4.09,1.23-2-2-16.5-4.59-33.16-4.59-50,0-3.15,3.16-7.7,5.92-12,8,2.32,4.66-4.92,15.8-10,16-6.97,4.11-1.93,15.7-4.89,20.1-4.41,6.55-12.32-2.93-16.57-3.79-6.82-1.38-16.59,6.21-17.59-5.23-2.68-30.63,21.77-53.32,47.06-65.08.62-.17,1.37.16,2,0Z"/>
    <path class="st9" d="M-2123.7,1258.06c1.17.29,2,.65,2,2,1.32.59,1.29,1.26,0,2,1.86,97.33,1.27,194.67,0,292-4.59,3.58-6.03-.3-6.25-5.13l.44-281.06c-2.36-2.72-2.43-5.32-.2-7.81-1.34-.49-1.28-1.17,0-2h4Z"/>
    <path class="st49" d="M-2071.7,1218.06c-1.77,8.49-1.71,17.49.07,26.01l-2.07,1.99-2,2c-.07,1.26-.74,1.93-2,2-.37,1.75-1.05,1.68-2,0-.73,1.16-2.07,1.16-4,0-1.66,5.77-3.1,4.91-6,0-3.53-.06-6.86.61-10,2-.62,4.73-10.48,4.12-12,0-3.1,1.59-5.85,3.25-8,6-.62,1.78-1.28,1.76-2,0h-2v-2c5.2-7.18,6.62-4.47,14-8,1.28-.18,2.73.19,4,0l28.01-1.99,9.99-136.01c-.3,35.26-3.7,72.01-4,108Z"/>
    <path class="st20" d="M-2223.7,1250.06c30.31.05,60.67-.03,91,0,6.39.2,3.95,5.47,5,8.01.23.55-.21,1.39,0,2-.57,1.75-1.24,1.72-2,0-8.97-2.84-19.07-4.11-30.31-3.82l-3.69-4.18c-6.35.3-12.35,1.63-18,4-3.17,4.81-10.7,1.07-12-4-1.33,3.63-5.52,2.2-8,0-2.49,5.4-5.51,5.43-8,0-1.79,1.52-4.22,1.59-6,0-12.37,5.68-27.66,5.78-40,0-10.42,3.5-21.5,3.04-32,0-8.66,4.69-18.47,4.72-27.99,3.55l-4.01,2.45c-7.79,5.64-5.62-9.44,2.89-8.75,31.01-1.02,62.05-.78,93.11.75Z"/>
    <path class="st16" d="M-2223.7,1250.06c-25.76-.04-69.62-3.67-92.95.05-4.06.65-10.3,5.28-3.05,7.95,1.78.37,1.71,1.05,0,2,5.36.67,5.08,2.37,0,4-11.86-6.91-10.15,7.36-12.99,14.09-.83,1.98-2.79,3.33-3.01,3.91.1-5.83,1.91-13.51,4.4-18.68,1.14-2.38,4.27-2.72,4.99-3.9,2.01-3.28-.35-9.11,6.01-11.02l96.6,1.6Z"/>
    <path class="st17" d="M-2123.7,1258.06h-2c.55-.74,1.48-1.28,2-2v2Z"/>
    <path class="st58" d="M-2129.7,1260.06h2c.85,2.43,4.76,5.02,4.1,8.89.58,91.36-1.09,182.78-.13,274.13.04,3.38-1.28,8.9,2.03,10.97,1.28,1.12-.05,2.46-4,4-15.32,1.63-34.06-.49-50,0h-180.01c.82-32.58-1.07-65.43.01-98,2.29-68.98,19.87-124.25,34-190,.28-1.32,1.51-2.82,2-6,.19-1.24-.08-2.69,0-4l9.55-2.57c25.45.2,50.93-.34,76.44-1.6,33.55,2.26,67.13,2.95,100.73,2.08l3.29,2.09Z"/>
    <path class="st0" d="M-2083.7,1250.06c1.72.99,3.05.99,4,0,.66-.02,1.35-.05,2,0h2c1.93.23,3.51,1.73,5.98,0-1.28,15.38-.75,31.88-1.86,47.11-.3,4.09-3.2,6.2-3.5,8.23-.7,4.68,3.26,14.61,1.36,20.66l-3.96-3.98c.28,10.02,2.23,18.8,2.05,29.08-.85,49.79-9.06,100.35-12.05,149.93-1.57,26-.54,52.9-2.04,78.97l-3.96-7.98c-2.36,6.14,4.52,18.36-2.02,21.99-.2-.41-2.49-.78-2.97-2.02-3.93-10.08,2.44-21.46.96-31.97-2.47-2.96-11.82,9.99-12.99,9.99h-138c-5.03,0,.61,10.25.82,13.17.79,11.32.13,12.99-3.82,22.83-6.86-1.3.04,5.66-7.4,7.6-4.08,1.07-8.46.23-12.59.42l3.98,3.96h-15.98s5.98-3.96,5.98-3.96c-22.06.82-30.27,3.54-34.05-21,1.28-8.46,1.98,5.04,6.06.96,1.45-1.45-4.48-10.26-3.89-12.87s5.51-2.7,5.88-3.15c1.48-1.78-5.3-8.48-7.41-9.49-9.22-4.4-27.84,1.56-37.72,1.69-2.39.03-6.22-8.84-14.84-2.17l-.03-5.99c70.89-1.82,142.23,2.38,213.09.07,8.16-.27,19.79.4,25.96-.04,3.85-.27,4.65-3.94,4.96-4.04,1.03-5.29,2.61-5.14,4,0,1.07-4.07,1.94-5.38,2.02-1.67.51-96.45.31-190.72-.6-282.81l-1.42-3.52c-4.98-5.05-1.77-16.48,8-12,1.82.9,1.18,2.55-1.91,4.96,2.93-2.21,3.57-3.87,1.91-4.96-3.73-.2-6.4-.86-8-2-.35-1.74.98-3.07,4-4,3.85-.44,8.13.41,12,0,3.12-1.41,6.46-2.08,10-2,1.99-.12,4.01.12,6,0Z"/>
    <path class="st0" d="M-2287.71,1616.08v1.96c-8.32.99-8.32-2.95,0-1.96Z"/>
    <path class="st49" d="M-2059.7,1092.06c1.79.5,1.75,1.17,0,2-.9,4.61-4.45,10.72-8,14-.02-3.88-.35-8.22,0-12,2.52-2.18,4.74-3.25,8-4Z"/>
    <path class="st27" d="M-1347.7,1082.06c3.56-.5,7,0,8,3.98h-7.99s-.01-3.98-.01-3.98Z"/>
    <path class="st44" d="M-1231.7,794.06l-6-2c2.57.68,4.07,1.4,6,2Z"/>
    <polygon class="st44" points="-1422.38 1109.47 -1427.68 1116.05 -1427.69 1106.05 -1423.72 1108.1 -1421.72 1102.07 -1422.38 1109.47"/>
    <path class="st44" d="M-1426.7,1102.06c1.3.67,1.3,1.33,0,2v-2Z"/>
    <path class="st1" d="M-1809.7,982.06c-16.35-13.23-48.98-43.03-49.37-65.35-.4-22.75,41.41-49.56,59.33-59.68,62.13-35.09,136.35-52.13,207.05-58.95,15.28-1.47,41.87-4.82,56-4.2,2.27.1,8.99.45,8.99,3.19v96c0,12.65-107.7,31.78-123.02,35.16-24.08-9.85-53.76-35.13-78.92-41.23-5.58-1.35-35.26-2.81-23.51,3.54,8.56,4.63,23.05,8.55,32.8,13.17,27.49,13.02,50.69,31.39,75.97,44.04,3.62,1.81,6.53,2.87,10.68,2.31l-1.96,4.51c-32.68,12.63-40.94,38.03-34.2,70.54-1.94,7.92-3.77,15.81-3.74,24.04l-4.09,2.91c1.78.37,1.71,1.05,0,2-1.55-2.73-3.05-3.82-5.9-5.07-45.94-20.02-76.52-29.87-118.1-60.93-2.09-2.69-4.76-4.84-8-6Z"/>
    <path class="st1" d="M-1391.7,742.06c14.51.45,29.23-2.11,44.17-7.68l1.83,1.68c1.9,15.05,1.9,29.39,0,43,8.7,3.16,17.96,5.61,27.76,7.37,2.38.66,3.32,2.81,1.46,4.35-2.79,2.31-52,22.3-58.42,24.02-4.06,1.09-10.73-1.18-12.8-4.74l-10-4c-11.48-5.66-23.75-10.06-35.15-15.82-1.35-.68-6.95-1.17-2.84-4.17,1.09-.8,22.2.18,25.13-3.88,4.61-6.4-2.51-33.45-.99-38.87,1.16-4.13,15-1.59,19.86-1.27Z"/>
    <path class="st2" d="M-1545.7,1010.06c.02,1.33.06,2.68,0,4-4.08,13.24-7.09,22.69-18,32-.73.63-1.34,1.51-2,2-5.15,10.64-24.68,18.42-34,12-10.75-.17-19.41.81-28,6h-2c-.01-3.31,2.66-6.64,8-10l.85-4.68c12.25-2.15,24.42-4.71,36.49-7.67l4.65,2.35c68.8-51.66-22.99-125.78-76-72l.5,4.77c-9.39,11.91-11.58,26.64-6.57,44.17-5.64,15.63-7.38,33.09,10.71,40.28l1.36,4.78c-5.53,11.19-24.23-3.75-24.36-13.59l-3.64-2.41c0-11.4,3.85-19.03,4.11-27.06.28-8.97-3.19-18.92-2.08-29.91,2.29-22.72,21.43-38.27,41.98-45.02,2.06-.68,3.58-1.46,6-2,42.58-9.49,81.49,17.46,82,62Z"/>
    <path class="st2" d="M-1677.7,1052.06c9.16-5.92,6.56,4.3,8.53,7.46.32.52,9,7.25,9.55,7.5,3.64,1.67,6.4.84,9.92,1.03,2.31-5,3.69-5,6,0,5.75-2.07,10.41-2.74,14-2h2c-3.3,6.77-11.03,9.74-18,12-7.45.54-12.76-1.79-18-2-2.59-.94-4.59-2.28-6-4-.55-.27-1.5.28-2,0-1.98-1.51-3.24-3.63-4-6-.35-1.69.15-4.07,0-6-.85-.52-1.52-1.85-2-4,0-.67,0-1.33,0-2s0-1.33,0-2Z"/>
    <path class="st34" d="M-1801.7,988.06c-2.91-2.17-4.8-3.41-8-6,3.95.14,6.48,2.53,8,6Z"/>
    <path class="st2" d="M-1675.7,1060.06h-2v-4c1.95.55,1.87,2.31,2,4Z"/>
    <path class="st38" d="M-1835.7,974.06c-4.63-2.13-6.9-6.41-10-10,4.4,2.33,7.16,6.09,10,10Z"/>
    <path class="st44" d="M-1185.71,310.07c-.55,6.9-4.59,30.79-9.04,14.52l3.04,1.47-1.98-15.99h7.98Z"/>
    <path class="st44" d="M-1241.71,176.08v1.96c-8.32.99-8.32-2.95,0-1.96Z"/>
    <path class="st44" d="M-1410.7,226.06c1.3.67,1.3,1.33,0,2v-2Z"/>
    <path class="st58" d="M-2043.7,1088.06l2.33,1.98c101.52-.88,202.75-.87,303.67.02.2.43-.1,1.28,0,2,1.4,10.37-1.01,23.27,0,34-5.03,3.63-2.99-16.38-2.86-15.45-.82,11.48.13,22.63,2.86,33.45,4.5,8.85,1.48,36.93,1.92,49.08,4.54,126.61,11.78,253.22,14,380l4.11,23.95-371,.97c-5.02-3.27.55-6.91,1.02-12.95,4.82-62.22,7.55-124.8,11.95-187.05,2.65.42,3.35-2.9,2.1-9.95,2.55-33.96,4.51-67.97,5.9-102.05.02-8.83-1.7-20.47,2-28,1.41.44.94,3.52.94,3.34-.6-12.5-.25-24.95,1.06-37.34.97-40.69,5.62-80.8,7.88-121.31.21-3.8.72-7.2-3.88-8.69.12-.61-.02-1.36,0-2,2.38-1.56,3.72-2.9,4-4h12Z"/>
    <path class="st46" d="M-2067.7,1286.06c-.1,37.05-2.52,72.2-4,109.03-.2,4.93,1.41,6.53-4,2.97.33-4.62-.33-9.38,0-14l2-6c.99-12.33-.91-21.18,2-34,1.46-3.63,1.46-6.96,0-10l4-48Z"/>
    <path class="st33" d="M-1737.7,1126.06c.47,5.91-.33,12.06,0,18-.13-.26-2.33-.51-2.99-1.93-4.04-8.77.88-33.24-.99-44.06,3.47-.48,1.9,4.54,1.98,6.97.19,5.37-.46,10.84-.08,16.18.19,2.6,2.05,4.49,2.08,4.84Z"/>
    <path class="st35" d="M-2063.7,1224.06c-.38,15.95.3,32.03-.02,47.99-3.76-1.14-1.92-10.6-1.98-13.99-.18-10.71-1.55-24.45,2-34Z"/>
    <path class="st14" d="M-2071.7,1240.06l2,4c-.27,1.79-1.54,1.51-2,2h-2c1.08-8.85-2.48-20.36,2-28-.06,7.3-.2,14.71,0,22Z"/>
    <path class="st58" d="M-2071.7,1344.06v-10c5.27,2.96.45,8.02,0,10Z"/>
    <path class="st0" d="M-2047.7,1602.06c-.65,2.99-7.17,3.11-8,0,2.67.02,5.33-.02,8,0Z"/>
    <path class="st58" d="M-2075.7,1384.06c.3-4.2,1.97-5.68,2-6l-2,6Z"/>
    <path class="st0" d="M-2069.7,1244.06l-2-4c0,.22,2.64-.26,2,4Z"/>
    <path class="st0" d="M-2071.7,1246.06c-1.12,1.21-2.38,1.8-4,2,.4-.35.51-2.05,2-2h2Z"/>
    <path class="st0" d="M-2067.7,1602.06l-1.02,1.99-2.98-1.99c1.33,0,2.67-.02,4,0Z"/>
    <path class="st14" d="M-2075.7,1250.06c-.65-.08-1.34.05-2,0,.51-.83,1.28-1.37,2-2v2Z"/>
    <path class="st49" d="M-2062.7,1112.06c1.3.67,1.3,1.33,0,2v-2Z"/>
    <path class="st33" d="M-1737.7,1090.06l-310.99,2.01,4.99-4.01c100.35,0,200.75.08,301.12-.09,2.47.22,3.57-.7,4.88,2.09Z"/>
    <path class="st2" d="M-1599.7,1060.06c-.45,6.44-15.95,7.8-18,2-2.66,1.52-5.33,3.52-8,6-2.68,2.39-3.56,2.85-6,6-1.35,1.5-2.68,2.17-4,2-3.2,1.11-6.61,1.75-10,2,6.24-3.64,12.04-7.99,18-12,10.87-7.31,14.28-6.85,28-6Z"/>
    <path class="st33" d="M-2055.7,1088.06l3.98,2.03v1.95c-2.49.4-5.74-.49-7.98.02.04-1.33.03-2.67,0-4h4Z"/>
    <path class="st2" d="M-1663.7,1076.06c-3.21-.13-5.68-1.99-6-2v-2c2.24,1.07,4.57,1.73,6,4Z"/>
    <path class="st0" d="M-1631.7,1074.06c-1.2,1.55-1.75,3.43-4,4v-2c.98-.34,2.31-2.14,4-2Z"/>
    <path class="st1" d="M-1565.7,1048.06c-6.81,14.41-6.9,32.06-10.99,48.01-3.83,14.91-23.57,71.62-41.96,70.13-6.9-.56-10.21-19.31-10.81-25.38-1.78-18.06,2.7-38.88,5.75-56.75,1.06-8.01,3.06-15.34,6-22,6.42-.92,10.77-.56,18-2,12.32-2.46,23.43-4.07,34-12Z"/>
    <path class="st5" d="M-1617.7,1062.06l-6,22c1.16-6.8,1.18-13.38,3.98-20l-5.98,4c2.88-2.57,1.66-5.1,8-6Z"/>
    <path class="st0" d="M-2047.71,1608.07c.8.84,1.41,12.36-3.97,10.02v1.94c5.19-1.05,5.23,4.03,3.01,8.06-1.98,3.59-10.93-4.28-15.04-2.04-2.01-7.07,6.72-2.69,8.03-3.97.69-.67-1.28-8.79.93-12.07,1.52-2.25,6.33-2.68,7.04-1.94Z"/>
    <path class="st0" d="M-2090.7,1602.06c1.3.67,1.3,1.33,0,2v-2Z"/>
    <path class="st54" d="M-2119.7,1556.06c-.47-99.6-1.14-197.6-2-294v-4c.69-.08,1.46.16,2,0l2.67.35c-.81,98.71-1.03,197.46-.67,296.25l-2,1.39Z"/>
    <path class="st29" d="M-2119.7,1556.06c-1.85,1.02-3.89,1.78-6,2l4-4c0-97.3,0-194.7,0-292,3.32,2.08,1.99,7.59,2.03,10.97,1.17,94.31-.95,188.74-.03,283.03Z"/>
    <path class="st58" d="M-2121.7,1260.06l-2-2c.65,0,1.36.08,2,0v2Z"/>
    <path class="st14" d="M-2089.7,1250.06c-1.27.08-6.35,1.61-10,2,1.71-3.24,6.8-1.88,10-2Z"/>
    <path class="st14" d="M-2111.7,1252.06c-1.37,1.13-2.59,3.1-4,4,.45,3.71-1.67,5.45-4,2l.12-3.84c2.58-.68,5.21-1.86,7.88-2.16Z"/>
    <path class="st14" d="M-2079.7,1250.06l-1.02,1.99-2.98-1.99c1.32-.08,2.67.04,4,0Z"/>
    <path class="st10" d="M-2287.7,1252.06c10.37,2.91,21.7,3.57,32,0,13.29-.06,26.72-.27,40,0,2.02,1.42,3.96,1.48,6,0,2.66.07,5.34-.09,8,0,3.73,2.37,6.4,2.37,8,0,5.98.33,9.15,3.66,12,4,5.5-2.4,11.5-3.73,18-4,8.8.37,20,1.28,29.1,2,6.14.48,5.15-.99,4.9,6-27.56,5.58-57.23.32-84.92-.08-35.01-.51-70.1.55-105.08.08.04-.66-.03-1.33,0-2,.09-2-.11-4.02-.01-6,10.64-.05,21.37.08,32.01,0Z"/>
    <path class="st23" d="M-2255.7,1252.06c-5.42,6.92-26.07,5.75-32,0,10.64-.07,21.36.04,32,0Z"/>
    <path class="st23" d="M-2163.7,1252.06c-3.59,1.94-14.49,4.42-18,4,2.31-5.95,12.21-4.24,18-4Z"/>
    <path class="st23" d="M-2193.7,1252.06c1.56,6.34-5.88,5.4-8,0,2.66.09,5.35-.14,8,0Z"/>
    <path class="st23" d="M-2209.7,1252.06c-.28,3.01-5.72,3.01-6,0,2,.04,4-.05,6,0Z"/>
    <path class="st14" d="M-2115.7,1270.06c6.06-1.11,3.85,3.06,4,6.91,3.65,92.46-2.76,187.2.04,279.89.24,2.35-2.77.78-4.04,1.2-1.12-.11-2-.23-2-.35-1.35-94.33-1.27-191.88,0-286.24,0-.48.88-.94,2-1.4Z"/>
    <path class="st47" d="M-2107.7,1258.06c-9.63-1.16-7.61,4.99-8,12v288c-1.07.35-2.94-.36-4,0v-300c2.32-.69,2.29-.91,4-2,3.35-1.5,6.35,1.68,8,2Z"/>
    <path class="st14" d="M-2107.7,1258.06c3.8.74,9.38-2.58,8.01,3.99-2.46.13-5.34-.8-7.6.51-.24.14-1.18,7.52-4.41,3.48s5.02-7.38,3.99-7.99Z"/>
    <path class="st14" d="M-2091.71,1254.07c2.18,2.18-1.8,6.16-3.98,3.98s1.8-6.16,3.98-3.98Z"/>
    <path class="st44" d="M-1406.28,528.49c30.73-7.01,30.53,42.6-1.53,32.68-14.55-4.5-14-29.13,1.53-32.68Z"/>
    <path class="st44" d="M-1356.09,502.4c2.09,3.66.11,9.48-4.66,9.81s-8.06-4.27-12.39-5.72c-17.85-5.94-25.82-7.48-42.45,2.68-3.21,1.96-13.21,14.07-14.26,1.84-.83-9.61,21.06-19.68,29.32-20.78,8.87-1.18,40.39,5.05,44.45,12.16Z"/>
    <path class="st2" d="M-1655.7,974.06c52.98-53.6,144.76,20,76,72-15.4,7.27-31.67,5.09-42,10-6.46,6.44-12.42,11.33-22,12-1.97.08-4.04.11-6,0-13.02-4.39-19.98-12.75-20.15-27.01-.09-7.96,3.69-12.51,4.09-18.22.33-4.72-2.03-8.99-2.03-13.69,0-14.37-.26-25.63,12.08-35.09Z"/>
    <path class="st48" d="M-1579.7,1046.06c-.57-5.84,6.66-5.79,9.93-9.16,2.46-2.54,10.25-15.34,11.1-18.8,10.75-43.61-35.2-71.21-73.58-57.6-5.5,1.95-18.74,9.95-23.45,13.55,36.16-46.13,123.77-6.7,96.99,51.99-5.13,11.25-10.36,14.99-20.99,20.01Z"/>
    <path class="st2" d="M-1671.71,1046.05c-8.77,2.73-1.24-14.68,0-11.98v11.98Z"/>
    <path class="st2" d="M-1629.7,1066.06c-4.76.65-9.12,1.81-14,2,8.78-1.37,14.78-8.57,22-12l-8,10Z"/>
    <path class="st2" d="M-1671.7,1072.06c-3.63-2.02-3.2-2.13-4-6l4,6Z"/>
    <path class="st50" d="M-1649.7,1026.06c-29.5-44.58,31.8-80.48,68.99-51.99,23.57,18.05,19.24,52.53-6.89,65.1-16.88,8.13-31.8,6.9-48.1-1.11-5.69-2.78-10.7-6.42-14-12Z"/>
    <path class="st43" d="M-1649.7,1026.06l14,12c-2.91-1.43-5.46-1.01-9.04-3.95-4.16-3.41-3.29-5.53-4.96-8.05Z"/>
    <path class="st51" d="M-1604.28,1007.51c-2.23,2.69-19.31,14.19-21.31,7.38-2.85-9.7,10.02-11.58,11.6-16.17,2.85-8.29-7.98-22.16,3.53-28.54,8.19-1.33,10.58,32.01,6.18,37.32Z"/>
    <path class="st2" d="M-1677.7,1055.28s-1.67,10.83,3.17,14.81l4.83,3.98,9.15,1.49s3.46-7.51,3.07-8.66-4.09-6.89-4.6-7.28-15.62-4.34-15.62-4.34Z"/>
    <path class="st39" d="M-2143.7,374.06c.66.08,1.35-.1,2,0,8.15.52,10.26,24.69,8.16,29.4-4.71,4.13-8.49,10.31-11.33,18.55-3.72-2.03-5.42.95-5.29,4.75-3.89.73-7.81,1.84-5.8,6.21-8.14,1.91-29.4,20.36-10.61,14.52,24.22,7.88,48.98,14.85,74.28,20.91,2.53,2.42,2.85,4.69,1.67,7.84-1.28,3.4-26.32,17.89-31.08,15.82-3.7,2.93-7.14,5.65-12,6-3.74,4.44-13.65,12.12-19.62,14.56-.43.18-1.26-.63-2.2-1.71-3.99,4.84-9.27,5.91-14.95,3.99-66.77-22.67-134.28-50.26-194.72-86.78-11.49-2.51-25.66-11.1-34.95-18.72-.59-.49-.34-2,.15-3.81-16.43-8.97-24.66-20.15-30.75-37.36-16.96-47.9,48.78-30.52,72.97-19.13.76.36,1.94-.15,3.23-.92,6.2,8.88,18.8,14.1,29.18,15.46l.64,3.99c14.09,8.32,28.84,15.08,44.25,20.29,7.33-5.21,22.67-5.37,31.61-2.87,34.71-4.43,69.24-8.66,103.59-12.7l1.58,1.71Z"/>
    <path class="st40" d="M-147.7,1332.06v12c-13.93-.49-28.09.68-42,0-4.84-2.27-4.15-10.87,1.54-12.25,13.64-1.61,27.13-1.53,40.46.25Z"/>
    <path class="st39" d="M-205.7,1374.06c-3.29,84.16-7.31,172.82-16.24,256.78-.15,1.4-1.6,8.72-1.95,9.01-.83.68-19.28,2.39-20.81.23l-21.22-157.8c-4.2-.94-8.35-2-12.7-2.3-45.55-3.16-105.97-1.63-152.19.02-3.89.14-15.41-.44-16.59,3.33l-11.67,158.31c-.34,3.14-19.75,4.32-20.72,3.59-6.68-4.99-17.8-146.16-22.91-165.16-2.9-3.95-7.26-6.13-11.16-8.84-29.55-20.55-74.65-39.22-100.83-61.16-6.92-5.8-5.91-10.57,1-16.01,11.11-2.03,22.54-2.42,34.28-1.17l1.91-3.02c24.75.38,49.59,1.02,74.54,1.93,40.21-2.61,78.75-3.15,118.81-2.71,4.46-61.44,7.82-123.74,10.07-186.91-3.41-4.04-3.35-14.62,1.44-17.22l.47-26.37c-.59-11.98,5.45-22.42,17.31-25.5,16.61,11.33,33.83,21.53,51.65,30.59,5.33-3.38,11.25-3.62,17.26-2.87,1.82-5.72,16.95-9.82,21.89-7.42l25.57-7.41c11.85-9.74,42.99-10.46,40,10.33-.96,71.77-3.36,144.35-7.21,217.75Z"/>
    <path class="st37" d="M-543.7,1076.06l3.11,1.07c-1.77,69.2-4.81,138.84-9.11,208.93,3.02,10.24,2.03,27.2,1.01,39.22,1.01,9-3.92,24.71-13.01,16.78l-6.9-6.11-207.09,2.12c-3.11,2.5,10.31,9.67,12.14,10.84,25.32,16.23,52.73,29.61,77.99,46,4.07,4.95,1.59,9.56-4.96,9.15-5.12-.32-23.14-12.56-29.18-16-3.76-1.22-7.33-3.02-10-6-22.94-13.2-45.5-27.16-68.16-40.86-5.68-6.32,4.42-12.9,10.16-15.14,70.79-2.19,141.91-3.47,213.37-3.84.09-3.16,1.75-5.01,2.3-3.87,2.56,5.33,7.4,3.87,7.79,2.74,4.62-48.36,6.56-96.65,5.81-144.89,4.57-29.95,6.72-59.9,6.44-89.84-.21-6.25,2.18-15.1,8.29-10.3Z"/>
    <path class="st37" d="M-715.7,1020.06c3.29,2.43,7.36,8.16,1.08,8.74-1.77,53.45-4.13,106.53-7.08,159.26-.1,1.31-2.77,4.46-2.03,6.89l-3.96,85.12c-10.68,3.11-9.11-5.26-16.87-6.15l-207.12,2.15,3.31,5.67,87.73,52.27c2.8,19.3-27.64-3.72-35.05-7.96-3.76-1.22-7.33-3.02-10-6-11.75-6.76-24.48-13.05-36-20l-13.63-7.83c-5.31-.95-9.96-2.29-10.37-8.17l-8-4c-8.28-7.15,5.39-18.41,12.52-18.52,72.99.9,145.95.46,218.88-1.32l4.6,1.84,12.94-244.58c6.92-3.42,9.94-2.56,9.06,2.58Z"/>
    <path class="st56" d="M-829.7,1486.06c.53,7.64,2.53,14.31,6,20,2.01,3.09,2.01,1.76,0-4-2.52-.73-3.12-1.88-1.39-3.53l1.39-12.47,4-40,2.63,1.75c2.03-25.13,4.12-50.21,6.25-75.22.94-4.67,1.7-7.65,7.11-6.52,1.37,46.83-10.65,99.13-10.45,146.55-3.14,13.73-11.61,2.36-21.04,4.09l-24.2-167.25c2.19-5.12,8.73-8.41,11.25-1.96,7.93,45.85,10.63,92.74,18.43,138.57Z"/>
    <path class="st57" d="M-655.7,1530.06c2.53,9.09,4.37,18.09,5.52,26.98l2.48,1.02c6.25,1.14,5.98,18.32,0,20-12.19-.41-11.83,4.94-15.44-11.56l-20.08-155.21c2.13-5.09,8.67-8.13,11.09-1.8l16.43,120.57Z"/>
    <path class="st3" d="M-647.7,1528.06c5.22-35.77,5.63-72.71,10.1-108.9,2.77-9.99,11.54-4.69,10,3.79-2.68,52.38-6.78,105.07-12.25,156.95-3.01,2.02-7.18-1.83-7.86-1.85v-20l-2.47-.59c.44-9.52,1.27-19.32,2.47-29.41Z"/>
    <path class="st45" d="M-683.7,1020.06c3.83.85,7.16,2.85,10,6,2.36-.08,16.79,8.29,17.04,9.24-3.09,11.77-11.44,12.02-25.04.76-10.06-7.49-14.64-10.37-26-16-2.84-.32-5.5-.32-8,0l-4.01-2.99-1.97,18.98-2-17.98-14.02,243.99,11.99-248.01c14.88,4.62,6.99-9.92,14.93-10.03,3.31-.04,22.43,13.14,27.08,16.04Z"/>
    <path class="st55" d="M-497.7,1088.06c.56.22,1.39-.21,2,0,10.77,2.25,18.71,6.45,12.07,18.08-1,1.76-16.36,3.4-13.78-2.84-1.42-1.56-33.98-22-36.09-21.94-.26,0-2.95,1.14-3.39,1.71-2.55,40.51-4.82,81.51-6.81,122.98,0,.67,0,1.33,0,2l-1.36,27.66c2.66,4.26,4.43,11.7-1.48,13.23,1.1,13.4.04,25.77-3.16,37.11-1.55-15.76,1.24-31.58,1.98-47.02,1.8-37.33,2.44-74.72,3.94-112.06.64-16.11,5.41-34.75.08-50.92,4.41-3.71,4.3-7.96,5.9-9.16,5.55-4.15,32.54,18.1,40.1,21.16Z"/>
    <path class="st56" d="M-803.7,1366.06c-2.51,2.68-3.44,7.7-3.77,11.24-3.6,38.71-4.74,77.63-8.24,116.77-2.6,3.21-3.64-.23-3.99-2.97-1.59-12.42-.2-31.81,0-45.04.46-30.23,2.98-60.41,6.01-90.52,11.19-8.75,9.74,2.07,9.99,10.52Z"/>
    <path class="st22" d="M-481.7,1108.06c-.52-2.12-.2-6.11.97-7.99,2.03-3.24,63.65-21.17,72.61-23.43,10.3-2.6,24.6-6.15,13.89,8.04-24.78,6.06-48.72,16.14-73.36,22.48-5.06,1.3-10.83,0-14.11.9Z"/>
    <polygon class="st44" points="-1393.93 1195.41 -1403.7 1296.06 -1414.77 1397.22 -1453.36 1296.06 -1446.08 1235.15 -1393.93 1195.41"/>
    <path class="st38" d="M-1605.78,1515.15c-2.53-83.34-6.85-166.53-10-250-1.09-28.95.13-58.15-1.92-87.08-1.18.08-3.01.22-4,0-2.39-4.43-5.52-9.1-9.4-14.02-9.05-25.85-5.23-54.01-.71-80.43l-3.89-3.56c-1.13-1.25-1.96-1.29-2.57-.72-1.21-1.93-5.64-.61-10.56,1.16-6.14-1.57-15.5-3.03-25.71-3.95l2.83-4.48h-222.09l-3.91-78h45c5,0,1.29-10.59,1.99-12.15,1.58-3.52,11.96-3.12,5.19-11.04-2.32-2.72-26.95-4.59-33.1-4.89-15.83-.79-31.91.8-47.75,0-1.88.43-5.07,15.48-5.33,18.08-.2,1.96.12,4.02,0,6-1.47,23.74-.39,48.17-1.47,72.01-.07,1.57-.15,3.14-.24,4.7.07.09.13.16.19.24l-.05,5.05h-57.4l-78.58,4-10.44,181.21,1.81,1.68-21.81,348.79,4.98-1.43c.48.6,1.2,1.1,2.32,1.46,5.04,1.64,27.53-.92,28.71.29-.21,11.82-4.37,26.54,0,38.01.85,2.22,5.66,6.5,8,8,10.74,6.87,28.04,6.61,40.11,3.04,2.1-.62,3.11-2.7,3.89-3.04.96-.42,3.82.86,5.53-.39,6.42-4.69,9.03-31.94,4.47-39.61h-2c1.73-.84,1.78-1.51,0-2l-.25-3.59c3.86-.56,4.46-1.58,1.24-2.52l205.01,2.12c-4.24,15.5-7.26,32.41,4,46,12.23,8.87,36.44,7.59,50,2,1.31-.74,1.33-1.41,0-2,12.73-10.22,7.86-30.07,6.01-43.99,6.86-.34,13.89.61,20.75-.25,8.16-1.03,36.37-10.36,40.14-9.63,5.14.99.95,7.91,1.28,10.68,2.33,19.96,15.73,27.1,34.84,27.35,24.66.31,35.77-15.11,32.82-39-.52-4.2-3.92-9.12-3.81-12.29.17-5.03,6.9-4.03,8.01-9.84,3.18-16.71-1.58-44.58-2.11-61.94ZM-1724.15,1599.12c-99.14-.81-202.31-.58-303.55,2.94-6.62-3.03-13.38-3.02-20,0-2.51,1.54-5.5,1.5-8,0-3.46-3.1-8.52-3.06-12,0-.95.99-2.28.99-4,0-3.06-2.29-7.37-2.78-12.92-1.48-.65-.49-1.25-.91-1.84-1.31l22.44-327.5.3.28,8.34-126.51,3.67-53.5-.14.03.13-1.99,309.21-.43,20.73,483.48,3.5-4.21c.32,7.65.64,15.3.96,22.95,5.78.95-.62,8.6-6.83,7.24ZM-1669.85,1621.91c1.41,2.02,2.95,3.82,4.57,5.42-1.88-1.55-3.44-3.35-4.57-5.42ZM-1617.81,1628.95c-.69.56-1.48,1.07-2.32,1.56,1.53-1.18,2.94-2.5,4.23-3.94-.62,1.04-1.26,1.86-1.91,2.39ZM-1618.57,1217.71c2.47,44,3.87,88.24,4.99,132.48-1.83-44.1-3.49-88.26-4.99-132.48Z"/>
    <path class="st24" d="M-1337.7,1118.06c.6-4.45-2.19-18.48,3.16-19.77,14.17,6,112.63-2.27,116.77,1.84.96.96-.53,14.63.07,17.93h-120Z"/>
    <path class="st6" d="M-1547.7,1118.06v-18h115c3.16,0,2.84,16,0,18h-115Z"/>
    <path class="st31" d="M-1419.7,1118.06c-1.06-4.98.75-12.57,0-18h70v18.01c-22.75,1.33-47.5-1.84-70-.01Z"/>
  </g>
</svg>