<?xml version="1.0" encoding="UTF-8"?>
<svg id="Layer_1" xmlns="http://www.w3.org/2000/svg" version="1.1" viewBox="0 0 1080 1084.6">
  <!-- Generator: Adobe Illustrator 29.8.1, SVG Export Plug-In . SVG Version: 2.1.1 Build 2)  -->
  <defs>
    <style>
      .st0 {
        fill: #a1a4b9;
      }

      .st1 {
        fill: #f2f1f3;
      }

      .st2 {
        fill: #e3e1e6;
      }

      .st3 {
        fill: #560fb2;
      }

      .st4 {
        fill: #ada6b6;
      }

      .st5 {
        fill: #3ed5a8;
      }

      .st6 {
        fill: #e9e7ec;
      }

      .st7 {
        fill: #3bd5a7;
      }

      .st8 {
        fill: #3ad5a7;
      }

      .st9 {
        fill: #1a0733;
      }

      .st10 {
        fill: #0c5c52;
      }

      .st11 {
        fill: #27694f;
      }

      .st12 {
        fill: #17563c;
      }

      .st13 {
        fill: #a8aabf;
      }

      .st14 {
        fill: #786e88;
      }

      .st15 {
        fill: #a3a5bb;
      }

      .st16 {
        fill: #190833;
      }

      .st17 {
        fill: #8d70fe;
      }

      .st18 {
        fill: #a3a6bc;
      }

      .st19 {
        fill: #16543a;
      }

      .st20 {
        fill: #28b37a;
      }

      .st21 {
        fill: #eceaee;
      }

      .st22 {
        fill: #18553c;
      }

      .st23 {
        fill: #5ad9b3;
      }

      .st24 {
        fill: #190733;
      }

      .st25 {
        fill: #876af3;
      }

      .st26 {
        fill: #17553b;
      }

      .st27 {
        fill: #8a6cf8;
      }

      .st28 {
        fill: #8d6ffd;
      }

      .st29 {
        fill: #a3a6bb;
      }

      .st30 {
        fill: #f4f4f5;
      }

      .st31 {
        fill: #155339;
      }

      .st32 {
        fill: #fefefe;
      }

      .st33 {
        fill: #8d6ffe;
      }
    </style>
  </defs>
  <path class="st2" d="M1006,469.83c-.28.87-.62.86-1,0l-2-.95V208.07l2-1.24h1v263h0Z"/>
  <path class="st2" d="M1006,781.83c-.28.87-.62.86-1,0-2.69-70.98-2.74-142.02,0-213,.28-.87.62-.86,1,0v213Z"/>
  <path class="st21" d="M1006,568.83h-1l-2-.69v-97.08l2-1.22h1v99h0Z"/>
  <path class="st1" d="M1006,882.83h-1c-2.71-22.61-2.76-45.39,0-68,.28-.87.62-.86,1,0v68Z"/>
  <path class="st6" d="M1006,814.83h-1c-1.96-10.98-1.97-22.03,0-33h1v33Z"/>
  <path class="st3" d="M419.47,660.86h0c-21.41-18.12-47.49-30.39-73.41-40.59l-43.39-5.61c-4.21-1.42-3.47-14.11-2.66-17.82,9.82.85,18.66-.32,24.18-9.32,1.44-2.34,3.55-10.18,4.01-10.5.72-.51,3.55-.36,5.77-1.73,8.63-5.34,10.01-22.81,2.55-29.47-1.66-1.48-6.24-2.79-6.45-3.08-.44-.61.94-4.81,1.03-6.42.09-1.64-1-4.91-.63-5.55.7-1.19,19.84-11.99,23.42-14.55,31.92-22.82,59.14-55.96,64.97-96.03,9.82-67.53-42.1-141.32-115.54-110.54-30.17,12.65-45.67,40.69-59.28,68.72-31.88-6.14-70.67-17.67-103.1-11.09-56.98,11.55-6.77,74.49,10.45,98.65.66.93,3.34,4.08,2.6,4.89-31.1,6.46-82.91,21.66-98.54,51.97-2.18,4.22-2.78,9.24-5.46,13.04v1s0,.02.01.03v6.94s0,.02-.01.03v2l8.17,16.33c30.16,35.94,87.92,36.93,131.19,31.53,3.22-.4,18.02-3.86,19.19-3.62,1.34.27,1.87,4.89,2.99,6.73,6.23,10.32,24.56,8.67,34.6,6.55,1.34,2.25,11.33,7.05,11.7,7.64.87,1.39.29,8.74-1.51,9.91-14.52,5.86-30.01,9.68-43.99,16.76-29.51,14.92-61.44,44.87-79.55,72.45-6.28,9.56-11.04,15.24-5.98,27.42,6.07,14.58,53.23,36.46,53.18,39.8,0,.77-6.1,4.18-3.54,12.55.4,1.3,2.4,2.97,2.39,3.45,0,.76-6.89,5.62-6.92,12.99-.03,6.71,3.44,8.87,5.3,13.78,2.43,6.41.99,15.66,11.27,15.72,13.23.07,31.28-13.29,39.51-23,1.22-1.99,1.55-.99,1,3-8.05,50.96-14.6,102.21-22.25,153.25-10.97,25.38-28.69,72.24,17.74,68.74,28.8-2.17,52.8-37.19,57.38-63.62,8.58-49.49,11.82-103.48,18.26-153.74.22-1.72.97-10.63,2.38-10.6,1.1.02,5.21,18.68,5.82,21.16,12.24,50.32,23.15,100.98,35.8,151.2,16.77,22.42,36.94,44.05,67.93,39.17,7.41-1.17,15.43-4.72,17.98-12.02,7.67-21.95-9.14-44.16-21.01-61.05l-32.04-144.96c4.53-.62,8.99,1.58,13.52,1.58,8.86,0,29.3-3.94,29.52-15.56.06-3-1.94-6.68-1.91-9.93.03-2.95,1.91-7.01,1.79-10.02-.08-2.16-2.01-5.35-1.68-6.97.23-1.11,2.28-2.39,2.98-3.92,2.89-6.38,1.92-11.94-6.2-11.71,6.78-19.43,18.01-37.74,24.05-57.46,1.13-11.54-11.43-21.61-19.58-28.5ZM228,753.84h0c-6.38-7.81-14.56-15.67-21.99-22.52-4.35-4.01-9.74-9.14-15.01-11.5,6.9-6.1,15.02-14.75,22.48-20,.85-.6,1-1.38,2.51-.98,4.2,18.02,8.91,35.95,13.01,54,.41,1.44.4,1.71-1,1ZM364.01,748.81h0s-15.01-65.98-15.01-65.98l32,12-16.99,53.98Z"/>
  <path class="st9" d="M1005,206.83v362c0,70.98.07,142.02,0,213-.01,10.99.01,22.01,0,33-.03,22.65.05,45.35,0,68-.09,46.09.95,92.53-1.04,138.46-.25,5.82,1.01,14.62-.17,19.83-2.28,10.1-24.23,15.84-29.79,6.22l-.96-388.04-435.03-166.47v374.5c-7.34,5.32-20.23,12.25-27.48,3.48l-.57-834.53c.7-5.3,10.11-9.18,14.05-12.45l477,180.51,4,2.49h-.01Z"/>
  <path class="st8" d="M230,134.83c2.2-.44,4.9,1.1,6,3,5.01,2.56,11.39,10.27,13.78,15.72,8.32,19,.02,45.05-15.86,57.69-6.79,5.4-16.5,5.9-17,16.06s8.13,16.55-4.92,20.52c-1.17,1.09-3.17,1.76-6,2-.2.88-.54.85-1,0-2-.55-6.48-5.14-8-7-3.15-9.64-4.32-29.66,3.95-36.85,17.8-7.87,37.39-28.48,25.05-48.15-1.11-.93-.95-2.12-3.42-3.08-11.59-4.48-23.27,4.63-25.13,16.02-.77,4.71,1.27,9.43.38,12.35-1.81,5.92-23.91,9.05-23.83-.3-3.85-4.86-.15-15.83,2.1-21.69,5.78-15.07,18.22-28.24,34.85-30.29,6.28-.77,14.61-.58,19.05,3.98v.02Z"/>
  <path class="st8" d="M271,240.83c2.66.93,6.33,4.28,8,6.5,9.98,13.29,1.27,32.03-12.76,38.23-3.63,1.6-10.22,1.9-12.33,3.67-2.39,2-2.49,7.27-3.9,10.6-.75,1.19-2.11,1.61-4.08,1.26.1.82-1.21.73-3.92-.26-1.44,2.55-4.69.69-4-2-.17-.89-.36-2.41-1-3-1.22-2.2,1.67-11.49,3.25-13.93,4.44-6.84,6.85-7.32,14.8-8.17,6.4-1.02,18.85-12.84,10.34-17.71l-.4-2.18c-1.5-.41-1.79-1.28-4.46-1.07-9.33.75-8.79,12.11-11.17,12.94-1.97.69-7.07.27-9.12-.62-2.99-1.29-2.89-3.76-4.25-5.25-.88-4.41,4.55-12.38,8.18-15.46,6.77-5.74,19.44-10.24,26.82-3.54h0Z"/>
  <path class="st8" d="M174,269.83c1.64.16,2.98.49,4,1,9.05,8.15,13.18,17.11,7.74,29.24-1.47,3.29-6.46,7.12-6.77,9.31-.29,2.03,2.39,8.02,3.03,11.44.44,2.59-9.08,6.88-8.79,3.25.07-.94,4.05.32-.21,1.75-2.08-4.13-2.53-4.58-5-8-3.91-9.78-3.2-13.01,4.28-20.44,2.43-4.82,3.04-12.79-1.28-16.56l-1.09,1.92c-5.78,0-5.26,6.5-3.77,10.67l-1.15,2.41c.15,1.62-2.31,5.16-4,4-5.36,2.77-7.53,1.16-9-4-5.94-4.37-1.89-15.76,2.41-20.74s14.65-10.52,19.59-5.26h0Z"/>
  <path class="st31" d="M197,242.83c-.62-.76-1.84-.83-2.78-2.7-3.26-6.49-3.23-27.23-.28-33.86,2.32-5.23,11.6-7.61,16.54-11.46,8.41-6.56,16.61-18.43,16.52-29.48-.02-2.56-2.22-5.42-.99-7.5.66.56,1.69-.12,3.24,2.24,8.1,12.38-2.86,30.68-12.71,38.78-9.64,7.93-18.04,5.5-19.51,20.49v23.49h-.03Z"/>
  <path class="st31" d="M232,133.83c1.15,1.22.48,1.56-2,1-32.74-10.82-55.74,17.93-56,48-1.09-.41-3.74-.41-4.04-1.67-.49-2.06-.19-11.19.06-13.82,2.81-29.36,35.75-50.73,61.98-33.52h0Z"/>
  <path class="st8" d="M205,270.83c-8.06-8.93,3.33-21.76,14-17,6.32,5.26,11.06,12.91,5.02,20.52-5.18,6.53-15.92,3.57-19.02-3.52Z"/>
  <path class="st31" d="M265,253.83c10.84,2.96,3.12,15.35-3.97,19.53-5.53,3.26-8.15,2.35-13.31,3.69-7.08,1.84-7.04,13.77-10.72,18.78-.29-.27-1.84,0-2.91-1.56-2.81-4.08,2.98-20.42,7.84-22.01,2.37-.78,5.17-.32,7.89-1.11,7.57-2.22,15.94-8.55,15.18-17.32h0Z"/>
  <path class="st19" d="M271,240.83c-9.81-3.43-21.97-.08-28.41,8.09-2.83,3.59-3.6,7.79-6.59,10.91-1.43-1.56-4.81.38-3.59-6.04,1.58-8.31,11.03-17.31,19.33-18.72,5.86-1,16.68-.9,19.26,5.76h0Z"/>
  <path class="st19" d="M176,268.83c1.09,1.42.42,1.75-2,1-15.31-1.96-26.13,11.5-22,26-2.55.28-3.06-.18-4.09-2.41-8.08-17.38,10.93-37.46,28.09-24.59Z"/>
  <path class="st7" d="M250,299.83c-.81,1.9.84,2.54-4,2.01.08,3.47,4.31,4.14,4.97,7.52,1.36,6.92-3.58,11.77-10.44,10.47-2.94-.56-4.66-4.01-6.54-5.99-4.44-4.37,2.76-12.74,8.09-11.59l-.09-1.41,8-1h0Z"/>
  <path class="st26" d="M168,317.83c-4.25-5.89-4.56-7.7-6-15-.1-2.65,1.53-5.05,4-6-.89-2.77,2.51-9.19,5-10,.72-1.82.72-3.48,0-5-.87-.28-.86-.62,0-1,7.05.81,5.61,12.64,3.03,17.53-1.57,2.97-5.95,6.03-6.63,8.45-1.02,3.66,2.75,7.73.6,11.02Z"/>
  <path class="st22" d="M212,249.83c3.79.65,4.49,1.91,7,4-2.08,1.9-5.3.59-8.06,1.44-5.97,1.83-8.32,10.11-5.94,15.56-8.95-5.15-7.18-15.13,0-21,.29.08.66-.06,1,0,2.58-1.11,4.58-1.11,6,0h0Z"/>
  <path class="st12" d="M238,298.83c.22.04,3.34,1.65,4,2,1.64.87,3.6.66,2.99,2.99-6.73-1.29-10.75,3.78-10.99,10.01-.64-.68-2.98-.78-4.22-4.3-1.93-5.51,2.39-11.74,8.22-10.7Z"/>
  <path class="st5" d="M183,323.83c8.1.17,6.2,14.35-1.99,10.5-.77-.36-3.83-4.24-5.01-5.5-.29-3.78,4.55-7.93,7-5Z"/>
  <path class="st11" d="M183,323.83c-6.24-.13-3.11,4.93-7,5-.49-.52-1.09.81-3-3v-3c3.47,2.12,5.85-.66,9-2,.16.84,1.04,1.93,1,3Z"/>
  <path class="st14" d="M229,815.83l-1-3c.54-.63.78-2.04,1.99-2,.86,2-.83,3.96-.99,5Z"/>
  <path class="st17" d="M329.01,524.83c-.37-2.22-1.21-4.32-2.16-6.35-4.79-10.21-6.61-11.46-9.13-22.87-2.69-12.18-6.31-23.24-13.28-33.72-.53-3.3,11.43-10.43,2.55-22.55-2.78-3.79-15.01-12.98-19.46-12.54-2.19.22-5.91,5.21-8.21,6.86-14.87,10.72-38.34,11.43-55.3,17.7l-35.29,52.8-.33,2.7,21.36,61.71c.08,3.31,1.36,14.65-1.42,16.35-2.09,1.28-16.41,3.29-19.98,3.77-31.68,4.31-70.49,3.65-100.03-9.68-18.46-8.33-37.18-24.65-31.32-47.18,54.37,7.85,106.87-3.25,141.39-48.1,33.45-43.46,41.45-103.26,74.63-144.37,36.08-44.7,98.31-42.43,127.49,8.45,37.19,64.85-.69,134.1-58,170.04-2.07,1.3-12.19,7.91-13.51,6.97h0Z"/>
  <path class="st17" d="M215.68,641.96c1.45-.14,1.59.48,2.11,1.59,4.88,10.46,6.54,35.09.41,44.97-2.96,4.77-23.98,21.8-29.72,26.28-6.66,5.2-14.05,9.04-20.54,14.45-1.64,1.55-1.4,5.69,1.41,5.45s10.73-10.89,18.18-10.78c2.9.04,15.07,11.15,18,13.87,6.18,5.74,13.19,12.98,18.45,19.55,3.53,4.42,10.43,12.85,10.92,18.1.33,3.56-1.9,20.37-3.16,23.61-4.47,11.46-23.66,26.04-35.18,29.82-14.84,4.87-10.75-.46-14.24-9.87-1.73-4.68-6.2-8.76-5.13-14.43.85-4.5,6.21-9.05,10.29-10.78,8.69-3.68,15.66-.33,5.5-12.46-11.75-14.03-58.82-33.37-62.51-47.49-2.7-10.32,4.11-17.38,9.72-25.34,13.19-18.76,30.94-37.01,49.48-50.52,3.67-2.67,23.13-15.77,26.01-16.04v.02Z"/>
  <path class="st17" d="M405,694.83c.74-2.39,1.18-3.79-1.75-4.76-6.34-2.1-12.48-.3-18.61,1.51l-36.48-14.91c-1.09-4.88,1.44-9.6,1.81-14.35.98-12.51-1.82-24.51-4.98-36.48,25.53,8.99,52.59,22.54,73.01,40.48,6.39,5.61,16.66,14.19,16.01,22.99-.39,5.27-16.38,38.71-19.85,46.2-2.38,5.13-5.41,13.36-8.34,17.66-1.32,1.94-13.3,12.01-7.32,13.66,4.36,1.2,5.25-8.31,11.84-4.86s2.51,12.62,2.62,18.3c.08,4.75,3.98,8.75-.05,12.98-6.17,6.46-32.78,9.37-37.8.95-4.23-7.1-4.02-24.7-8.06-32.95,6.47-17.66,9.29-42.71,16.43-59.44.8-1.88,5.3-7,7-7h14.5l.02.02Z"/>
  <path class="st17" d="M324.89,539.74c-2.41,1.68-24.7-9.47-30.31-8.9-6.09.62-31.82,23.9-39.53,27.55-22,1.8-32.87-9.83-40.08-29.03-4.22-11.23-10.58-41.37,4.01-47.04,6.65-2.59,21.18.05,29.51-.49,18.72-1.21,35.37-7.62,51.54-16.55,5.7,7.9,9.13,17.18,11.48,26.55,3.07,12.22,2.4,11.72,8.01,22.99,1.95,3.92,9.23,22.23,5.38,24.93h-.01Z"/>
  <path class="st33" d="M303,619.84c.81,1.02-18.42,15-20.88,15.44-2.93.53-26.07-5.79-27.12-7.96,7.75-2.03,6.9-6.43,8.93-13.06,14.56,1.33,23.3-7.04,30.57-18.43.1,8.2-2.75,22.64,8.49,24.01h.01Z"/>
  <path class="st28" d="M284.99,777.84c.02,3.63.49,7.46-1.13,10.84-3.08,1.93-23.98-4.2-28.38-5.84-7.9-2.93-16.27-5.5-17.48-15.01,15.6,3.72,30.72,9.39,46.99,10h0Z"/>
  <path class="st28" d="M328.01,785.83c1.03-2.3.65-13.36,1.11-13.88.5-.57,11.82-4.1,14.24-5.26,6.11-2.92,11.81-6.47,17.63-9.86-.31,2.69,2.06,6.26,1.94,8.56-.29,5.45-28.27,20.37-34.92,20.43h0Z"/>
  <path class="st28" d="M323.99,773.83c.52.6-1.09,12.84-1.97,13.52-2.85,2.21-31.04,3.68-32.59,1.5-.05-15.29,2.78-9.89,13.93-11.15,6.91-.79,13.88-2.21,20.62-3.87h.01Z"/>
  <path class="st30" d="M282.99,565.83c.54,5.95-.99,16.02-7.99,16.99-.63-6.4.93-14.91,7.99-16.99Z"/>
  <path class="st27" d="M190,787.82c-3.77-.61-8.96,6.05-10,.51-2.77-14.81,12.92-3.91,10-.51Z"/>
  <path class="st25" d="M416.95,758.8c-10.12.82-6.13-11.47.04-8.48,3.62,1.76.39,5.59-.04,8.48Z"/>
  <path class="st4" d="M229,752.83c.21.93,1.69,2.26.99,4-1.83,0-1.58-2.5-1.99-3l1-1Z"/>
  <path class="st32" d="M514,869.83c-.86-277.48-.99-555.05-.38-832.7.88-1.34,2.21-1.91,3.76-1.63,158.14,59.16,316.08,118.94,473.82,179.34.52,277.42.46,554.99-.2,832.73l-2,1.25c-2.62.34-10.09.41-11.51-1.99l.11-389.04-451.59-171.97c-.24,1.91.28,3.21,1.99,4.29-.27,126.56-.63,253.05-1.1,379.47l-1.89,1.24c-3.54.93-8.24,2.36-11-1h-.01Z"/>
  <path class="st15" d="M514,869.83c-1.66-1.04-1-3.79-1.02-5.49-2.89-275.3,2.25-550.75-.04-826.07-.28-3.38,9.02-10.32,11.53-10.35l477.39,180.04.18,734.41c-4.02,30.62,1.79,64.6-1,95-.59,6.39-5.79,10.65-12.05,11.45l.86-832.86L517.81,37.52l-3.82-.18v832.49h.01Z"/>
  <path class="st15" d="M526,485.83c-1.36,4.8,6.93,3.58,8.54,5.96l.52,370.6c.77,4.97-6.21,7.44-10.06,8.44l1-385h0Z"/>
  <path class="st8" d="M171,286.83v-5c2.58,1.45.26,3.89,0,5Z"/>
  <path class="st23" d="M181.99,328.83l-.49,2.99c-1.06-.91-1.82-1.52-1.5-2.99h1.99Z"/>
  <path class="st3" d="M287.99,502.83c-1.37,1.27-6.52,1.12-5.87,3.36.98,3.41,13.92,20.37,11.88,22.63l-3.83-2.66-13.11-23.7c.5-1.76,12.37-5.83,14.99-7.09,2.11-1.01,10.8-8.32,11.95-4.03.97,3.6-6.01,5.6-5.98,6.99,0,.31,2.77,1.83,3.07,4.98,1.04,10.88-13.64,9.47-13.1-.48h0Z"/>
  <path class="st3" d="M237.31,505.14c-2.91,3.2-2.86,8.75-4.19,12.31-1.03,2.76-4.57,1.47-5.05-.24-.28-.99,1.35-7.42,1.87-8.93,4.23-12.13,15.01-12.88,25.37-7.27,2.85,1.54,8.09,6.72,2.23,6.82-4.43.08-13.66-9.94-20.24-2.7h.01Z"/>
  <path class="st3" d="M247.72,514.03c11.53-2.6,12.8,15.65,1.25,13.41-7.39-1.43-8.15-11.85-1.25-13.41Z"/>
  <path class="st10" d="M977,229.83c-.88.74-2.2.91-2.07,2.48l.03,255.08c-.35,1.77.6,3.03,1.04,4.43l-.77,1.13c-148.95-56.35-297.85-113.03-446.69-170.05l-.54-2.09-1.33-.32c-.23-86.43-.3-172.91-.19-259.44l1.52-1.24.77-1.14c149.44,55.97,298.72,112.69,447.84,170.17l.39.96v.03Z"/>
  <path class="st18" d="M526,333.83c1.21,1,2.56,2.47,2,4l1.88,1.22c-.23,42.8.01,85.39.71,127.77l440.6,167.8c.97-41.45,1.24-83.3.81-125.56l2-1.22c-.12-2.61,2.42-2.3,3,0v132.52l-1.46,1.46-449.54-171.48-1.01-1.99,1.01-134.51h0Z"/>
  <path class="st24" d="M528,320.83l448,171c.17.55,1.68,1.32.99,2.99l-4.01-.48-446.99-170.51c-1.12-3.01-.23-6.86,2-3h.01Z"/>
  <path class="st16" d="M526,333.83l450.88,171.14.12,2.86h-3c-147.95-54.42-299.68-111.87-439.82-165.86-2.33-.9-4.29-2.54-6.18-4.14-1.7-.97-2.45-1.95-2-4h0Z"/>
  <path class="st24" d="M530,56.83c144.05,57.81,291.39,108,435.25,166.25,2.23.9,12.52,4.48,12.73,6.25-.16.67-.86.39-.98.49L528,59.83c-3.55.1-2.15-5.33,2-3Z"/>
  <path class="st13" d="M530,56.83h-3l1,3v261c-2.24-.32-2.31.99-2,3l-1.05-2.41V59.28c-.23-3.32,2.65-4.79,5.05-2.45Z"/>
  <path class="st32" d="M570,200.83l3.22-2.37,135.68-30c18.1.96,18.59,13.17,18.93,28.05.26,10.95-.42,22.04-1.17,32.88,58.1,22.57,118.17,45.05,176.55,66.87,9.62,4.9,11.07,9.31,12.19,19.7,1.85,17.06,1.97,43.84-.03,60.83.42,3.03-.37,5.05-2.38,6.04-.24,3.28.25,4.84-3.73,5.82-59.47-20.8-118.07-44.99-177.27-66.82-2.95.96-5.62.91-7.24-1.76.72.73.97,1.6,1.1,2.58.66,4.96,1.07,33.96-.4,36.39-.4.65-.91,1.23-1.45,1.79-.19,2.55.75,4.36-2.49,5-4.1.81-8.79-.36-12-3.01l-144.03-141.97c-5.79-7.4-5.45-17.04,4.52-20.02h0Z"/>
  <path class="st15" d="M913,382.83c1.26-17.16,2.04-54.07.03-70.53-1.02-8.32-5.81-13.24-13.78-15.22l-175.26-66.26c.74-1.41,1.01-2.83,1.07-4.43.35-10.76,1.62-35.64-.1-45.01-.97-5.26-9.46-11.53-14.99-11.11l-139.97,30.56,2.6-3.9,142.16-31.85c5.58-2.38,15.88,5.38,17.03,10.46,2.59,11.47-1.34,31.25.15,43.85.13,1.1.02,2.19,1.03,2.97l181.02,68.98c2.26.2,7.01,6.59,7.01,7.99v83c0,2.25-6.37,1.41-8,.5h0Z"/>
  <path class="st0" d="M732,321.83c-1.66,1.04-1,3.79-1.02,5.49-.1,8.22,1.35,22.81-.01,29.99-.69,3.67-3.74,3.81-6.97,3.53,1.02-13.57-.76-28.3,0-42,2.64,1,5.34,2.02,7.99,3h.01Z"/>
  <path class="st20" d="M974,507.83v130l-445.02-169.48-1.04-2.96.06-127.56c15.96,5.09,31.6,11.28,47.25,17.25,132.98,50.74,265.94,101.6,398.75,152.75Z"/>
  <path class="st32" d="M676,451.83l1.56-1.56,76.55,28.23c-.37-2.06.27-3.28,1.89-3.68.17-6.85-.28-7.59,2-14,1.51-4.08,5.32-1.83,8.26.75,21.92,19.27,43.2,40.22,62.98,61.47.58,1.31.9,2.74-.24,3.78-.49,1.6.38,4.89-1.74,6.01l-61.06,14.73c-14.73,2.32-7.44-15.73-9.38-24.58l-81.6-31.39c-1.12-1.56-1.12-3.4-1.27-5.23-.8-9.29-.81-26.53,2.04-34.54h.01Z"/>
  <path class="st29" d="M829,526.83c-.58-1.81-1.73-3.14-2.98-4.53-19.46-21.78-42.7-41.23-63.51-61.58l-4.52.11c.92-2.58-.54-6.91,5.44-6.03,1.15.17,8.95,7.07,10.57,8.52,19,17,36.13,37.68,54.99,55.01,1.25,1.42,2.09,3.11,2.08,5.05,0,2.91-2.02,3.25-2.08,3.45h.01Z"/>
  <path class="st29" d="M756,474.83c-.04,1.62,1,6.69-1.46,5.97l-78.54-28.97c.97-2.73-.68-6.78,5.24-5.83l74.76,28.83Z"/>
</svg>