<?xml version="1.0" encoding="UTF-8"?>
<svg id="Layer_1" xmlns="http://www.w3.org/2000/svg" version="1.1" viewBox="0 0 1080 1326.64">
  <!-- Generator: Adobe Illustrator 29.8.1, SVG Export Plug-In . SVG Version: 2.1.1 Build 2)  -->
  <defs>
    <style>
      .st0 {
        fill: #281134;
      }

      .st1 {
        fill: #1c0932;
      }

      .st2 {
        fill: #190632;
      }

      .st3 {
        fill: #180632;
      }

      .st4 {
        fill: #af97fe;
      }

      .st5 {
        fill: #1b0938;
      }

      .st6 {
        fill: #601a29;
      }

      .st7 {
        fill: #b17740;
      }

      .st8 {
        fill: #5742be;
      }

      .st9 {
        fill: #0c5c52;
      }

      .st10 {
        fill: #1c0939;
      }

      .st11 {
        fill: #6e0808;
      }

      .st12 {
        fill: #af97fd;
      }

      .st13 {
        fill: #a52e20;
      }

      .st14 {
        fill: #28b37a;
      }

      .st15 {
        fill: #6c56eb;
      }

      .st16 {
        fill: #6d0808;
      }

      .st17 {
        fill: #6c0809;
      }

      .st18 {
        fill: #190732;
      }

      .st19 {
        fill: #1b0832;
      }

      .st20 {
        fill: #902723;
      }

      .st21 {
        fill: #cb381c;
      }

      .st22 {
        fill: #f3a746;
      }

      .st23 {
        fill: #0d5d53;
      }
    </style>
  </defs>
  <path class="st3" d="M941.18,1005.78c-4.78-17.97-21.72-51.4-40.18-57.82-34.42-11.98-107.32,2.36-142.3,13.77-3.66,1.19-8.97,2.08-11.23,5.27-3.84,2.73.92,5.56,4.65,4.92,26.32-7.21,52.94-13.02,79.87-17.41,19.3-2.54,57.48-5.92,72.87,6.54,28.27,22.88,42.51,84.37,19.27,114.33-7.72,9.95-44.62,28.63-57.17,34.26-80.9,36.3-165.93,63.58-251.22,89.24-8.93-17.27-15.06-34.33-17.27-53.89-.39-3.47-1.95-22.28-1-22.91,34.69-22.86,69.34-45.76,103.09-70.05,20.72-14.44,41.68-28.32,63.27-41.37,13.82-8.35,27.34-13.51,42.21-18.5,4.29-1.7,6.39-4.9,1.66-7.77-7.68-4.66-36.41,11.43-43.89,15.98-16.77,10.27-33.78,20.74-51.02,31.42l3.11-41.97c10.52-7.09,19.71-15.36,27.56-24.81,11.87-9.81,26.9-17.72,30.72-33.77,3.33-14-8.95-54.6-13-70.44-11.02-43.04-24.01-85.63-35.43-128.57-8.25-31.03-15.19-62.42-24.29-93.21,52.74-8.02,111.62-76.25,76-128.01h14.5c1.05,0,7.89-2.85,9.39-3.61,17.51-8.87,24.05-34.18,4.12-43.88,29.75-17.76,15.13-49.24-8.48-64.53-11.69-7.57-25.51-11.6-39.53-10.98,44.97-41.66,65.38-115.46,33.17-170.66-23.16-39.69-66.8-54.36-111.17-51.34,11.9-15.88-15.74-26.74-27.99-20.99,3.95-22.03-21.53-49.04-43.55-40.04-3.33,1.36-5.16,4.24-8.46,5.03-3.97-35.84-34.71-64.46-68.79-72.71-44.71-10.82-129.69,9.29-131.22,66.71-21.82-19.95-64.72-16.56-50,22-36.33-32.41-102.5-30.35-131.82,10.67-26.19,36.65-22.4,89.33,2.83,125.32-18.31-.22-39.83,16.13-35.56,36.07.84,3.92,3.95,6.16,4.56,9.93-23.69,4.53-38.87,35.52-26.09,56.52-9.95,5.15-19.71,9.42-28.82,16.07-22.39,16.34-44.45,47.49-51.62,74.38-1.6,6-1.43,13.58-4.46,19.04v3h0v11h0v3c2.77,6.36,3.17,13.45,5.29,20.21,14.03,44.77,65.16,76.67,111.71,66.8-9.04,16.7,3.67,38.34,21,42.99,2.44,6.87,15.44,1.5,8.17-4.71-16.78-3.1-34.52-25.01-19.05-38.95,12.24-.28,22.14-15.08,4.12-11.97-65.9,24.62-139.6-38.21-118.09-108.01,17.81-57.78,79.44-109.81,140.18-79.88,5.86,3.64,14.37-.12,9.48-6.92-3.78-5.26-29.62-11.46-35.37-12.08-13.44-1.44-24.07-.11-36.55,2.64-5.51-9-3.29-22.13,2.18-31.13,10.04-16.52,21.48-17.44,39.39-15.44,3.44-.03,10.6-.87,11.2-4.89.47-3.14-1.61-5.73-3.17-2.66-1.94-3.13-14.35-3.28-16,0l-.44-2.15c-26.43-10.33,5.74-41.41,22.72-34.94,3.67,6.4,23.67,23.59,20.78,7.25-65.19-51.87-45.05-173.86,52.68-163.72,21.87,2.27,38.69,10.58,52.99,26.31,6.88,4.44,11.03-3.38,8.51-9.63-18.53-27.94,5.17-38.49,29.53-23.2,5.6,5.25,22.58,20.49,16.71,2.16-4.53-46.79,60.8-66.49,97.67-66.08,51.74.57,94.17,36.68,88.6,89.84,1.4,7.28,9.39,4.41,9.21-2.35.14-38.59,45.22-12.53,42.43,13.65-4.66,13.33.94,15.61,10.68,7.2,9.22-2.25,29.52,5.04,13.5,14.02-6.73,2.44-7.58,8.88.23,9.58,143-17.68,164.18,154.3,61.3,222.18-5.22,7.95,2.1,12.64,9.19,7.92,31.68-36.42,115.05,36.83,49.94,55.21-12.74.01-29.88,10.8-6.27,11.56,34.62-14.02,35.7,25.15,5.65,32.05l-.65,2.14c-1.6-2.93-12.11-2.58-15.62-2-.57.09-.78,1.23-.88,2-3.26,5.25-1.51,11.26,5.25,18.05,19.33,45.67-34.32,98.51-76.3,108.45-10.85-48.7-49.76-75.1-98.85-74.37-25.29.84-49.51-1.5-72.66-7.02-3.5-3.52-4.98-35.14-1.75-38.53,28.77-12.76,48.35-40.81,57.37-70.86,39.63,18.81,53.42-25.53,53.51-57.89.03-11.25-4.49-36.98-16.2-41.26l-13.23-4.02-.29-3.84c40.6-.92,39.11-42.04,23.92-70.17-10.96-20.31-31.25-36.16-52.9-43.17-5.72-17.45-31.04-24.88-47.41-29.48-18.19-5.11-39.7-9.63-58.19-6.76-2.59-30.96-39.24-25.39-59.34-15.83-22.46,10.68-51.05,33.94-31.19,59.95-19.61,28.56-22.97,65.61-12.26,98.48-26.6,16.41-26.54,53.19-20.19,80.68,2.56,11.07,7.89,28.27,21.9,25.84,7.48,10.76,22.8,7.1,33.64,4.27,8.76,24.01,13.75,49.61,15.24,75,1.85,31.56-1.68,40.96-34.53,43.31-24.97,0-50.62.08-75.31,6.28-48.28,12.13-66.41,51.72-77.38,96.24-12.26-3.25-27.8-10.97-21.28-26.09,2.06-2.89,5.89-9.62.42-9.27-1.32.66-2.17-.3-4.55,1.95-10.39,9.84-5.57,26.51,5.21,33.88,6.41,4.38,14.42,5.58,21.09,8.61-11.94,58.48-23.57,117.17-32.59,176.22-3.39,22.21-11.65,61.92-10.2,82.87,1.13,16.31,13.84,29.09,25.03,39.45-13.82,1.55-27.66,3.71-41.51,5-34.47,3.21-52.82-3.93-72.3,30.7-16.83,29.92-16.38,68.97-6.46,101.07,1.12,3.62,3.79,12.57,5.78,15.22,3.69,4.92,31.72,14.45,38.96,17.04,59.83,21.37,121.95,36.34,181.53,58.46,1.09.74,1.04,1.81,1.04,2.96-.02,5.19-2.66,13.27-3.04,19.07-2.41,36.6,19.34,67.82,54.99,76.98,18.4,4.73,31.1.44,48.51-5.48,38.99-13.25,74.14-37.14,111.98-52.95,56.37,25.06,111.92,48.07,172.03,62.9,1.66.41,3.47.25,4.47,2.03h4c24.35-5.96,32.64-36.43,34.04-58.46,1.56-24.6-.75-51.89-13.04-73.53,60.87-21.08,127.11-41.34,180.91-77.6,10.48-7.06,13.03-9.91,18.26-21.74,9-20.36,9.21-41.6,3.54-62.89ZM332.45,929.99c-1.75.35-2.46-.91-3.5-1.98-3.02-3.12-25.33-30.41-25.44-32.47,8.4-29.07,12.2-59.48,14.97-89.55l11.19,24.3c7.93,13.09,12.67,11.66,14.79,29.21,2.92,24.13-1.38,48.74-12.01,70.49ZM624.48,755l16.99,48.99-26,2c6.26-16.23,9.46-33.56,9.01-50.99ZM541.82,1156.89l-90.35-49.41,195-27.48c-34.37,26.35-75.16,44.58-104.64,76.89Z"/>
  <path class="st21" d="M747.47,966.99c.64.47-.85,3.32,4.37,2.95,43.23-10.68,98.28-26.69,142.67-16.48,20.74,4.77,37.84,41.18,41.5,60.5,3.51,18.53,1.65,52.93-13.79,66.28-8.48,7.34-29.5,18.31-40.08,23.92-27.02,14.34-56.48,26.16-85.15,36.85-59.63,22.22-120.44,41.83-181.56,59.51-14.84-22.64-21.31-52.53-19.45-79.53,37.01-23.22,72.05-49.33,108.16-73.84,22.39-15.19,45.99-31.83,70.31-44.69,11.47-6.06,19.67-7.75,30.83-12.17,3.22-1.28,5.11-3.49.68-4.31-13.14-2.41-46.35,19.27-58.4,26.58-12.49,7.58-24.48,16.02-37.07,23.42l3.48-47.01c9.95-7.86,19.75-15.92,29.51-23.99.28,2.32,3.49,1.63,4,2Z"/>
  <path class="st14" d="M930.47,560.99c1.02-.77,2.05-.74,3.09.08l40.96,11.25c3.04.91,4.08,5.81,2,7.86-58.98,58.38-118.79,116.73-177.89,174.38l-2.15.43c-.22.2-1.91.4-3.02,1.43-2.19,2.03-9.43,10.45-11.01,11.12-1.9.81-3.77-.7-4.86-2.17l-40.66-105.3,2.29-4.11,45.94-21.82c2.91-.27,4.95,6.7,5.31,8.84l2.09,1.23c.07,5.87,3.74,47.14,5.48,45.62,6-5.24,14.99-15.92,17.47-23.3l1.96-1.55,1.99,2.99,88.02-110.49c2.98-1.83,16.09,2.76,20.22,3.82,1.34.34,2.64-.36,2.77-.32Z"/>
  <path class="st9" d="M930.47,560.99c1.12-1.58,3.08-4.66,5.06-4.56l63.5,17.49c2.25.55,3.2,1.96,1.95,4.06l-185.5,182.52c-2.75,1.21-9.71,9.23-12.08,9.07-3.05-.21-5.22-11.78-6.94-14.58.15-.14.13-1.55,1.04-2.42,60.12-56.83,117.72-116.36,177.45-173.59.98-1.8.93-4.06-1.18-4.81-13.54-3.99-27.2-7.55-40.85-11.2-1.85-.49-2.32-1.94-2.48-1.98Z"/>
  <path class="st14" d="M937.47,714.99c3.72-.38,23.13,4.63,24.32,6.93.74,1.43.84,2.81-.15,4.18l-82.89,82.45-2.28-.55c-2.95,1.53-7.1,8.19-10.03,4.53l-19.65-51.06c.2-1.83,19.79-11.29,22.68-12.06,2.8-.74,4.54.24,6,2.58l1.62,1.32c.33,5.63,1,11.23,2.03,16.79l5.99-8.33,2.36.22c12.87-15.62,26.17-30.92,38.43-47.07,3.39-2.5,7.72.64,11.57.07Z"/>
  <path class="st9" d="M876.47,807.99l83.55-83.01c.36-.4.5-.86.41-1.39-.6-3.68-19.6-5.39-22.96-8.61,1.4-1.19,1.84-1.61,3.76-1.37,9.17,1.14,19.19,6.27,28.53,7.57,2.17.66,2.16,2.99,1.2,4.79l-88,86c-3.67,3.81-5.72-.11-6.49-3.99Z"/>
  <path class="st9" d="M790.47,642.99c7.51-2.42,16.04-11.81,23.83-6.83.31,9.27,3.57,19.66,3.17,28.83-.05,1.13.2,2.28-.05,3.41-1.27,5.86-16.92,20.74-20.94,26.58-2.3-14.48-3.83-29.1-5.87-43.63-.36-2.57.15-6.64-.15-8.36Z"/>
  <path class="st23" d="M887.47,761.99c-3.08,3.74-5.47,9.4-9.99,12,.09-3.64-3.61-20.34-2.01-22,.4-.41,5.07-2.72,5.76-2.84,6.77-1.17,5.52,8.24,6.24,12.84Z"/>
  <path class="st16" d="M216.47,620.99c2.66.71,5.2,1.32,8,.99.95-5.37-1.52-3.65-5.28-5.22-13.23-5.53-25.33-18.55-20.19-33.75.42-1.26,2.24-5.28,2.99-6,3.59-3.46,17.89-2.74,15.04-10.08-1.62-2.34-13.95,3-17.36,3.76-67.04,14.98-132.65-49.69-108.95-116.95,18.37-52.15,68.41-99.35,127.53-84.03,5.41,1.4,14.16,6.42,17.96,7.1,4.11.74,5.91-2.4,3.27-5.33-1.83-2.03-16.33-7.23-19.79-8.2-10.84-3.06-22.43-4.18-33.7-3.27-4.25.34-13.96,3.51-17,3.04-4.71-.72-4.88-14.66-4.55-18.59,1.09-13.25,13.1-29.92,26.77-32.23,8.47-1.43,18,1.89,26.31-.69,3.66-1.13,3.29-4.55,1.45-4.55h-16c-1.61,0-8.25-3.88-9.52-5.48-12.13-15.17,14.92-37.53,30.5-34.5,3.41.66,4.44,4.39,6.63,6.37,2.06,1.86,11.29,10.55,13.88,8.58.1-.08.74-2.38.72-2.51-.29-1.64-10.5-9.56-12.7-11.97-34.23-37.33-36.82-107.34,4.53-140.48,26.86-21.54,73.82-20.85,101.79-1.84,4.23,2.88,12.4,12.23,14.7,13.31,3.13,1.46,3.83.61,4.98-2.03,2.17-4.94-2.03-7.64-3.76-12.21-2.87-7.6-5.91-16.08,1.2-22.32,9.13-8,26.39-2.24,35.47,3.64,3.17,2.05,11.31,11.01,13.56,10.42,3.53-.93-.25-5.14-.44-6.54-3.77-28.76,21.92-48.97,45.71-58.2,45.61-17.71,101.43-15.01,131.47,28.03,12.87,18.44,13.56,30.79,12.99,52.53-.11,4.19,3.84,4.18,4.63,1.53,2.52-8.51-2.13-15.41,8.2-21.8,16.46-10.17,37.36,12.09,38.96,27.95.59,5.85-1.31,7.98-1.83,12.25-.9,7.49,7.23-1.53,9.78-2.29,5.44-1.61,11.78-.29,16.57,2.52,10.35,6.08,5.57,9.17-1.27,15-1.01.86-7.39,2.74-3.28,5.55,1.93,1.32,20.05-.72,24.56-.56,132.51,4.44,133.24,166.69,40.47,226.55-2.32,3.36-1.35,7.31,3.27,6.33,6.27-1.33,11.7-10.65,20.34-11.72,42.23-5.25,92.77,54.37,33.39,69.39-1.4.35-22.3,2.87-13,6.97,8.62,3.81,21.96-9.25,32.49,1.51,9.15,9.35,2.14,23.65-7.17,29.83-1.94,1.29-11.03,5.17-12.83,5.17h-16.5c.94,2.17-.35,5.52.16,7.25.46,1.55,6.38,8.07,8.02,12.07,5.85,14.24,2.81,31.64-3,45.35-12.75,30.06-45.12,56.94-77.08,63.24-6.07-20.14-16.99-41.49-33.62-54.89-29.12-23.46-76.94-17.75-111.97-21.03-4.51-.42-23.81-2.74-26.28-5.22-4.62-4.66-5.95-36.56-1.98-41.52.56-.7,12.74-6.7,15.66-8.84,20.41-14.88,35.84-40.15,42.1-64.41,10.39,8.02,27.96,9.07,36.82-1.67,12.79-15.52,17.81-41.22,15.06-60.71-.75-5.3-5.33-24.01-8.41-27.59-4.1-4.75-19.65-7.28-20.37-8.13-.22-.25-.36-5.55-.16-6.29.47-1.78,9.33-1.43,11.32-1.85,20.78-4.4,25-25.36,21.08-43.61-6.34-29.52-26-49.87-52.67-62.33-1.61-.75-8.2-2.67-8.49-3.01-.38-.45-.58-4.05-2.67-6.83-14.04-18.7-69.7-29.86-92.02-30.07-3.82-.03-7.54,1.73-11.5,1.09.21-23.79-21.42-25.46-40.01-21.52-20.73,4.4-56.99,25.82-52.75,50.78.65,3.84,6.73,12.21,6.6,13.05-.17,1.05-4.39,6.76-5.36,8.66-15.4,30.14-16.72,59.22-6.41,91.45-11.43,3.16-20.41,20.61-22.62,31.52-3.32,16.39-.99,56.16,11.55,68.56,5.16,5.1,8.33,1.9,10.98,2.96,1.33.53,3.23,3.9,5.1,4.95,6.72,3.79,21.69,1.38,28.87-1.4,3.16,8.57,6.16,17.27,8.38,26.16,4.37,17.57,12.67,67.39,4.88,82.53-9.48,18.39-44.73,13.48-61.69,14.31-16.18.79-38.63,3.32-54.03,7.97-41.75,12.62-60.8,55.3-68.49,95.02-14.06-3.55-32.24-11.23-25.47-28.99,1.19-3.12,4.88-5.72,2.48-9.02,1.39-.69,2.36-1.57,3-3Z"/>
  <path class="st15" d="M719.47,821.99c-7.08,70-7.77,142.76-16.02,212.48-.24,2.07-.84,6.58-1.92,8.08l-40.8,28.2-213.53,29.51c-4.34,1.08-1.98,2.35-2.75,3.73-.58,1.04-18.99-8.42-21-9.48-13.8-7.25-27.24-15.5-40.82-23.18l12.28-217.4,308.56-30.94c4.42-3.05,11.27-3.57,16-1Z"/>
  <path class="st21" d="M586.47,565.99c-12.31,29.95-11.42,67.45,6.59,94.91,3.39,5.17,9.78,10.71,12.19,15.81,2.6,5.51,4.23,14.17,5.73,20.27,8.83,35.83,14.19,75.21-1.67,109.85l-235.3,21.2c-1.23.13-2.52.82-3.05,1.95-.16.35-1.49,7.13-1.49,7.51v16c0,.36-.94,1.33-2.04,1.07-10.66-2.53-26.19-18.99-31.77-28.27-23.64-39.33-10.76-88.76-6.97-131.58,11.6-15,22.09-30.17,27.28-48.72,7.53-26.93,3.29-53.72-7.5-78.99,7.27-.75,14.68-1.84,22.02-.52,5.73,17.84,19.55,30.3,35.07,39.93,49.86,30.94,117.45,23.72,152.73-25.1,1.84-2.55,9.26-15.96,10.84-16.14.78-.19,1.53.83,1.85.83h15.5Z"/>
  <path class="st21" d="M335.47,1046.99c-21.02-10.56-43.66-20.53-66.23-27.27-9.4-2.81-32.64-9.68-41.42-9.68-3.27,0-4.72,1.9-1.74,3.83s19.41,4.26,24.4,5.6c41.43,11.09,78.33,30.14,116.01,49.99,31.44,16.56,61.47,36.2,94.93,48.57-1.77,14.92-5.35,29.85-11.12,43.78-18.07.85-36.3-.54-54.38.13-12.44.46-34.07,1.44-45.73,4.27-5.47,1.32-14.07,8.99-17.7,13.3-2.69,3.19-3.8,9.46-8.27,8.3-61.67-23.73-127.61-37.98-189.52-60.55-5.19-1.89-23-7.9-25.8-11.2-2.38-2.81-5.33-14.49-6.36-18.64-7.2-28.8-7.93-60.71,4.76-88.1,16.84-36.36,37.99-28.46,71.66-31.34,15.28-1.31,30.48-3.89,45.8-4.78,37.52,23.75,74.15,49.24,111.71,72.79,1.33,1.3.78,1.48-1,1Z"/>
  <path class="st22" d="M343.3,568.16c19.7,40.29,13.42,86.5-16.34,119.83-1.46-7.65-4.12-19.16-13.49-19.99.86,4.05,5.24,5.7,7.2,9.29,2.78,5.07,3.12,11.53,2.78,17.19-1.16,19.25-6.21,40.39-7.98,60.02-2.89,32.12-4.32,63.84-9.15,95.85-.61,4.06-6.19,39.64-8.36,39.62-1.42-3.27-8.18-5.13-7.42-.61.2,1.18,8.39,9.32,9.9,11.16,20.86,25.52,40.41,52.15,61.83,77.24-1.31,24.75-3.27,49.52-3.81,74.23-.71.77-15.96-9.32-17.91-10.58-34.86-22.51-78.35-47.65-110.56-72.44-12.01-9.24-29.13-25.65-30.56-41.44-1.43-15.69,4.79-46.11,7.21-62.88,4.38-30.34,9.72-60.69,15.15-90.85,8.25-45.87,20.11-138.57,47.27-173.73,18.34-23.74,45.04-31.53,74.25-31.91Z"/>
  <path class="st22" d="M714.47,978.99l13.98-170.5c.17-4.19.68-8.45-2.7-11.51-25.78.37-51.37,4.81-77.15,5.87l-25.89-69.6c-1.13-8.78-2.72-17.66-4.73-26.27-2.22-9.47-7.68-23.46-8.95-31.88-.32-2.14,1.72-11.1,2.65-13.41.82-2.04,6.65-7.95,5.79-8.7-4.94-4.27-11.35,12.76-11.49,15.99-26.33-26.84-28.52-69.45-14.85-103.04,34.79,2.55,65.14,4.77,86.15,35.73,22.27,32.81,35.39,109.7,46.48,150.52,11.63,42.85,24.87,85.45,35.43,128.57,2.66,10.86,9.2,32.63,9.31,42.76.05,5.06-3.33,13.5-6.5,17.48-6.39,8.02-27.92,23.73-37.05,30.95-1.26,1-9.6,7.98-10.47,7.02Z"/>
  <path class="st22" d="M531.48,303.99c17.25,9.36,34.77,19.05,53.88,24.1.4,2.37.13,4.76-.17,7.13-.97,7.79-6.12,20.86-6.26,27.26-.12,6.01,4.02,18.47,4.52,26.02,1.49,22.15-1.08,42.01-9.52,62.46-10.83,26.24-38.23,61.61-69.84,58.9-32.46-2.78-67.43-29.58-81.82-58.19-1.63-3.24-7.9-17.61-7.77-20.23.11-2.2,2.82-3.03,3.7-5.2,5.23-12.86,7.57-34.9,6.13-48.63s-9.07-26.56-15.88-37.61c22.03-3.99,36.66-25.97,43.74-45.77,2.74-7.66,3.72-15.72,6.76-23.24,5.42,23.53,27.19,60.26,53.25,63.73,18.57,2.47,25.89-15.52,19.25-30.74Z"/>
  <path class="st22" d="M583.47,1208.99c2.65.23,2.28.84,0,2-46.59,15.38-80.21,34.62-123.64,54.86-18.3,8.53-55.97,25.48-75.41,22.69-45.92-6.59-66.67-55.1-51.43-96.53,8.52-23.15,32.09-23.76,52.94-25.06,20.59-1.28,41.45-.67,62.08-1,29.94-1.36,65.72,12.9,92.98-1.93,9.14-4.97,16.12-15.23,23.98-22.02,1.25,19.71,4.18,39.53,12.32,57.67,1.44,3.21,3.06,7.54,6.17,9.33Z"/>
  <path class="st11" d="M515.47,214.99c32.69,5.65,68.21,8.3,94.01,32.49,15.27,14.31,30.6,44.8,22.48,65.5-10.7,27.28-56.84,6.61-75.17-1.81-5.25-2.41-34.65-19.42-36.68-19.01-.71.14-2.36,1.69-2.42,2.33,5.77,8.04,13.61,15.21,10.01,26.25-5.55,16.98-27.01,4.84-35.71-2.76-17.03-14.89-29.16-43.16-31.51-65.49-.44-4.17.45-8.48-.3-12.75-.34-1.95-.86-3.73-3.21-2.73-2.57,1.09-1.31,9.73-1.52,12.48-1.74,23.3-6.49,48.27-20.58,67.42-5.48,7.46-16.68,17.76-26.19,18.92-5.33.65-5.62-3.63-8.46-5.08-1.17-.59-8.37-2.59-9.76-2.76-2.89-1.23-3.19-8.13,0-9-2.59-10.16,1.56-23.94,5.12-34.09,12.84-36.69,44.67-54.88,81.04-62.22l6.85-2.69,1.52-1.86c9.78-2.18,19.62-3.93,29.51-5.27l.97,2.13Z"/>
  <path class="st22" d="M545.46,1231.98c-1.49-1.42.41-1.74,1.28-2.22,9.96-5.51,22.36-9.22,33.2-12.79,49.69-16.33,101.13-27.51,150.22-45.79,3.73-.05,8.76,13.35,9.81,16.8,7.41,24.24,7.4,63.5-3.34,86.68-11.14,24.05-25.11,17.5-46.39,12.04-45.74-11.74-98.02-34.17-141.11-53.92-1.19-.55-3.54-.67-3.68-.8Z"/>
  <path class="st22" d="M425.47,466.99c15.95,22.56,43.58,41.35,70.97,46.53,6.73,1.28,14.46,2.66,21.03.47-1.28,10.53-2.02,34.14,5,42.51,6.35,7.57,30.35,7.44,40,8.5-4.74,13-16.43,25.55-27.66,33.83-43.14,31.79-112.12,25.49-148.3-14.36-2.3-2.53-10.21-14.25-9.98-16.99.21-2.47,10.92-1.23,13.44-1.5,12.98-1.36,30.41-5.53,36.69-18.31,8.71-17.73,1.05-58.75-2.18-78.68-.38-1.77-.04-2.44,1-2Z"/>
  <path class="st4" d="M703.47,822.99c-.13,0-1.17-1.08-2.43-1.05l-308.42,28.19-13.16,219.86c-3.17-2.32-14.63-5.52-15-9.52l13.02-225.47,343.99-31.01-2,18c-5.37.48-10.58.92-16,1Z"/>
  <path class="st15" d="M569.47,217.99c.96,1.16.3,1.5-2,1-13.78-2.8-28.38-6.39-42.51-6.99-3.57-.15-7.85-1.01-9.49,2.99-8.24-1.42-25.18,6.27-32,5-.22.9-.73,1.42-1.62,1.42-26.24-.23-60.32,20.12-76.03,41.18-11.29,15.13-19.68,38.48-15.36,56.4-.3,2.86.21,6.08,0,9-5.55-.66-11.94,2.5-14.31-3.19-15.05-36.24.86-88.49,31.39-112.22,38.1-29.62,127.25-28.79,161.92,5.42Z"/>
  <path class="st15" d="M402.2,337.27c.92.74,7.73,11.75,8.79,13.7,11.73,21.58,12.85,41.7,6.2,65.23-2.29,8.1-3.42,9.87-11.05,13.95s-13.35,4.84-21.9,3.57c-11.74-1.74-4.67-7.78-2.62-15.09,5.25-18.69,2.87-57-9.7-72.59-1.21-1.5-4.79-2.81-4.41-4.49,3.89-8.53,29.49-8.49,34.69-4.29Z"/>
  <path class="st15" d="M601.42,332.04c.51.52-.24,6.39.06,7.96h-10.01c-1.7,9.29,13.89,2.17,18.01,6.49,4.92,5.16,4.51,47.18,4.03,56.05-.31,5.75-3.6,34.77-8.02,36.97-3.9,1.94-18.63-1.48-19.87-6.24-.6-2.3,2.55-13.95,2.84-17.79.58-7.79.54-19.2.05-27.03s-4.14-18.87-4.11-25.96c.04-8.97,6.12-22,6.56-31.55.46-.79,10.1.72,10.46,1.09Z"/>
  <path class="st21" d="M469.47,186.98c-31.62.98-62.24,13.4-81.5,38.99-15.87-15.27,1.57-34.56,15.19-43.79,17.84-12.1,62.6-28.82,66.31,4.8Z"/>
  <path class="st11" d="M583.47,1208.99c.15-.47,1.11-.68.86-2.2-.53-3.24-6.7-14.06-8.32-18.84-2.9-8.59-5.44-19.47-6.53-28.47-.53-4.37-1.72-14.13-.99-17.96.44-2.3,2.44-3.59,4.06-4.93,2.31-1.92,16.41-11.78,18.43-12.58,1.73-.68,1.35.44,1.49,1.47.91,6.86.17,15.36,1.13,22.89,2.37,18.72,9.23,36.53,17.9,53.09-9.31,3.14-18.7,6.46-28.03,9.54.11-.62-.16-1.49,0-2Z"/>
  <path class="st4" d="M363.17,347.1c4.66-1.2,9.53,10.42,10.76,13.93,5.44,15.58,7.01,38.94,3.05,54.97-1.87,7.57-5.28,16.98-12.5,7.49-7.75-10.18-10.76-37.39-10.04-50.04.29-5.19,3.01-24.87,8.75-26.35Z"/>
  <path class="st21" d="M362.46,968.99l-15.74-19.63c11.25-28.76,15.21-59.5,13.76-90.36,2.85,1.98,8.14,2.26,8.04,6.44l-6.06,103.56Z"/>
  <path class="st16" d="M453.47,1161.98c5.75-13.3,8.66-27.71,11.01-41.99l23.56,13c.99,1.57-4.58,29.23-6.52,30.55l-28.05-1.56Z"/>
  <path class="st12" d="M623.16,351.3c1.67,1.86,3.51,9.41,4.24,12.27,4.98,19.62,4.47,39.26-4.07,57.78-1.45,3.15-7.63,14.07-9.81,15.96-1.12.97-1.65.77-3.04.67,7.89-29.01,8.23-61.52,3-90.99,1-.98,8.64,3.15,9.68,4.3Z"/>
  <path class="st22" d="M536.46,1160.98l-20.46,6.51-30.54-3.5,5.48-28.02c1.21-1.57,1.16-.52,2.19-.15,1.87.67,4.14,2.07,6.01,3.01,2.58,1.29,38.67,20.45,37.33,22.16Z"/>
  <path class="st17" d="M350.47,852.99c1.33.57,3.41,2.38,3.8,3.7.47,1.6,1.14,10.38,1.24,12.76.56,13.6-1.68,31.35-4.34,44.75-1.09,5.51-5.64,24.99-8.2,28.8-1.02,1.51-1.03.81-2.03.01-.85-.68-6.15-7.67-6.15-8.52s7.16-12.17,8.43-15.23c2.18-5.28,7.24-21.67,7.24-26.76v-39.5Z"/>
  <path class="st6" d="M345.47,1050.99c.86.55,7.64,3.31,5.99,5-.42.43-6.05-3.5-6.99-4-1.32-1.4-.76-1.9,1-1Z"/>
  <path class="st20" d="M345.47,1050.99l-1,1c-1.74-.93-3.52-2.24-5-3-1.32-1.3-.77-1.52,1-1,1.67,1.01,3.35,1.94,5,3Z"/>
  <path class="st13" d="M340.47,1047.99l-1,1c-1.29-.67-2.69-1.34-4-2l1-1c.94.59,2.62,1.17,4,2Z"/>
  <path class="st7" d="M425.47,466.99l-1,2c-.17-1.06-1.85-3-.99-5,1.89.06,1.54,2.37,1.99,3Z"/>
  <path class="st8" d="M569.47,217.99c.57.56,2.06.8,2,1.99-1.73.73-3.13-.81-4-.99l2-1Z"/>
  <path class="st4" d="M570.47,953.99c.37,1.35.24,1.5,1,3,7.86,3.58,10.45,13.82,6.24,21.99-14.36,27.84-67.22,5.44-40.24-23.99.06-.32-.07-.68,0-1-1.47-2.92.63-9.53,2.17-12.84,5.89-12.71,19.03-16.45,27.4-3.61,2.7,4.14,5.19,12.21,3.43,16.45Z"/>
  <path class="st5" d="M571.47,956.99c-.31-2.84.61-2.46,2.51-1.02,12.9,9.81,7.51,27.76-5.83,34.2-24.69,11.92-55.49-14.06-30.69-35.19-1.1,5.45-.66,2.54-3.21,7.29-13.71,25.54,29.82,37.96,41.42,17.42,6.52-11.54.07-14.23-4.21-22.71Z"/>
  <path class="st10" d="M537.47,953.99c-2.97.54-2.1-1.43-1.88-3.35.7-6.03,3.28-13.97,7.94-18.09,2.8-2.48,9.13-3.92,10.4-5.6,2.24-2.97,3.89-17.89,8.03-17.97,2.48-.05-4.91,17.11-4.56,19.44.09.63,3.58,1.11,5.03,2.11,6.2,4.26,10.04,12.58,10.06,19.98,0,1.91.91,4.06-2.03,3.48-1.7-6.13-1.49-11.37-5.57-16.93-8.44-11.51-21.19-4.44-24.75,7.12-.77,2.49-2.19,7.53-2.68,9.81Z"/>
  <path class="st18" d="M508.32,361.14c.54.91,0,2.68.15,3.85-6.39.21-12.88.06-19-2,2.06,8.3,3.14,16.67.52,25.03-2.37,7.56-8.48,10.63-12.73,2.67-4.61-8.65-3.37-22.16,1.2-30.69-3.63-.87-21.31-6.65-20-11.5,1.02-3.79,6.69.97,8.31,1.67,5.4,2.35,11,4.72,16.7,6.3,4.18,1.17,24.2,3.57,24.85,4.65Z"/>
  <path class="st2" d="M543.19,357.14c6.16-1.71,8.92,8.79,9.32,13.32.56,6.4.57,26.74-10.34,23.35-7.66-2.38-8.36-34.07,1.02-36.67Z"/>
  <path class="st19" d="M478.23,439.23c1.02,1.14,1.26,4.26,2.41,6.08,8.89,14.1,23.26,21.59,40.21,19.57,1.89-.23,15.2-5.51,11.48.99-.36.63-7.44,3.3-8.84,3.65-15.72,3.9-34.26-3.13-43.86-16.2-1.4-1.9-6.2-10.05-6.15-11.85.07-2.48,2.95-4.23,4.74-2.23Z"/>
  <path class="st1" d="M528.49,354.96c-1.7-2.28,6.56-12.26,8.45-13.99,10.42-9.48,20.87-6.22,30.07,2.99,1.52,1.52,9.66,12.5,2.98,11.03-1.09-.24-9.15-9.76-11.58-11.43-6.04-4.14-11.62-4.38-17.45.42-2.77,2.28-9.05,15.57-12.46,10.98Z"/>
  <path class="st1" d="M526.5,435.96c-3.29-2.3,4.73-8.69,4.87-11.42.27-5.13-6.54-20.77-7.66-27.29-.9-5.24-.05-7.68,4.6-3.6.91,7.81,10,27.79,7.62,34.29-.8,2.19-6.54,10.03-9.43,8.01Z"/>
  <path class="st0" d="M487.97,467.01c.39.01,3.96,4.23,5.8,5.18,2.53,1.31,11.69,1.92,11.68,3.3-.03,3.47-16.68,1.53-18.57-5.43-.35-1.29.01-3.08,1.09-3.05Z"/>
  <path class="st2" d="M483.47,219.99c.03,2.16-1.2,2.83-2.98,3.52-5.61,2.18-14.12,3.25-20.54,5.46-46,15.86-64.56,42.54-69.48,90.02-4.42.03-3.17-7.62-3.04-10.54,2.03-47.54,41.16-78.55,84.61-88.39,7.11-1.61,5.63-1.15,11.43-.07Z"/>
</svg>